<?xml version="1.0" standalone="no"?>
<!DOCTYPE svg PUBLIC "-//W3C//DTD SVG 1.1//EN" "http://www.w3.org/Graphics/SVG/1.1/DTD/svg11.dtd" >
<svg xmlns="http://www.w3.org/2000/svg" xmlns:xlink="http://www.w3.org/1999/xlink" version="1.1">
<metadata>
Created by FontForge 20201107 at Sun Apr 26 10:00:55 2026
 By www-data
Copyright 2015-2018 Indian Type Foundry. All rights reserved.
</metadata>
<defs>
<font id="KohinoorBangla-Regular" horiz-adv-x="0" >
  <font-face 
    font-family="Kohinoor Bangla"
    font-weight="400"
    font-stretch="normal"
    units-per-em="2048"
    panose-1="0 0 5 0 0 0 0 0 0 0"
    ascent="1638"
    descent="-410"
    x-height="1114"
    cap-height="1436"
    bbox="-1118 -776 2966 2292"
    underline-thickness="102"
    underline-position="-204"
    unicode-range="U+0020-FB02"
  />
<missing-glyph horiz-adv-x="1024" 
d="M0 0v1434h1024v-1434h-1024zM512 809l348 522h-696zM573 717l349 -522v1044zM164 102h696l-348 523zM102 1239v-1044l349 522z" />
    <glyph glyph-name="fi" unicode="fi" horiz-adv-x="1220" 
d="M401 0h-159v989h-185v125h187v125q0 160 105 246t317 86q108 0 207 -19.5t145 -44.5l-43 -127q-137 56 -326 56q-133 0 -189.5 -47.5t-56.5 -149.5v-125h648v-1114h-160v989h-490v-989z" />
    <glyph glyph-name="fl" unicode="fl" horiz-adv-x="1300" 
d="M401 0h-159v989h-185v125h187v125q0 160 105 246t317 86q126 0 229.5 -25.5t155.5 -58.5v-1223q0 -74 26.5 -107.5t87.5 -33.5q51 0 95 22v-135q-55 -24 -140 -24q-113 0 -171 62t-58 173v1184q-98 31 -242 31q-133 0 -189.5 -47.5t-56.5 -149.5v-125h259v-125h-261v-989
z" />
    <glyph glyph-name=".notdef" horiz-adv-x="1024" 
d="M0 0v1434h1024v-1434h-1024zM512 809l348 522h-696zM573 717l349 -522v1044zM164 102h696l-348 523zM102 1239v-1044l349 522z" />
    <glyph glyph-name=".null" 
 />
    <glyph glyph-name="nonmarkingreturn" horiz-adv-x="682" 
 />
    <glyph glyph-name="space" unicode=" " horiz-adv-x="589" 
 />
    <glyph glyph-name="exclam" unicode="!" horiz-adv-x="579" 
d="M348 504h-125q-42 928 -43 946h209q-6 -140 -20 -464.5t-21 -481.5zM414 121q0 -50 -36.5 -85.5t-90.5 -35.5q-49 0 -85 36t-36 85q0 54 35.5 90.5t85.5 36.5q54 0 90.5 -36.5t36.5 -90.5z" />
    <glyph glyph-name="quotedbl" unicode="&#x22;" horiz-adv-x="667" 
d="M545 1016h-117l-33 452h183zM238 1016h-115l-33 452h182z" />
    <glyph glyph-name="numbersign" unicode="#" horiz-adv-x="1374" 
d="M381 0h-143l69 412h-223l6 131h238l59 348h-227l6 131h244l67 393h144l-68 -393h399l68 393h143l-67 -393h194l-6 -131h-209l-59 -348h198l-6 -131h-215l-69 -412h-144l70 412h-399zM532 891l-61 -348h399l62 348h-400z" />
    <glyph glyph-name="dollar" unicode="$" horiz-adv-x="1083" 
d="M608 -283h-147l4 289q-238 11 -402 144l99 133q63 -55 156.5 -94t205.5 -39q151 0 223 61.5t72 159.5q0 47 -18 85t-56.5 69.5t-78.5 54t-105 51.5l-123 55q-68 30 -117.5 62t-92.5 75.5t-65 101t-22 128.5q0 146 100 240.5t255 117.5l-4 283h147l-4 -279
q194 -14 319 -112l-106 -127q-45 44 -122 70t-155 26q-124 0 -195 -56.5t-71 -154.5q0 -88 60 -143.5t182 -112.5l115 -53q80 -38 128 -66t98 -72t73.5 -100.5t23.5 -128.5q0 -89 -40 -166.5t-128 -135t-213 -73.5z" />
    <glyph glyph-name="percent" unicode="%" horiz-adv-x="1695" 
d="M1419 1309l-1013 -1266l-99 80l1016 1266zM717 1051q0 -195 -86.5 -295.5t-227.5 -100.5q-142 0 -223.5 96.5t-81.5 292.5q0 189 87 290.5t229 101.5q139 0 221 -97.5t82 -287.5zM238 1047q0 -277 174 -277q85 0 126.5 64.5t41.5 209.5q0 275 -177 275
q-82 0 -123.5 -64.5t-41.5 -207.5zM1597 377q0 -195 -86 -296t-227 -101q-142 0 -223.5 97.5t-81.5 293.5q0 189 86.5 289t228.5 100q139 0 221 -96.5t82 -286.5zM1118 373q0 -277 174 -277q85 0 126.5 64.5t41.5 208.5q0 276 -176 276q-82 0 -124 -65t-42 -207z" />
    <glyph glyph-name="ampersand" unicode="&#x26;" horiz-adv-x="1390" 
d="M1038 147q-176 -176 -475 -176q-98 0 -180 23.5t-136.5 62.5t-92.5 91t-55 107t-17 112q0 281 344 395q-139 154 -139 317q0 143 101.5 240.5t262.5 97.5q157 0 252.5 -96t95.5 -238q0 -127 -78 -228t-257 -153q136 -151 366 -354q105 163 105 391h145
q-3 -122 -39 -251.5t-106 -229.5q90 -83 284 -235v-23h-200q-112 87 -181 147zM436 1079q0 -145 135 -274q84 22 141 51.5t86.5 66t41.5 74t12 84.5q0 86 -55.5 143.5t-147.5 57.5q-96 0 -154.5 -54t-58.5 -149zM233 377q0 -52 21 -100t61.5 -87.5t107.5 -63.5t150 -24
q224 0 363 136q-296 275 -420 415q-141 -36 -212 -103.5t-71 -172.5z" />
    <glyph glyph-name="quotesingle" unicode="'" horiz-adv-x="360" 
d="M238 1016h-115l-33 452h182z" />
    <glyph glyph-name="parenleft" unicode="(" horiz-adv-x="655" 
d="M754 -438h-170q-34 28 -80 82t-107 153t-110.5 213t-84 273t-34.5 323q0 166 34.5 325.5t84 274t110 213t106.5 152.5t81 82h170v-15q-88 -83 -164 -187.5t-139 -234t-99.5 -287t-36.5 -323.5q0 -165 36.5 -322.5t99.5 -286.5t139 -233.5t164 -187.5v-14z" />
    <glyph glyph-name="parenright" unicode=")" horiz-adv-x="655" 
d="M70 -438h-168v14q88 83 164 187.5t139 233.5t99 286.5t36 322.5q0 166 -36 323.5t-99 287t-139 234t-164 187.5v15h170q34 -28 79.5 -81.5t106.5 -152.5t110.5 -213t84 -274t34.5 -326q0 -164 -35 -323t-84.5 -273t-110.5 -213t-107 -153t-80 -82z" />
    <glyph glyph-name="asterisk" unicode="*" horiz-adv-x="825" 
d="M324 829l-68 -94l-111 82l68 96l109 125l-164 39l-111 37l41 131l113 -35l153 -63l-12 166v117h139v-117l-14 -168l156 65l110 37l43 -131l-110 -39l-164 -37l110 -129l70 -94l-113 -80l-71 94l-86 142z" />
    <glyph glyph-name="plus" unicode="+" horiz-adv-x="1081" 
d="M612 219h-145v406h-406v141h406v408h145v-408h406v-141h-406v-406z" />
    <glyph glyph-name="comma" unicode="," horiz-adv-x="493" 
d="M395 61q0 -124 -79.5 -219.5t-178.5 -130.5l-51 84q70 30 111 73.5t41 94.5q0 48 -28 80t-89 63v15q0 53 35 88t90 35q65 0 107 -48.5t42 -134.5z" />
    <glyph glyph-name="hyphen" unicode="-" horiz-adv-x="694" 
d="M643 539h-592v143h592v-143z" />
    <glyph glyph-name="period" unicode="." horiz-adv-x="456" 
d="M354 123q0 -51 -37 -87t-92 -36q-51 0 -87 36t-36 87q0 55 36 92t87 37q55 0 92 -37t37 -92z" />
    <glyph glyph-name="slash" unicode="/" horiz-adv-x="696" 
d="M141 -276h-143l555 1771h145z" />
    <glyph glyph-name="zero" unicode="0" horiz-adv-x="1173" 
d="M1051 713q0 -370 -116.5 -551.5t-354.5 -181.5t-347.5 174t-109.5 542q0 371 116.5 553.5t354.5 182.5t347.5 -175t109.5 -544zM289 713q0 -297 71 -441.5t232 -144.5q160 0 226.5 136t66.5 433q0 298 -71 443t-232 145t-227 -136.5t-66 -434.5z" />
    <glyph glyph-name="one" unicode="1" horiz-adv-x="880" 
d="M616 0h-159v852q4 258 8 383h-8l-150 -105l-178 -124l-94 133l409 272h172v-1411z" />
    <glyph glyph-name="two" unicode="2" horiz-adv-x="1021" 
d="M911 0h-817l-24 145q322 353 497 560q79 92 113.5 172t34.5 174q0 105 -63 166t-167 61q-99 0 -154.5 -57.5t-70.5 -145.5l-164 39q28 132 132.5 220.5t267.5 88.5q178 0 282.5 -99t104.5 -261q0 -226 -201 -459q-35 -40 -103.5 -117t-101.5 -114q-71 -75 -213 -221v-9
q72 2 236 2h411v-145z" />
    <glyph glyph-name="three" unicode="3" horiz-adv-x="1044" 
d="M915 401q0 -201 -116.5 -309t-331.5 -108q-142 0 -245.5 61t-153.5 152l141 88q93 -158 276 -158q145 0 210 67.5t65 198.5q0 133 -78.5 188.5t-243.5 55.5h-90v139h90q145 0 211 67.5t66 203.5q0 105 -60 171t-176 66q-187 0 -231 -186l-158 30q26 130 131 214.5
t264 84.5q184 0 289 -95.5t105 -272.5q0 -139 -60 -225t-153 -109v-8q51 -7 93.5 -27t78.5 -56t56.5 -95.5t20.5 -137.5z" />
    <glyph glyph-name="four" unicode="4" horiz-adv-x="1079" 
d="M838 0h-158v340h-592l-39 141l580 930h209v-928h202v-143h-202v-340zM528 985l-309 -502h461v437q0 225 8 325h-8q-23 -53 -152 -260z" />
    <glyph glyph-name="five" unicode="5" horiz-adv-x="1085" 
d="M979 453q0 -218 -121.5 -343.5t-325.5 -125.5q-290 0 -413 239l157 78q38 -79 101 -126.5t170 -47.5q134 0 201 81t67 230q0 283 -266 283q-128 0 -199 -82l-174 59l62 713h675v-145h-534l-43 -478l10 -2q97 74 236 74q193 0 295 -102.5t102 -304.5z" />
    <glyph glyph-name="six" unicode="6" horiz-adv-x="1093" 
d="M993 467q0 -224 -121 -355.5t-319 -131.5q-424 0 -424 526q0 125 27.5 245t74.5 217.5t110 184t131.5 150t141.5 108.5h230v-18q-180 -105 -299.5 -232.5t-192.5 -304.5l6 -6q89 57 240 57q184 0 289.5 -112t105.5 -328zM289 508q0 -203 75 -295t201 -92
q129 0 196.5 80.5t67.5 240.5q0 322 -272 322q-146 0 -250 -70q-18 -69 -18 -186z" />
    <glyph glyph-name="seven" unicode="7" horiz-adv-x="927" 
d="M426 0h-160v68q0 160 34 327.5t80.5 294.5t108.5 251t104 191.5t81 122.5v9q-158 -7 -250 -7h-406v154h803l41 -160q-46 -61 -93.5 -133t-112.5 -195t-113 -248.5t-82.5 -288t-34.5 -318.5v-68z" />
    <glyph glyph-name="eight" unicode="8" horiz-adv-x="1165" 
d="M1038 389q0 -197 -121.5 -303t-336.5 -106q-218 0 -335.5 98t-117.5 297q0 141 70 226t178 118v8q-87 19 -146 100t-59 220q0 185 116.5 285t303.5 100t296 -95t109 -276q0 -137 -58.5 -216.5t-148.5 -111.5v-8q50 -10 92.5 -32.5t79 -61t57.5 -100.5t21 -142zM291 383
q0 -128 74.5 -197t218.5 -69q145 0 217.5 68t72.5 196q0 266 -299 266q-143 0 -213.5 -69t-70.5 -195zM326 1055q0 -129 67 -200t189 -71t190 68t68 199q0 112 -67 176.5t-189 64.5q-124 0 -191 -62t-67 -175z" />
    <glyph glyph-name="nine" unicode="9" horiz-adv-x="1077" 
d="M475 0h-231v18q184 110 305.5 243.5t183.5 309.5l-4 4q-89 -55 -242 -55q-179 0 -288 109.5t-109 320.5q0 221 123 351.5t319 130.5q217 0 319.5 -137.5t102.5 -385.5q0 -154 -42 -301t-112 -261.5t-153 -202t-172 -144.5zM254 977q0 -313 274 -313q133 0 250 71
q13 86 13 168q0 203 -72.5 294t-198.5 91q-129 0 -197.5 -78.5t-68.5 -232.5z" />
    <glyph glyph-name="colon" unicode=":" horiz-adv-x="456" 
d="M354 956q0 -53 -37 -89t-92 -36q-51 0 -87 36.5t-36 88.5q0 54 36 91.5t87 37.5q55 0 92 -37.5t37 -91.5zM354 137q0 -51 -37 -87t-92 -36q-51 0 -87 36t-36 87q0 55 36 92t87 37q55 0 92 -37t37 -92z" />
    <glyph glyph-name="semicolon" unicode=";" horiz-adv-x="493" 
d="M391 61q0 -124 -79.5 -220.5t-176.5 -129.5l-49 78q73 31 113.5 76.5t40.5 97.5q0 50 -31.5 81.5t-91.5 61.5v15q0 53 35.5 88t89.5 35q65 0 107 -48.5t42 -134.5zM375 956q0 -51 -37 -86.5t-92 -35.5q-51 0 -88 35.5t-37 86.5q0 55 36.5 92t88.5 37q56 0 92.5 -36.5
t36.5 -92.5z" />
    <glyph glyph-name="less" unicode="&#x3c;" horiz-adv-x="1081" 
d="M1018 362v-165l-957 438v147l957 439v-166l-494 -221l-295 -121v-8l295 -121z" />
    <glyph glyph-name="equal" unicode="=" horiz-adv-x="1081" 
d="M1018 854h-957v141h957v-141zM1018 395h-957v142h957v-142z" />
    <glyph glyph-name="greater" unicode="&#x3e;" horiz-adv-x="1081" 
d="M1018 635l-957 -438v165l494 220l295 120v9l-295 123l-494 221v166l957 -437v-149z" />
    <glyph glyph-name="question" unicode="?" horiz-adv-x="823" 
d="M520 741l-241 -221q-74 25 -74 94q0 42 37.5 87.5t91.5 89.5t108 92t91.5 111.5t37.5 131.5q0 94 -55.5 146.5t-155.5 52.5q-64 0 -116 -17.5t-78 -36.5t-55 -48l-107 127q129 120 363 120q172 0 271 -83.5t99 -237.5q0 -69 -15.5 -126t-48.5 -107.5t-66 -87t-87 -87.5z
M471 121q0 -51 -35.5 -86t-89.5 -35q-52 0 -87.5 35t-35.5 86q0 54 36 90.5t87 36.5q54 0 89.5 -36t35.5 -91z" />
    <glyph glyph-name="at" unicode="@" horiz-adv-x="1875" 
d="M1286 -156q-81 -53 -200 -83.5t-242 -30.5q-341 0 -528 186.5t-187 509.5q0 248 119 458.5t327.5 334.5t458.5 124q212 0 374 -78.5t250.5 -223.5t88.5 -336q0 -163 -54.5 -296t-157.5 -211.5t-235 -78.5q-75 0 -123.5 29t-66.5 77h-8q-90 -110 -244 -110
q-146 0 -218.5 87.5t-72.5 227.5q0 122 39.5 223t106.5 165.5t153 100t181 35.5q159 0 253 -59l-59 -387q-16 -114 -16 -162q0 -96 94 -96q84 0 148.5 60t97 159t32.5 219q0 250 -155.5 385t-429.5 135q-119 0 -231.5 -40t-202.5 -112.5t-157.5 -167.5t-104.5 -211t-37 -237
q0 -281 150 -428t439 -147q97 0 195 27.5t162 70.5zM715 459q0 -108 41.5 -161.5t128.5 -53.5q68 0 123.5 36t78.5 89q6 74 11 106l47 332q-43 16 -111 16q-139 0 -229 -103.5t-90 -260.5z" />
    <glyph glyph-name="A" unicode="A" horiz-adv-x="1216" 
d="M520 1051l-155 -488h483l-154 484q-19 61 -48 157.5t-36 118.5h-8q-35 -120 -82 -272zM184 0h-168l465 1436h254l465 -1436h-172l-133 418h-578z" />
    <glyph glyph-name="B" unicode="B" horiz-adv-x="1236" 
d="M629 0h-436v1436h438q86 0 157.5 -20t128.5 -62t89 -114.5t32 -170.5q0 -129 -53 -215.5t-141 -108.5v-8q119 -14 192.5 -98t73.5 -233q0 -90 -27.5 -162.5t-84 -127.5t-150.5 -85.5t-219 -30.5zM352 651v-508h289q157 0 230 60t73 192q0 256 -311 256h-281zM352 1292
v-497h256q138 0 203.5 62t65.5 196q0 239 -277 239h-248z" />
    <glyph glyph-name="C" unicode="C" horiz-adv-x="1165" 
d="M1083 100q-54 -52 -152.5 -86t-240.5 -34q-146 0 -254.5 51t-176.5 147t-101 228.5t-33 300.5q0 356 151.5 552.5t436.5 196.5q245 0 381 -119l-103 -125q-116 97 -295 97q-193 0 -298 -145.5t-105 -442.5q0 -291 107 -441.5t313 -150.5q188 0 280 88z" />
    <glyph glyph-name="D" unicode="D" horiz-adv-x="1320" 
d="M567 0h-374v1436h376q323 0 475 -171.5t152 -533.5q0 -359 -153 -545t-476 -186zM356 1290v-1145h209q240 0 351.5 132t111.5 436q0 159 -30.5 270.5t-92 178.5t-147 97.5t-203.5 30.5h-199z" />
    <glyph glyph-name="E" unicode="E" horiz-adv-x="1079" 
d="M983 0h-790v1436h761v-146h-598v-489h527v-146h-527v-510h627v-145z" />
    <glyph glyph-name="F" unicode="F" horiz-adv-x="1009" 
d="M358 0h-165v1436h757v-146h-592v-528h521v-146h-521v-616z" />
    <glyph glyph-name="G" unicode="G" horiz-adv-x="1302" 
d="M1143 109q-156 -129 -451 -129q-280 0 -423.5 184t-143.5 549q0 152 31.5 276t87 210t133 144.5t169 85.5t195.5 27q268 0 396 -123l-107 -125q-102 99 -299 99q-56 0 -105.5 -10.5t-100.5 -35t-91.5 -69t-73 -106.5t-50 -153.5t-17.5 -205.5q0 -316 109 -460t325 -144
q169 0 252 57v549h164v-620z" />
    <glyph glyph-name="H" unicode="H" horiz-adv-x="1406" 
d="M356 0h-163v1436h163v-637h695v637h163v-1436h-163v653h-695v-653z" />
    <glyph glyph-name="I" unicode="I" horiz-adv-x="589" 
d="M377 0h-164v1436h164v-1436z" />
    <glyph glyph-name="J" unicode="J" horiz-adv-x="794" 
d="M600 297q0 -146 -84.5 -235t-259.5 -89q-141 0 -238 45l54 150q78 -47 194 -47q92 0 132 43t40 137v1135h162v-1139z" />
    <glyph glyph-name="K" unicode="K" horiz-adv-x="1183" 
d="M1153 0h-209l-534 711v8l505 717h191l-510 -717zM356 0h-163v1436h163v-1436z" />
    <glyph glyph-name="L" unicode="L" horiz-adv-x="1005" 
d="M973 0h-780v1436h163v-1291h617v-145z" />
    <glyph glyph-name="M" unicode="M" horiz-adv-x="1746" 
d="M350 0h-155v1436h262l411 -1024h13l411 1024h260v-1436h-157v1243h-13l-424 -1036h-174l-422 1036h-12v-1243z" />
    <glyph glyph-name="N" unicode="N" horiz-adv-x="1431" 
d="M350 0h-155v1436h229l483 -910q117 -222 166 -323h14q-4 131 -4 385v848h154v-1436h-225l-488 915q-74 138 -164 326h-16q6 -184 6 -381v-860z" />
    <glyph glyph-name="O" unicode="O" horiz-adv-x="1363" 
d="M1239 725q0 -384 -148 -564.5t-417 -180.5q-131 0 -230.5 40.5t-172 126.5t-109.5 227.5t-37 336.5t39 339.5t114 232.5t177.5 130.5t234.5 42.5q130 0 229.5 -40.5t172 -126.5t110 -227.5t37.5 -336.5zM293 725q0 -165 27 -282.5t79.5 -185.5t122.5 -99t162 -31
q74 0 132 18t106.5 60t81 108.5t50 166.5t17.5 231q0 165 -27 282.5t-80 185.5t-123 99t-163 31q-91 0 -159 -29t-120 -95t-79 -181t-27 -279z" />
    <glyph glyph-name="P" unicode="P" horiz-adv-x="1146" 
d="M356 0h-163v1436h413q222 0 343.5 -101t121.5 -311q0 -218 -126 -337.5t-370 -119.5h-219v-567zM356 1290v-579h219q173 0 249.5 74t76.5 221q0 150 -82.5 217t-249.5 67h-213z" />
    <glyph glyph-name="Q" unicode="Q" horiz-adv-x="1376" 
d="M1325 -217l-170 -94l-422 295q-134 -9 -238 22.5t-172 94t-111.5 157.5t-62 206t-18.5 247q0 384 148 564.5t417 180.5q131 0 231 -40.5t172.5 -126.5t110 -227.5t37.5 -336.5q0 -289 -83 -461.5t-236 -232.5v-8zM299 725q0 -165 27.5 -282.5t80.5 -185.5t122.5 -99
t162.5 -31q74 0 132 18t106.5 60t81 108.5t50 166.5t17.5 231q0 166 -27 283t-79.5 185.5t-122.5 99t-164 30.5q-92 0 -160.5 -29t-121 -95t-79 -181t-26.5 -279z" />
    <glyph glyph-name="R" unicode="R" horiz-adv-x="1218" 
d="M356 0h-163v1436h360q479 0 479 -404q0 -169 -93 -273t-230 -118v-8q46 -22 86.5 -63.5t87.5 -120.5l264 -449h-195l-260 459q-42 72 -94 104.5t-129 32.5h-113v-596zM356 1290v-553h185q323 0 323 277q0 147 -83 211.5t-251 64.5h-174z" />
    <glyph glyph-name="S" unicode="S" horiz-adv-x="1091" 
d="M991 377q0 -170 -128.5 -283.5t-350.5 -113.5q-150 0 -264 43.5t-185 107.5l97 131q164 -135 366 -135q141 0 220 68t79 172q0 52 -23.5 95t-63 73.5t-91 58t-108 52.5t-113 52t-108 62t-91 77t-63 102t-23.5 132q0 164 126.5 274.5t318.5 110.5q224 0 370 -121
l-100 -127q-125 99 -281 99q-124 0 -196 -63t-72 -163q0 -59 29.5 -107.5t77.5 -80.5t109.5 -64t125.5 -58.5t125.5 -64t109.5 -79.5t77.5 -106.5t29.5 -143.5z" />
    <glyph glyph-name="T" unicode="T" horiz-adv-x="976" 
d="M571 0h-163v1290h-383v146h927v-146h-381v-1290z" />
    <glyph glyph-name="U" unicode="U" horiz-adv-x="1392" 
d="M1206 500q0 -255 -138 -387.5t-384 -132.5q-241 0 -369.5 130.5t-128.5 364.5v961h164v-936q0 -188 92.5 -280.5t259.5 -92.5q164 0 252 83.5t88 268.5v957h164v-936z" />
    <glyph glyph-name="V" unicode="V" horiz-adv-x="1228" 
d="M739 0h-250l-469 1436h179l329 -1033q64 -203 86 -278h9q16 55 49 160t37 118l331 1033h168z" />
    <glyph glyph-name="W" unicode="W" horiz-adv-x="1896" 
d="M625 0h-236l-371 1436h170l230 -889q56 -218 92 -391h8q23 104 88 366l225 914h236l233 -924q40 -153 86 -354h9q61 266 88 370l231 908h162l-369 -1436h-237l-230 918q-27 101 -90 370h-8q-45 -208 -84 -358z" />
    <glyph glyph-name="X" unicode="X" horiz-adv-x="1204" 
d="M221 0h-186l469 737l-443 699h195l344 -564h10l340 564h185l-439 -695l473 -741h-194l-375 606h-10z" />
    <glyph glyph-name="Y" unicode="Y" horiz-adv-x="1107" 
d="M635 0h-162v518l-475 918h186l371 -750h8l371 750h176l-475 -918v-518z" />
    <glyph glyph-name="Z" unicode="Z" horiz-adv-x="1056" 
d="M981 0h-897l-27 147l725 1133v8h-659v148h825l27 -148l-721 -1132v-9h727v-147z" />
    <glyph glyph-name="bracketleft" unicode="[" horiz-adv-x="634" 
d="M592 -440h-393v2091h393v-121h-244v-1847h244v-123z" />
    <glyph glyph-name="backslash" unicode="\" horiz-adv-x="696" 
d="M698 -276h-143l-557 1771h145z" />
    <glyph glyph-name="bracketright" unicode="]" horiz-adv-x="634" 
d="M434 -440h-391v123h244v1847h-244v121h391v-2091z" />
    <glyph glyph-name="asciicircum" unicode="^" horiz-adv-x="1087" 
d="M248 637h-160l358 799h195l358 -797h-161l-170 393l-121 293h-8l-121 -295z" />
    <glyph glyph-name="underscore" unicode="_" horiz-adv-x="997" 
d="M997 -242h-995v138h995v-138z" />
    <glyph glyph-name="grave" unicode="`" horiz-adv-x="1028" 
d="M766 1352l-98 -74l-406 250l154 86z" />
    <glyph glyph-name="a" unicode="a" horiz-adv-x="1116" 
d="M762 127q-25 -29 -49.5 -50.5t-64.5 -46.5t-95.5 -39t-122.5 -14q-148 0 -234.5 88t-86.5 209q0 182 167.5 274t468.5 87v121q0 130 -59 182.5t-176 52.5q-170 0 -254 -135l-117 92q134 182 375 182q183 0 281 -83t98 -254v-504q0 -168 108 -168h29v-117q-21 -12 -57 -12
q-79 0 -130 37t-73 98h-8zM266 287q0 -76 53.5 -127t147.5 -51q89 0 162 44t116 107v250q-139 5 -244 -15.5t-170 -73.5t-65 -134z" />
    <glyph glyph-name="b" unicode="b" horiz-adv-x="1140" 
d="M1030 592q0 -137 -34 -248.5t-100.5 -193t-171.5 -126t-241 -44.5q-198 0 -313 59v1515h158v-516h8q37 31 107.5 58.5t162.5 27.5q90 0 165 -30.5t134 -92t92 -166t33 -243.5zM330 150q74 -31 178 -31q167 0 264.5 115t97.5 335q0 117 -25.5 201t-70.5 129.5t-96.5 65.5
t-114.5 20q-67 0 -131 -30t-102 -81v-724z" />
    <glyph glyph-name="c" unicode="c" horiz-adv-x="966" 
d="M891 100q-104 -118 -330 -118q-214 0 -332 135t-118 424q0 150 35.5 265t99.5 185.5t149 106t189 35.5q119 0 198 -35.5t119 -81.5l-106 -117q-88 92 -220 92q-301 0 -301 -430q0 -438 301 -438q140 0 218 88z" />
    <glyph glyph-name="d" unicode="d" horiz-adv-x="1144" 
d="M813 113q-36 -56 -113 -96t-178 -40q-195 0 -303 132t-108 399q0 294 143 450t385 156q86 0 178 -18v458h158v-1554h-119l-35 113h-8zM272 526q0 -112 23.5 -194.5t64.5 -128.5t90 -67t107 -21q95 0 160.5 48.5t99.5 131.5v653q-83 27 -170 27q-375 0 -375 -449z" />
    <glyph glyph-name="e" unicode="e" horiz-adv-x="1112" 
d="M950 86q-135 -100 -350 -100q-245 0 -367 136.5t-122 440.5q0 146 38.5 258t105.5 179t150 100t179 33q195 0 300 -117.5t105 -319.5q0 -84 -12 -192h-709q10 -202 96 -290.5t257 -88.5q78 0 148.5 25t109.5 59zM569 995q-121 0 -205 -86.5t-94 -273.5h559q2 25 2 63
q0 297 -262 297z" />
    <glyph glyph-name="f" unicode="f" horiz-adv-x="735" 
d="M401 0h-159v989h-185v125h187v168q0 134 80 212.5t237 78.5q95 0 172 -25l-33 -135q-62 21 -149 21q-78 0 -113 -37t-35 -113v-170h289v-125h-291v-989z" />
    <glyph glyph-name="g" unicode="g" horiz-adv-x="1140" 
d="M971 -8q0 -215 -122 -326.5t-337 -111.5q-140 0 -230.5 36t-136.5 82l93 127q104 -104 292 -104q150 0 217.5 72.5t67.5 224.5v102h-8q-36 -32 -106.5 -60t-165.5 -28q-89 0 -163.5 29t-134 89t-93 163t-33.5 241q0 276 136.5 436t405.5 160q201 0 318 -57v-1075z
M272 549q0 -115 25 -197t69.5 -125.5t96 -62.5t115.5 -19q68 0 132 29t103 80v700q-81 31 -182 31q-167 0 -263 -110.5t-96 -325.5z" />
    <glyph glyph-name="h" unicode="h" horiz-adv-x="1175" 
d="M330 0h-160v1554h160v-563h8q17 21 39 40t61.5 45t97 41.5t123.5 15.5q162 0 257.5 -97t95.5 -266v-770h-160v745q0 109 -57.5 177.5t-167.5 68.5q-108 0 -186 -58t-111 -138v-795z" />
    <glyph glyph-name="i" unicode="i" horiz-adv-x="591" 
d="M383 0h-160v1114h160v-1114zM412 1440q0 -49 -34 -82t-85 -33q-48 0 -81.5 33t-33.5 82q0 50 33.5 83t81.5 33q51 0 85 -32.5t34 -83.5z" />
    <glyph glyph-name="j" unicode="j" horiz-adv-x="518" 
d="M340 70q0 -419 -338 -523l-55 134q42 14 73 30.5t62.5 47t52 70.5t33 102.5t12.5 142.5v1040h160v-1044zM369 1440q0 -50 -33 -82.5t-84 -32.5q-50 0 -82.5 32.5t-32.5 82.5q0 51 32.5 83.5t82.5 32.5q51 0 84 -32.5t33 -83.5z" />
    <glyph glyph-name="k" unicode="k" horiz-adv-x="1026" 
d="M983 0h-203l-420 571v9l400 534h198l-411 -530v-9zM330 0h-160v1554h160v-1554z" />
    <glyph glyph-name="l" unicode="l" horiz-adv-x="589" 
d="M549 10q-55 -24 -139 -24q-113 0 -170.5 62t-57.5 173v1333h158v-1290q0 -74 27.5 -107.5t89.5 -33.5q48 0 92 22v-135z" />
    <glyph glyph-name="m" unicode="m" horiz-adv-x="1759" 
d="M330 0h-160v1114h123l33 -119h8q15 22 35 42.5t54.5 45t86.5 39.5t113 15q223 0 295 -176h8q36 75 119.5 125.5t205.5 50.5q167 0 255.5 -93.5t88.5 -275.5v-768h-157v735q0 127 -57.5 193.5t-161.5 66.5q-97 0 -164.5 -55t-91.5 -131v-809h-160v723q0 132 -57 202
t-164 70q-98 0 -165.5 -59.5t-86.5 -138.5v-797z" />
    <glyph glyph-name="n" unicode="n" horiz-adv-x="1175" 
d="M330 0h-160v1114h121l33 -117h8q14 18 39 39t64.5 45t96 40t117.5 16q170 0 264.5 -93t98.5 -276v-768h-160v731q0 128 -61.5 196t-178.5 68q-99 0 -175 -56.5t-107 -141.5v-797z" />
    <glyph glyph-name="o" unicode="o" horiz-adv-x="1144" 
d="M1034 565q0 -132 -26 -236.5t-81 -183.5t-146.5 -121t-215.5 -42t-213 40.5t-141 118.5t-76 179.5t-24 234.5t26 236.5t80.5 182t145.5 120t215 41.5q125 0 214.5 -40.5t141.5 -118t76 -178.5t24 -233zM274 567q0 -227 73 -336.5t231 -109.5t225 104t67 328
q0 227 -73 335.5t-232 108.5q-155 0 -223 -104.5t-68 -325.5z" />
    <glyph glyph-name="p" unicode="p" horiz-adv-x="1144" 
d="M328 -397h-158v1511h119l35 -113h8q44 59 117 96.5t172 37.5q196 0 304.5 -134t108.5 -399q0 -287 -143.5 -445.5t-386.5 -158.5q-94 0 -176 18v-413zM328 164q73 -25 168 -25q376 0 376 445q0 113 -24 196t-65.5 128.5t-91 67t-107.5 21.5q-93 0 -157 -45t-99 -110v-678
z" />
    <glyph glyph-name="q" unicode="q" horiz-adv-x="1140" 
d="M971 -397h-156v463h-8q-37 -31 -109.5 -58.5t-165.5 -27.5q-89 0 -163 30.5t-133 92t-92 166.5t-33 243q0 137 33.5 248t99 193t169.5 126.5t240 44.5q200 0 318 -59v-1462zM272 532q0 -118 25.5 -202t70.5 -128.5t96.5 -63.5t113.5 -19q69 0 133 29t102 79v725
q-74 33 -184 33q-166 0 -261.5 -116.5t-95.5 -336.5z" />
    <glyph glyph-name="r" unicode="r" horiz-adv-x="739" 
d="M328 0h-158v1114h121l35 -123h8q38 63 112.5 102.5t167.5 39.5q67 0 113 -11v-166q-58 17 -125 17q-87 0 -161.5 -36.5t-112.5 -107.5v-829z" />
    <glyph glyph-name="s" unicode="s" horiz-adv-x="970" 
d="M852 299q0 -59 -25 -114.5t-72.5 -101.5t-125 -73.5t-174.5 -27.5q-129 0 -232.5 40.5t-161.5 100.5l99 119q54 -56 132.5 -89.5t170.5 -33.5q111 0 171 50.5t60 125.5q0 45 -24 79.5t-64 56t-90.5 43t-103 38.5t-103 44.5t-90.5 60t-64 86t-24 120.5q0 127 103 218.5
t278 91.5q99 0 187 -32.5t139 -86.5l-103 -111q-39 40 -101 65t-126 25q-108 0 -163.5 -47t-55.5 -119q0 -50 31 -87.5t80.5 -61t109.5 -44.5t120.5 -47.5t110 -60.5t80.5 -92t31 -135z" />
    <glyph glyph-name="t" unicode="t" horiz-adv-x="780" 
d="M739 41q-88 -51 -250 -51q-284 0 -284 307v688h-166v102l166 31l49 289h108v-293h308v-129h-308v-680q0 -176 162 -176q107 0 170 39z" />
    <glyph glyph-name="u" unicode="u" horiz-adv-x="1177" 
d="M844 117q-14 -20 -37.5 -40.5t-62 -45t-96 -39.5t-122.5 -15q-353 0 -362 375v762h160v-729q0 -137 59.5 -203.5t183.5 -66.5t201 70t80 198v731h160v-1114h-125l-31 117h-8z" />
    <glyph glyph-name="v" unicode="v" horiz-adv-x="989" 
d="M590 0h-184l-383 1114h174l217 -668q41 -123 82 -292h8q25 104 84 292l213 668h166z" />
    <glyph glyph-name="w" unicode="w" horiz-adv-x="1548" 
d="M537 0h-215l-295 1114h163l156 -614q50 -193 84 -359h8q46 217 72 316l168 657h205l164 -657q39 -161 71 -316h8q51 231 86 361l158 612h154l-299 -1114h-215l-228 950h-8z" />
    <glyph glyph-name="x" unicode="x" horiz-adv-x="983" 
d="M223 0h-186l360 580l-340 534h185l250 -414h8l237 414h187l-338 -539l358 -575h-184l-268 453h-9z" />
    <glyph glyph-name="y" unicode="y" horiz-adv-x="1019" 
d="M590 -78q-57 -170 -152 -260t-256 -90q-73 0 -127 20l25 142q55 -19 104 -19q104 0 166 58t99 188l-404 1153h172l180 -547q77 -235 125 -405h8q29 130 115 405l172 547h166z" />
    <glyph glyph-name="z" unicode="z" horiz-adv-x="919" 
d="M825 0h-727l-24 158l557 809v8h-514v139h659l33 -158l-559 -809v-8h575v-139z" />
    <glyph glyph-name="braceleft" unicode="{" horiz-adv-x="677" 
d="M672 -430q-58 -21 -113 -21q-287 0 -287 310q0 87 25 242.5t25 222.5q0 90 -44 139.5t-143 66.5v156q99 15 143 65t44 142q0 66 -25 218.5t-25 240.5q0 309 283 309q59 0 117 -21l-27 -116q-43 16 -86 16q-137 0 -137 -192q0 -74 23.5 -228.5t23.5 -220.5
q0 -108 -46 -183.5t-142 -103.5v-8q188 -58 188 -289q0 -65 -23.5 -221.5t-23.5 -230.5q0 -193 137 -193q40 0 86 17z" />
    <glyph glyph-name="bar" unicode="|" horiz-adv-x="559" 
d="M342 -508h-125v2224h125v-2224z" />
    <glyph glyph-name="braceright" unicode="}" horiz-adv-x="677" 
d="M406 -141q0 -310 -287 -310q-57 0 -111 21l25 117q46 -17 86 -17q137 0 137 193q0 74 -23.5 230.5t-23.5 221.5q0 230 190 289v8q-96 28 -143 103.5t-47 183.5q0 66 23.5 220.5t23.5 228.5q0 192 -137 192q-43 0 -86 -16l-25 116q54 21 115 21q146 0 214.5 -78t68.5 -231
q0 -88 -24 -240.5t-24 -218.5q0 -92 43.5 -142t141.5 -65v-156q-99 -17 -142 -66.5t-43 -139.5q0 -67 24 -222.5t24 -242.5z" />
    <glyph glyph-name="asciitilde" unicode="~" horiz-adv-x="1087" 
d="M184 565q0 -26 6 -53l-139 18q-4 28 -4 50q0 110 62.5 173.5t169.5 63.5q64 0 140.5 -24t135 -52.5t127.5 -52.5t119 -24q100 0 100 110q0 26 -6 53l139 -18q2 -18 2 -61q-3 -106 -63.5 -167t-163.5 -61q-65 0 -142.5 24.5t-136 53.5t-127 53.5t-118.5 24.5
q-101 0 -101 -111z" />
    <glyph glyph-name="exclamdown" unicode="&#xa1;" horiz-adv-x="579" 
d="M399 -315h-209l41 899h127zM414 1014q0 -53 -35.5 -89t-85.5 -36q-54 0 -90.5 35.5t-36.5 89.5q0 51 36.5 86t90.5 35q50 0 85.5 -35t35.5 -86z" />
    <glyph glyph-name="cent" unicode="&#xa2;" horiz-adv-x="968" 
d="M362 -262h-118l104 289q-235 110 -235 514q0 150 35.5 265t99.5 185.5t149 106t187 35.5q80 0 159 -21l91 248h118l-106 -295q29 -20 55 -51l-117 -115l-278 -770q30 -6 72 -6q137 0 217 90l96 -113q-102 -118 -330 -118q-49 0 -104 10zM272 561q0 -285 127 -385h4
l289 797q-44 20 -117 20q-142 0 -222.5 -104t-80.5 -328z" />
    <glyph glyph-name="sterling" unicode="&#xa3;" horiz-adv-x="1122" 
d="M1053 0h-906l-28 147q72 39 108 103t43 174l15 211h-156v135h166l20 256q13 194 127.5 296.5t292.5 102.5q213 0 324 -129l-109 -114q-85 102 -239 102q-213 0 -232 -252l-20 -262h438v-135h-448l-15 -207q-17 -207 -131 -278v-9h750v-141z" />
    <glyph glyph-name="currency" unicode="&#xa4;" horiz-adv-x="1081" 
d="M279 305l-121 -119l-103 101l119 119q-78 110 -78 258q0 146 82 262l-123 125l103 100l123 -125q117 84 266 84q142 0 258 -76l119 117l102 -100l-119 -119q78 -111 78 -256q0 -144 -86 -264l127 -125l-102 -101l-127 125q-116 -80 -262 -80t-256 74zM236 672
q0 -133 86 -220t219 -87t219 86.5t86 218.5q0 131 -86 219t-219 88t-219 -87t-86 -218z" />
    <glyph glyph-name="yen" unicode="&#xa5;" horiz-adv-x="1060" 
d="M612 0h-163v526h-404v140h326l-367 749h186l213 -457l127 -301h9l129 306l213 452h178l-371 -749h326v-140h-402v-526z" />
    <glyph glyph-name="brokenbar" unicode="&#xa6;" horiz-adv-x="559" 
d="M342 811h-125v700h125v-700zM342 -311h-125v700h125v-700z" />
    <glyph glyph-name="section" unicode="&#xa7;" horiz-adv-x="1173" 
d="M1051 260q0 -111 -44.5 -210t-124 -174t-200 -119t-264.5 -44q-97 0 -187 23l25 135q79 -29 170 -29q87 0 152.5 20.5t102 56.5t54 77.5t17.5 89.5q0 61 -34 117t-88 103t-119 95.5t-130.5 103.5t-119.5 116t-88 144.5t-34 178.5q0 111 42 213t117 180t188 125t247 47
q95 0 166 -18l-25 -131q-75 22 -145 22q-147 0 -227 -63.5t-80 -167.5q0 -64 34.5 -124t90 -111.5t122.5 -103.5t134.5 -110t123 -121t90 -146t34.5 -175zM864 119q3 -41 -14 -96h10q70 100 70 237q0 78 -33.5 148.5t-87 124.5t-118.5 105t-130.5 101.5t-120 103t-89 119.5
t-36.5 142q0 29 11 82h-9q-61 -92 -61 -234q0 -60 20.5 -114.5t55.5 -99t80 -86t95.5 -80t100.5 -77t95.5 -80t81 -85.5t57 -98t22.5 -113z" />
    <glyph glyph-name="dieresis" unicode="&#xa8;" horiz-adv-x="1028" 
d="M811 1454q0 -43 -28.5 -71.5t-71.5 -28.5t-73 29t-30 71t30 71t73 29t71.5 -28.5t28.5 -71.5zM418 1454q0 -43 -29 -71.5t-72 -28.5q-44 0 -72 28.5t-28 71.5t28 71.5t72 28.5q43 0 72 -28.5t29 -71.5z" />
    <glyph glyph-name="copyright" unicode="&#xa9;" horiz-adv-x="1708" 
d="M1593 709q0 -209 -96 -377t-265.5 -262.5t-379.5 -94.5q-214 0 -382.5 93t-261.5 258.5t-93 375.5t96.5 378.5t266 263t378.5 94.5q161 0 298 -54.5t233.5 -150t151 -231t54.5 -293.5zM1104 379q-87 -82 -232 -82q-159 0 -248 101.5t-89 301.5q0 201 95.5 312.5
t252.5 111.5q88 0 143.5 -25.5t81.5 -58.5l-74 -96q-59 66 -157 66q-95 0 -152 -74t-57 -225q0 -155 57.5 -227t157.5 -72q92 0 151 63zM252 709q0 -173 77.5 -311.5t215.5 -217t311 -78.5q261 0 430.5 169.5t169.5 430.5q0 264 -170 435.5t-434 171.5q-263 0 -431.5 -169
t-168.5 -431z" />
    <glyph glyph-name="guillemotleft" unicode="&#xab;" horiz-adv-x="1009" 
d="M918 203l-105 -80l-313 430l313 434l105 -82l-242 -352zM510 203l-104 -80l-314 430l314 434l104 -82l-242 -352z" />
    <glyph glyph-name="logicalnot" unicode="&#xac;" horiz-adv-x="1081" 
d="M1038 393h-141v383h-856v135h997v-518z" />
    <glyph glyph-name="registered" unicode="&#xae;" horiz-adv-x="1048" 
d="M954 1030q0 -190 -122 -310t-310 -120q-189 0 -309.5 117t-120.5 307q0 189 123 309.5t309 120.5q190 0 310 -116.5t120 -307.5zM186 1028q0 -150 95.5 -247t238.5 -97q150 0 246 96t96 246q0 151 -97 246.5t-243 95.5q-147 0 -241.5 -94.5t-94.5 -245.5zM475 815h-86
v447h141q72 0 113 -32.5t41 -99.5q0 -106 -82 -126l109 -189h-105l-86 166h-45v-166zM475 1188v-133h49q39 0 55.5 16t16.5 51q0 66 -64 66h-57z" />
    <glyph glyph-name="macron" unicode="&#xaf;" horiz-adv-x="1028" 
d="M825 1368h-624v127h624v-127z" />
    <glyph glyph-name="degree" unicode="&#xb0;" horiz-adv-x="716" 
d="M649 1155q0 -125 -84 -206t-211 -81t-206.5 77t-79.5 202q0 127 83.5 208t210.5 81t207 -77t80 -204zM182 1153q0 -77 52 -130.5t128 -53.5q77 0 125 52t48 130q0 77 -52 130.5t-129 53.5q-76 0 -124 -52t-48 -130z" />
    <glyph glyph-name="plusminus" unicode="&#xb1;" horiz-adv-x="1081" 
d="M1018 86h-957v141h406v398h-406v141h406v408h145v-408h406v-141h-406v-398h406v-141z" />
    <glyph glyph-name="twosuperior" unicode="&#xb2;" horiz-adv-x="716" 
d="M635 807h-565l-19 100q33 34 102.5 102.5t129 129t106.5 112.5q48 55 70 96.5t22 90.5q0 61 -34.5 95t-100.5 34q-59 0 -96 -35.5t-47 -87.5l-131 31q20 86 90 141t184 55q128 0 198 -60.5t70 -162.5q0 -130 -129 -268q-82 -89 -143 -150l-127 -117l164 2h256v-108z" />
    <glyph glyph-name="threesuperior" unicode="&#xb3;" horiz-adv-x="722" 
d="M643 1047q0 -125 -80 -192t-229 -67q-97 0 -166 39t-105 99l105 65q65 -98 180 -98q88 0 127 37.5t39 109.5q0 74 -49 108t-154 34h-67v96h69q174 0 174 156q0 58 -37 95.5t-108 37.5q-60 0 -96.5 -32t-48.5 -81l-123 25q15 84 88 138t184 54q126 0 199 -59t73 -166
q0 -153 -122 -207q67 -14 107 -62t40 -130z" />
    <glyph glyph-name="acute" unicode="&#xb4;" horiz-adv-x="1028" 
d="M766 1528l-406 -250l-98 74l348 262z" />
    <glyph glyph-name="uni00B5" unicode="&#xb5;" horiz-adv-x="1241" 
d="M328 -397h-158v1511h160v-708q0 -148 59 -216.5t184 -68.5q129 0 205 73.5t76 217.5v702h158v-784q0 -108 29 -153.5t94 -45.5q6 0 26 4v-129q-38 -10 -67 -10q-163 0 -205 156h-8q-16 -32 -40 -60t-61 -54t-92.5 -41t-122.5 -15q-147 0 -237 90v-469z" />
    <glyph glyph-name="paragraph" unicode="&#xb6;" horiz-adv-x="1159" 
d="M575 131q0 -312 -221 -483l-92 90q38 31 60.5 52.5t49.5 57.5t41.5 74t25 95.5t10.5 127.5v502q-7 0 -21 -1t-20 -1q-163 0 -257 95.5t-94 285.5q0 203 111 306.5t309 103.5h98v-1305zM907 0h-125v1436h125v-1436z" />
    <glyph glyph-name="periodcentered" unicode="&#xb7;" horiz-adv-x="473" 
d="M362 719q0 -51 -37 -87t-92 -36q-51 0 -86.5 36t-35.5 87q0 55 35.5 92t86.5 37q55 0 92 -37t37 -92z" />
    <glyph glyph-name="cedilla" unicode="&#xb8;" horiz-adv-x="1028" 
d="M641 -236q0 -76 -45.5 -143.5t-155.5 -105.5l-55 86q119 57 119 157q0 67 -47 129v9h147q37 -53 37 -132z" />
    <glyph glyph-name="onesuperior" unicode="&#xb9;" horiz-adv-x="595" 
d="M442 807h-131v514q0 51 1 99.5t2 77.5t1 32h-2l-92 -68l-127 -78l-67 105l280 164h135v-846z" />
    <glyph glyph-name="guillemotright" unicode="&#xbb;" horiz-adv-x="1009" 
d="M918 553l-314 -430l-104 80l241 350l-241 352l104 82zM510 553l-313 -430l-105 80l242 350l-242 352l105 82z" />
    <glyph glyph-name="questiondown" unicode="&#xbf;" horiz-adv-x="823" 
d="M309 393l242 221q74 -25 74 -94q0 -42 -38 -87.5t-92 -89.5t-107.5 -92t-91.5 -111.5t-38 -131.5q0 -94 55.5 -146t155.5 -52q64 0 116.5 17.5t78.5 36.5t55 48l106 -127q-130 -121 -362 -121q-172 0 -271.5 84t-99.5 238q0 69 15 126t48.5 107.5t66.5 86.5t87 87z
M358 1014q0 51 35.5 86t89.5 35q52 0 87.5 -35t35.5 -86q0 -54 -36 -90.5t-87 -36.5q-54 0 -89.5 36t-35.5 91z" />
    <glyph glyph-name="Agrave" unicode="&#xc0;" horiz-adv-x="1216" 
d="M520 1051l-155 -488h483l-154 484q-19 61 -48 157.5t-36 118.5h-8q-35 -120 -82 -272zM184 0h-168l465 1436h254l465 -1436h-172l-133 418h-578zM686 1653l-98 -74l-406 250l154 86z" />
    <glyph glyph-name="Aacute" unicode="&#xc1;" horiz-adv-x="1216" 
d="M520 1051l-155 -488h483l-154 484q-19 61 -48 157.5t-36 118.5h-8q-35 -120 -82 -272zM184 0h-168l465 1436h254l465 -1436h-172l-133 418h-578zM1008 1862l-406 -250l-98 74l348 262z" />
    <glyph glyph-name="Acircumflex" unicode="&#xc2;" horiz-adv-x="1216" 
d="M520 1051l-155 -488h483l-154 484q-19 61 -48 157.5t-36 118.5h-8q-35 -120 -82 -272zM184 0h-168l465 1436h254l465 -1436h-172l-133 418h-578zM606 1804l-334 -194l-59 94l393 256l395 -256l-59 -94z" />
    <glyph glyph-name="Atilde" unicode="&#xc3;" horiz-adv-x="1216" 
d="M520 1051l-155 -488h483l-154 484q-19 61 -48 157.5t-36 118.5h-8q-35 -120 -82 -272zM184 0h-168l465 1436h254l465 -1436h-172l-133 418h-578zM475 1735q-84 0 -141 -60l-64 103q84 84 197 84q58 0 151 -36t132 -36q86 0 131 61l63 -100q-13 -26 -62.5 -58t-123.5 -32
q-48 0 -144.5 37t-138.5 37z" />
    <glyph glyph-name="Adieresis" unicode="&#xc4;" horiz-adv-x="1216" 
d="M520 1051l-155 -488h483l-154 484q-19 61 -48 157.5t-36 118.5h-8q-35 -120 -82 -272zM184 0h-168l465 1436h254l465 -1436h-172l-133 418h-578zM512 1788q0 -43 -28.5 -71.5t-71.5 -28.5q-44 0 -72.5 28.5t-28.5 71.5t28.5 71.5t72.5 28.5q43 0 71.5 -28.5t28.5 -71.5z
M905 1788q0 -43 -28.5 -71.5t-71.5 -28.5t-73 29t-30 71t30 71t73 29t71.5 -28.5t28.5 -71.5z" />
    <glyph glyph-name="Aring" unicode="&#xc5;" horiz-adv-x="1216" 
d="M520 1051l-155 -488h483l-154 484q-19 61 -48 157.5t-36 118.5h-8q-35 -120 -82 -272zM184 0h-168l465 1436h254l465 -1436h-172l-133 418h-578zM485 1800q0 -56 34 -90.5t91 -34.5q56 0 86.5 32.5t30.5 88.5q0 58 -32.5 91.5t-90.5 33.5q-56 0 -87.5 -32.5t-31.5 -88.5z
M831 1804q0 -98 -63.5 -160.5t-163.5 -62.5t-159.5 57t-59.5 154q0 98 62.5 160.5t162.5 62.5t160.5 -57.5t60.5 -153.5z" />
    <glyph glyph-name="AE" unicode="&#xc6;" horiz-adv-x="1740" 
d="M164 0h-174l790 1436h834v-146h-572v-489h500v-146h-500v-510h603v-145h-756v442h-481zM881 1313l-398 -727h406v727h-8z" />
    <glyph glyph-name="Ccedilla" unicode="&#xc7;" horiz-adv-x="1165" 
d="M1083 100q-54 -52 -152.5 -86t-240.5 -34q-146 0 -254.5 51t-176.5 147t-101 228.5t-33 300.5q0 356 151.5 552.5t436.5 196.5q245 0 381 -119l-103 -125q-116 97 -295 97q-193 0 -298 -145.5t-105 -442.5q0 -291 107 -441.5t313 -150.5q188 0 280 88zM807 -236
q0 -76 -45.5 -143.5t-155.5 -105.5l-55 86q119 57 119 157q0 67 -47 129v9h147q37 -53 37 -132z" />
    <glyph glyph-name="Egrave" unicode="&#xc8;" horiz-adv-x="1079" 
d="M983 0h-790v1436h761v-146h-598v-489h527v-146h-527v-510h627v-145zM674 1686l-99 -74l-405 250l154 86z" />
    <glyph glyph-name="Eacute" unicode="&#xc9;" horiz-adv-x="1079" 
d="M983 0h-790v1436h761v-146h-598v-489h527v-146h-527v-510h627v-145zM987 1862l-405 -250l-99 74l348 262z" />
    <glyph glyph-name="Ecircumflex" unicode="&#xca;" horiz-adv-x="1079" 
d="M983 0h-790v1436h761v-146h-598v-489h527v-146h-527v-510h627v-145zM559 1804l-334 -194l-59 94l393 256l395 -256l-59 -94z" />
    <glyph glyph-name="Edieresis" unicode="&#xcb;" horiz-adv-x="1079" 
d="M983 0h-790v1436h761v-146h-598v-489h527v-146h-527v-510h627v-145zM868 1788q0 -43 -28.5 -71.5t-71.5 -28.5t-72.5 28.5t-29.5 71.5t29.5 71.5t72.5 28.5t71.5 -28.5t28.5 -71.5zM475 1788q0 -43 -28.5 -71.5t-71.5 -28.5q-44 0 -72.5 28.5t-28.5 71.5t28.5 71.5
t72.5 28.5q43 0 71.5 -28.5t28.5 -71.5z" />
    <glyph glyph-name="Igrave" unicode="&#xcc;" horiz-adv-x="589" 
d="M377 0h-164v1436h164v-1436zM397 1686l-98 -74l-405 250l153 86z" />
    <glyph glyph-name="Iacute" unicode="&#xcd;" horiz-adv-x="589" 
d="M377 0h-164v1436h164v-1436zM686 1862l-405 -250l-99 74l348 262z" />
    <glyph glyph-name="Icircumflex" unicode="&#xce;" horiz-adv-x="589" 
d="M377 0h-164v1436h164v-1436zM293 1804l-334 -194l-59 94l393 256l395 -256l-59 -94z" />
    <glyph glyph-name="Idieresis" unicode="&#xcf;" horiz-adv-x="589" 
d="M377 0h-164v1436h164v-1436zM592 1788q0 -43 -28.5 -71.5t-71.5 -28.5t-73 29t-30 71t30 71t73 29t71.5 -28.5t28.5 -71.5zM199 1788q0 -43 -29 -71.5t-72 -28.5q-44 0 -72 28.5t-28 71.5t28 71.5t72 28.5q43 0 72 -28.5t29 -71.5z" />
    <glyph glyph-name="Eth" unicode="&#xd0;" horiz-adv-x="1335" 
d="M580 0h-373v676h-154v121h154v639h377q323 0 474.5 -171.5t151.5 -533.5q0 -731 -630 -731zM369 1290v-493h329v-121h-329v-531h211q240 0 351 132t111 436q0 158 -31 270t-92.5 179t-147 97.5t-202.5 30.5h-200z" />
    <glyph glyph-name="Ntilde" unicode="&#xd1;" horiz-adv-x="1431" 
d="M350 0h-155v1436h229l483 -910q117 -222 166 -323h14q-4 131 -4 385v848h154v-1436h-225l-488 915q-74 138 -164 326h-16q6 -184 6 -381v-860zM584 1735q-85 0 -142 -60l-63 103q84 84 196 84q58 0 151 -36t132 -36q86 0 131 61l64 -100q-13 -26 -62.5 -58t-124.5 -32
q-48 0 -144 37t-138 37z" />
    <glyph glyph-name="Ograve" unicode="&#xd2;" horiz-adv-x="1374" 
d="M1245 725q0 -384 -148 -564.5t-417 -180.5q-131 0 -230.5 40.5t-172 126.5t-109.5 227.5t-37 336.5t39 339.5t114 232.5t177.5 130.5t234.5 42.5q130 0 229.5 -40.5t172 -126.5t110 -227.5t37.5 -336.5zM299 725q0 -165 27 -282.5t79.5 -185.5t122.5 -99t162 -31
q74 0 132 18t106.5 60t81 108.5t50 166.5t17.5 231q0 165 -27 282.5t-80 185.5t-123 99t-163 31q-91 0 -159 -29t-120 -95t-79 -181t-27 -279zM788 1686l-98 -74l-405 250l153 86z" />
    <glyph glyph-name="Oacute" unicode="&#xd3;" horiz-adv-x="1374" 
d="M1245 725q0 -384 -148 -564.5t-417 -180.5q-131 0 -230.5 40.5t-172 126.5t-109.5 227.5t-37 336.5t39 339.5t114 232.5t177.5 130.5t234.5 42.5q130 0 229.5 -40.5t172 -126.5t110 -227.5t37.5 -336.5zM299 725q0 -165 27 -282.5t79.5 -185.5t122.5 -99t162 -31
q74 0 132 18t106.5 60t81 108.5t50 166.5t17.5 231q0 165 -27 282.5t-80 185.5t-123 99t-163 31q-91 0 -159 -29t-120 -95t-79 -181t-27 -279zM1087 1862l-405 -250l-98 74l348 262z" />
    <glyph glyph-name="Ocircumflex" unicode="&#xd4;" horiz-adv-x="1374" 
d="M1245 725q0 -384 -148 -564.5t-417 -180.5q-131 0 -230.5 40.5t-172 126.5t-109.5 227.5t-37 336.5t39 339.5t114 232.5t177.5 130.5t234.5 42.5q130 0 229.5 -40.5t172 -126.5t110 -227.5t37.5 -336.5zM299 725q0 -165 27 -282.5t79.5 -185.5t122.5 -99t162 -31
q74 0 132 18t106.5 60t81 108.5t50 166.5t17.5 231q0 165 -27 282.5t-80 185.5t-123 99t-163 31q-91 0 -159 -29t-120 -95t-79 -181t-27 -279zM686 1804l-334 -194l-59 94l393 256l395 -256l-59 -94z" />
    <glyph glyph-name="Otilde" unicode="&#xd5;" horiz-adv-x="1374" 
d="M1245 725q0 -384 -148 -564.5t-417 -180.5q-131 0 -230.5 40.5t-172 126.5t-109.5 227.5t-37 336.5t39 339.5t114 232.5t177.5 130.5t234.5 42.5q130 0 229.5 -40.5t172 -126.5t110 -227.5t37.5 -336.5zM299 725q0 -165 27 -282.5t79.5 -185.5t122.5 -99t162 -31
q74 0 132 18t106.5 60t81 108.5t50 166.5t17.5 231q0 165 -27 282.5t-80 185.5t-123 99t-163 31q-91 0 -159 -29t-120 -95t-79 -181t-27 -279zM555 1735q-84 0 -141 -60l-64 103q84 84 197 84q58 0 150.5 -36t131.5 -36q87 0 132 61l63 -100q-13 -26 -62.5 -58t-123.5 -32
q-48 0 -144.5 37t-138.5 37z" />
    <glyph glyph-name="Odieresis" unicode="&#xd6;" horiz-adv-x="1374" 
d="M1245 725q0 -384 -148 -564.5t-417 -180.5q-131 0 -230.5 40.5t-172 126.5t-109.5 227.5t-37 336.5t39 339.5t114 232.5t177.5 130.5t234.5 42.5q130 0 229.5 -40.5t172 -126.5t110 -227.5t37.5 -336.5zM299 725q0 -165 27 -282.5t79.5 -185.5t122.5 -99t162 -31
q74 0 132 18t106.5 60t81 108.5t50 166.5t17.5 231q0 165 -27 282.5t-80 185.5t-123 99t-163 31q-91 0 -159 -29t-120 -95t-79 -181t-27 -279zM985 1788q0 -43 -28.5 -71.5t-71.5 -28.5t-73 29t-30 71t30 71t73 29t71.5 -28.5t28.5 -71.5zM592 1788q0 -43 -28.5 -71.5
t-71.5 -28.5q-44 0 -72.5 28.5t-28.5 71.5t28.5 71.5t72.5 28.5q43 0 71.5 -28.5t28.5 -71.5z" />
    <glyph glyph-name="multiply" unicode="&#xd7;" horiz-adv-x="1081" 
d="M541 600l-316 -317l-98 100l319 313l-319 316l98 96l314 -317l317 319l98 -100l-319 -314l319 -315l-98 -96z" />
    <glyph glyph-name="Oslash" unicode="&#xd8;" horiz-adv-x="1374" 
d="M1249 725q0 -384 -149.5 -564.5t-421.5 -180.5q-208 0 -334 100l-61 -98h-158v4l127 188q-127 177 -127 537q0 384 149.5 564.5t421.5 180.5q203 0 332 -100l68 100h153v-2l-127 -194q127 -184 127 -535zM438 219q92 -92 252 -92q74 0 133 18t108 60t81.5 108.5
t50.5 166.5t18 231q0 244 -65 387zM293 725q0 -251 65 -387l580 879q-92 92 -254 92q-92 0 -161 -29t-122 -95t-80.5 -181t-27.5 -279z" />
    <glyph glyph-name="Ugrave" unicode="&#xd9;" horiz-adv-x="1392" 
d="M1206 500q0 -255 -138 -387.5t-384 -132.5q-241 0 -369.5 130.5t-128.5 364.5v961h164v-936q0 -188 92.5 -280.5t259.5 -92.5q164 0 252 83.5t88 268.5v957h164v-936zM795 1686l-99 -74l-405 250l153 86z" />
    <glyph glyph-name="Uacute" unicode="&#xda;" horiz-adv-x="1392" 
d="M1206 500q0 -255 -138 -387.5t-384 -132.5q-241 0 -369.5 130.5t-128.5 364.5v961h164v-936q0 -188 92.5 -280.5t259.5 -92.5q164 0 252 83.5t88 268.5v957h164v-936zM1122 1862l-405 -250l-99 74l349 262z" />
    <glyph glyph-name="Ucircumflex" unicode="&#xdb;" horiz-adv-x="1392" 
d="M1206 500q0 -255 -138 -387.5t-384 -132.5q-241 0 -369.5 130.5t-128.5 364.5v961h164v-936q0 -188 92.5 -280.5t259.5 -92.5q164 0 252 83.5t88 268.5v957h164v-936zM694 1804l-334 -194l-59 94l393 256l396 -256l-60 -94z" />
    <glyph glyph-name="Udieresis" unicode="&#xdc;" horiz-adv-x="1392" 
d="M1206 500q0 -255 -138 -387.5t-384 -132.5q-241 0 -369.5 130.5t-128.5 364.5v961h164v-936q0 -188 92.5 -280.5t259.5 -92.5q164 0 252 83.5t88 268.5v957h164v-936zM993 1788q0 -43 -28.5 -71.5t-71.5 -28.5t-72.5 28.5t-29.5 71.5t29.5 71.5t72.5 28.5t71.5 -28.5
t28.5 -71.5zM600 1788q0 -43 -28.5 -71.5t-71.5 -28.5q-44 0 -72.5 28.5t-28.5 71.5t28.5 71.5t72.5 28.5q43 0 71.5 -28.5t28.5 -71.5z" />
    <glyph glyph-name="Yacute" unicode="&#xdd;" horiz-adv-x="1107" 
d="M635 0h-162v518l-475 918h186l371 -750h8l371 750h176l-475 -918v-518zM979 1862l-406 -250l-98 74l348 262z" />
    <glyph glyph-name="Thorn" unicode="&#xde;" horiz-adv-x="1042" 
d="M350 0h-157v1436h157v-291q81 24 191 24q188 0 300.5 -105t112.5 -319q0 -239 -117 -358t-329 -119q-89 0 -158 17v-285zM352 434q68 -18 142 -18q292 0 292 309q0 295 -286 295q-74 0 -148 -21v-565z" />
    <glyph glyph-name="germandbls" unicode="&#xdf;" horiz-adv-x="1202" 
d="M1122 305q0 -136 -99.5 -228.5t-285.5 -92.5q-88 0 -165 21t-126 56l68 127q105 -67 234 -67q101 0 160 47.5t59 126.5q0 54 -31 99t-77.5 74t-100.5 61.5t-100.5 62t-77.5 76.5t-31 104q0 46 25.5 89.5t62 80.5t73 75.5t62 90t25.5 109.5q0 94 -60.5 143t-161.5 49
q-116 0 -181.5 -72t-65.5 -217v-1120h-158v1118q0 213 115.5 321.5t300.5 108.5q169 0 267.5 -89t98.5 -234q0 -70 -24.5 -132t-59 -104.5t-69.5 -77.5t-59.5 -66.5t-24.5 -56.5q0 -29 22.5 -55t58.5 -49t79 -47.5t86.5 -56t79.5 -68.5t58.5 -90.5t22.5 -116.5z" />
    <glyph glyph-name="agrave" unicode="&#xe0;" horiz-adv-x="1120" 
d="M762 127q-25 -29 -49.5 -50.5t-64.5 -46.5t-95.5 -39t-122.5 -14q-148 0 -234.5 88t-86.5 209q0 182 167.5 274t468.5 87v121q0 130 -59 182.5t-176 52.5q-170 0 -254 -135l-117 92q134 182 375 182q183 0 281 -83t98 -254v-504q0 -168 108 -168h29v-117q-21 -12 -57 -12
q-79 0 -130 37t-73 98h-8zM266 287q0 -76 53.5 -127t147.5 -51q89 0 162 44t116 107v250q-139 5 -244 -15.5t-170 -73.5t-65 -134zM625 1352l-99 -74l-405 250l153 86z" />
    <glyph glyph-name="aacute" unicode="&#xe1;" horiz-adv-x="1120" 
d="M762 127q-25 -29 -49.5 -50.5t-64.5 -46.5t-95.5 -39t-122.5 -14q-148 0 -234.5 88t-86.5 209q0 182 167.5 274t468.5 87v121q0 130 -59 182.5t-176 52.5q-170 0 -254 -135l-117 92q134 182 375 182q183 0 281 -83t98 -254v-504q0 -168 108 -168h29v-117q-21 -12 -57 -12
q-79 0 -130 37t-73 98h-8zM266 287q0 -76 53.5 -127t147.5 -51q89 0 162 44t116 107v250q-139 5 -244 -15.5t-170 -73.5t-65 -134zM942 1528l-405 -250l-99 74l348 262z" />
    <glyph glyph-name="acircumflex" unicode="&#xe2;" horiz-adv-x="1120" 
d="M762 127q-25 -29 -49.5 -50.5t-64.5 -46.5t-95.5 -39t-122.5 -14q-148 0 -234.5 88t-86.5 209q0 182 167.5 274t468.5 87v121q0 130 -59 182.5t-176 52.5q-170 0 -254 -135l-117 92q134 182 375 182q183 0 281 -83t98 -254v-504q0 -168 108 -168h29v-117q-21 -12 -57 -12
q-79 0 -130 37t-73 98h-8zM266 287q0 -76 53.5 -127t147.5 -51q89 0 162 44t116 107v250q-139 5 -244 -15.5t-170 -73.5t-65 -134zM537 1470l-334 -194l-60 94l394 256l395 -256l-60 -94z" />
    <glyph glyph-name="atilde" unicode="&#xe3;" horiz-adv-x="1120" 
d="M762 127q-25 -29 -49.5 -50.5t-64.5 -46.5t-95.5 -39t-122.5 -14q-148 0 -234.5 88t-86.5 209q0 182 167.5 274t468.5 87v121q0 130 -59 182.5t-176 52.5q-170 0 -254 -135l-117 92q134 182 375 182q183 0 281 -83t98 -254v-504q0 -168 108 -168h29v-117q-21 -12 -57 -12
q-79 0 -130 37t-73 98h-8zM266 287q0 -76 53.5 -127t147.5 -51q89 0 162 44t116 107v250q-139 5 -244 -15.5t-170 -73.5t-65 -134zM426 1401q-84 0 -141 -60l-64 103q84 84 197 84q58 0 150.5 -36t131.5 -36q85 0 131 62l64 -101q-13 -26 -62.5 -58t-123.5 -32
q-48 0 -144.5 37t-138.5 37z" />
    <glyph glyph-name="adieresis" unicode="&#xe4;" horiz-adv-x="1120" 
d="M762 127q-25 -29 -49.5 -50.5t-64.5 -46.5t-95.5 -39t-122.5 -14q-148 0 -234.5 88t-86.5 209q0 182 167.5 274t468.5 87v121q0 130 -59 182.5t-176 52.5q-170 0 -254 -135l-117 92q134 182 375 182q183 0 281 -83t98 -254v-504q0 -168 108 -168h29v-117q-21 -12 -57 -12
q-79 0 -130 37t-73 98h-8zM266 287q0 -76 53.5 -127t147.5 -51q89 0 162 44t116 107v250q-139 5 -244 -15.5t-170 -73.5t-65 -134zM852 1454q0 -43 -28.5 -71.5t-71.5 -28.5t-73 29t-30 71t30 71t73 29t71.5 -28.5t28.5 -71.5zM459 1454q0 -43 -29 -71.5t-72 -28.5
q-44 0 -72 28.5t-28 71.5t28 71.5t72 28.5q43 0 72 -28.5t29 -71.5z" />
    <glyph glyph-name="aring" unicode="&#xe5;" horiz-adv-x="1120" 
d="M762 127q-25 -29 -49.5 -50.5t-64.5 -46.5t-95.5 -39t-122.5 -14q-148 0 -234.5 88t-86.5 209q0 182 167.5 274t468.5 87v121q0 130 -59 182.5t-176 52.5q-170 0 -254 -135l-117 92q134 182 375 182q183 0 281 -83t98 -254v-504q0 -168 108 -168h29v-117q-21 -12 -57 -12
q-79 0 -130 37t-73 98h-8zM266 287q0 -76 53.5 -127t147.5 -51q89 0 162 44t116 107v250q-139 5 -244 -15.5t-170 -73.5t-65 -134zM782 1470q0 -98 -63.5 -160.5t-163.5 -62.5t-159.5 57t-59.5 154q0 98 62.5 160.5t162.5 62.5t160.5 -57.5t60.5 -153.5zM436 1466
q0 -56 34 -90.5t91 -34.5q56 0 86.5 32.5t30.5 88.5q0 58 -32.5 91.5t-90.5 33.5q-56 0 -87.5 -32.5t-31.5 -88.5z" />
    <glyph glyph-name="ae" unicode="&#xe6;" horiz-adv-x="1738" 
d="M829 180q-86 -205 -383 -205q-94 0 -165 26t-111.5 70.5t-60 97t-19.5 112.5q0 63 16 114t60 99.5t116 81t189.5 52t273.5 19.5v113q0 231 -241 231q-167 0 -254 -129l-115 105q132 163 377 163q270 0 346 -169h8q121 172 340 172q196 0 304 -118.5t108 -322.5
q0 -76 -12 -190h-709q12 -202 98.5 -289.5t255.5 -87.5q170 0 277 100l78 -125q-127 -114 -375 -114q-153 0 -246.5 48.5t-146.5 145.5h-9zM250 299q0 -85 60 -141t155 -56q280 0 280 283v139q-261 0 -378 -51t-117 -174zM1188 995q-54 0 -100.5 -17.5t-89 -56.5t-69 -112.5
t-32.5 -175.5h559q2 27 2 63q0 146 -69 222.5t-201 76.5z" />
    <glyph glyph-name="ccedilla" unicode="&#xe7;" horiz-adv-x="966" 
d="M891 100q-104 -118 -330 -118q-214 0 -332 135t-118 424q0 150 35.5 265t99.5 185.5t149 106t189 35.5q119 0 198 -35.5t119 -81.5l-106 -117q-88 92 -220 92q-301 0 -301 -430q0 -438 301 -438q140 0 218 88zM672 -236q0 -76 -45.5 -143.5t-155.5 -105.5l-55 86
q119 57 119 157q0 66 -48 129v9h148q37 -53 37 -132z" />
    <glyph glyph-name="egrave" unicode="&#xe8;" horiz-adv-x="1112" 
d="M950 86q-135 -100 -350 -100q-245 0 -367 136.5t-122 440.5q0 146 38.5 258t105.5 179t150 100t179 33q195 0 300 -117.5t105 -319.5q0 -84 -12 -192h-709q10 -202 96 -290.5t257 -88.5q78 0 148.5 25t109.5 59zM569 995q-121 0 -205 -86.5t-94 -273.5h559q2 25 2 63
q0 297 -262 297zM674 1352l-99 -74l-405 250l154 86z" />
    <glyph glyph-name="eacute" unicode="&#xe9;" horiz-adv-x="1112" 
d="M950 86q-135 -100 -350 -100q-245 0 -367 136.5t-122 440.5q0 146 38.5 258t105.5 179t150 100t179 33q195 0 300 -117.5t105 -319.5q0 -84 -12 -192h-709q10 -202 96 -290.5t257 -88.5q78 0 148.5 25t109.5 59zM569 995q-121 0 -205 -86.5t-94 -273.5h559q2 25 2 63
q0 297 -262 297zM993 1528l-405 -250l-99 74l349 262z" />
    <glyph glyph-name="ecircumflex" unicode="&#xea;" horiz-adv-x="1112" 
d="M950 86q-135 -100 -350 -100q-245 0 -367 136.5t-122 440.5q0 146 38.5 258t105.5 179t150 100t179 33q195 0 300 -117.5t105 -319.5q0 -84 -12 -192h-709q10 -202 96 -290.5t257 -88.5q78 0 148.5 25t109.5 59zM569 995q-121 0 -205 -86.5t-94 -273.5h559q2 25 2 63
q0 297 -262 297zM553 1470l-334 -194l-59 94l393 256l395 -256l-59 -94z" />
    <glyph glyph-name="edieresis" unicode="&#xeb;" horiz-adv-x="1112" 
d="M950 86q-135 -100 -350 -100q-245 0 -367 136.5t-122 440.5q0 146 38.5 258t105.5 179t150 100t179 33q195 0 300 -117.5t105 -319.5q0 -84 -12 -192h-709q10 -202 96 -290.5t257 -88.5q78 0 148.5 25t109.5 59zM569 995q-121 0 -205 -86.5t-94 -273.5h559q2 25 2 63
q0 297 -262 297zM852 1454q0 -43 -28.5 -71.5t-71.5 -28.5t-73 29t-30 71t30 71t73 29t71.5 -28.5t28.5 -71.5zM459 1454q0 -43 -29 -71.5t-72 -28.5q-44 0 -72 28.5t-28 71.5t28 71.5t72 28.5q43 0 72 -28.5t29 -71.5z" />
    <glyph glyph-name="igrave" unicode="&#xec;" horiz-adv-x="591" 
d="M383 0h-160v1114h160v-1114zM406 1352l-99 -74l-405 250l153 86z" />
    <glyph glyph-name="iacute" unicode="&#xed;" horiz-adv-x="591" 
d="M383 0h-160v1114h160v-1114zM692 1528l-405 -250l-99 74l349 262z" />
    <glyph glyph-name="icircumflex" unicode="&#xee;" horiz-adv-x="591" 
d="M383 0h-160v1114h160v-1114zM295 1470l-334 -194l-59 94l393 256l395 -256l-59 -94z" />
    <glyph glyph-name="idieresis" unicode="&#xef;" horiz-adv-x="591" 
d="M383 0h-160v1114h160v-1114zM594 1454q0 -43 -28.5 -71.5t-71.5 -28.5t-73 29t-30 71t30 71t73 29t71.5 -28.5t28.5 -71.5zM201 1454q0 -43 -29 -71.5t-72 -28.5q-44 0 -72 28.5t-28 71.5t28 71.5t72 28.5q43 0 72 -28.5t29 -71.5z" />
    <glyph glyph-name="eth" unicode="&#xf0;" horiz-adv-x="1077" 
d="M952 551q0 -261 -112 -408t-330 -147q-189 0 -301.5 120t-112.5 328q0 113 34.5 203t93.5 146t134 85t160 29q128 0 223 -49l4 4q-51 158 -157 283l-305 -170v127l223 127q-112 101 -275 192v15h234q85 -49 174 -138l258 146v-127l-180 -103q106 -133 170.5 -302.5
t64.5 -360.5zM254 459q0 -159 73 -240.5t201 -81.5q269 0 269 391q0 92 -15 168q-40 29 -108.5 52.5t-141.5 23.5q-131 0 -204.5 -77t-73.5 -236z" />
    <glyph glyph-name="ntilde" unicode="&#xf1;" horiz-adv-x="1175" 
d="M330 0h-160v1114h121l33 -117h8q14 18 39 39t64.5 45t96 40t117.5 16q170 0 264.5 -93t98.5 -276v-768h-160v731q0 128 -61.5 196t-178.5 68q-99 0 -175 -56.5t-107 -141.5v-797zM455 1401q-85 0 -142 -60l-63 103q84 84 196 84q58 0 151 -36t132 -36q85 0 131 62
l64 -101q-13 -26 -62.5 -58t-124.5 -32q-48 0 -144 37t-138 37z" />
    <glyph glyph-name="ograve" unicode="&#xf2;" horiz-adv-x="1144" 
d="M1034 565q0 -132 -26 -236.5t-81 -183.5t-146.5 -121t-215.5 -42t-213 40.5t-141 118.5t-76 179.5t-24 234.5t26 236.5t80.5 182t145.5 120t215 41.5q125 0 214.5 -40.5t141.5 -118t76 -178.5t24 -233zM274 567q0 -227 73 -336.5t231 -109.5t225 104t67 328
q0 227 -73 335.5t-232 108.5q-155 0 -223 -104.5t-68 -325.5zM672 1352l-99 -74l-405 250l154 86z" />
    <glyph glyph-name="oacute" unicode="&#xf3;" horiz-adv-x="1144" 
d="M1034 565q0 -132 -26 -236.5t-81 -183.5t-146.5 -121t-215.5 -42t-213 40.5t-141 118.5t-76 179.5t-24 234.5t26 236.5t80.5 182t145.5 120t215 41.5q125 0 214.5 -40.5t141.5 -118t76 -178.5t24 -233zM274 567q0 -227 73 -336.5t231 -109.5t225 104t67 328
q0 227 -73 335.5t-232 108.5q-155 0 -223 -104.5t-68 -325.5zM969 1528l-406 -250l-98 74l348 262z" />
    <glyph glyph-name="ocircumflex" unicode="&#xf4;" horiz-adv-x="1144" 
d="M1034 565q0 -132 -26 -236.5t-81 -183.5t-146.5 -121t-215.5 -42t-213 40.5t-141 118.5t-76 179.5t-24 234.5t26 236.5t80.5 182t145.5 120t215 41.5q125 0 214.5 -40.5t141.5 -118t76 -178.5t24 -233zM274 567q0 -227 73 -336.5t231 -109.5t225 104t67 328
q0 227 -73 335.5t-232 108.5q-155 0 -223 -104.5t-68 -325.5zM571 1470l-333 -194l-60 94l393 256l396 -256l-60 -94z" />
    <glyph glyph-name="otilde" unicode="&#xf5;" horiz-adv-x="1144" 
d="M1034 565q0 -132 -26 -236.5t-81 -183.5t-146.5 -121t-215.5 -42t-213 40.5t-141 118.5t-76 179.5t-24 234.5t26 236.5t80.5 182t145.5 120t215 41.5q125 0 214.5 -40.5t141.5 -118t76 -178.5t24 -233zM274 567q0 -227 73 -336.5t231 -109.5t225 104t67 328
q0 227 -73 335.5t-232 108.5q-155 0 -223 -104.5t-68 -325.5zM440 1401q-84 0 -141 -60l-63 103q84 84 196 84q58 0 151 -36t132 -36q85 0 131 62l63 -101q-13 -26 -62.5 -58t-123.5 -32q-48 0 -144.5 37t-138.5 37z" />
    <glyph glyph-name="odieresis" unicode="&#xf6;" horiz-adv-x="1144" 
d="M1034 565q0 -132 -26 -236.5t-81 -183.5t-146.5 -121t-215.5 -42t-213 40.5t-141 118.5t-76 179.5t-24 234.5t26 236.5t80.5 182t145.5 120t215 41.5q125 0 214.5 -40.5t141.5 -118t76 -178.5t24 -233zM274 567q0 -227 73 -336.5t231 -109.5t225 104t67 328
q0 227 -73 335.5t-232 108.5q-155 0 -223 -104.5t-68 -325.5zM870 1454q0 -43 -28.5 -71.5t-71.5 -28.5t-72.5 28.5t-29.5 71.5t29.5 71.5t72.5 28.5t71.5 -28.5t28.5 -71.5zM477 1454q0 -43 -28.5 -71.5t-71.5 -28.5q-44 0 -72.5 28.5t-28.5 71.5t28.5 71.5t72.5 28.5
q43 0 71.5 -28.5t28.5 -71.5z" />
    <glyph glyph-name="divide" unicode="&#xf7;" horiz-adv-x="1081" 
d="M1018 625h-957v141h957v-141zM657 326q0 -48 -34 -82.5t-86 -34.5q-49 0 -83 34.5t-34 82.5q0 51 33.5 85.5t83.5 34.5q52 0 86 -34.5t34 -85.5zM657 1065q0 -50 -34 -84.5t-86 -34.5q-49 0 -83 34.5t-34 84.5q0 51 34 86t83 35q52 0 86 -35t34 -86z" />
    <glyph glyph-name="oslash" unicode="&#xf8;" horiz-adv-x="1144" 
d="M256 -18h-143v6l100 147q-102 141 -102 420q0 133 26 236.5t80.5 182t145.5 120t215 41.5q160 0 264 -72l47 72h141v-7l-100 -147q104 -141 104 -416q0 -132 -26 -236.5t-81 -183.5t-146.5 -121t-215.5 -42q-160 0 -260 71zM391 180q68 -59 187 -59q158 0 226 104.5
t68 327.5q0 166 -45 272zM272 567q0 -179 45 -278l437 647q-67 61 -189 61q-156 0 -224.5 -104.5t-68.5 -325.5z" />
    <glyph glyph-name="ugrave" unicode="&#xf9;" horiz-adv-x="1177" 
d="M844 117q-14 -20 -37.5 -40.5t-62 -45t-96 -39.5t-122.5 -15q-353 0 -362 375v762h160v-729q0 -137 59.5 -203.5t183.5 -66.5t201 70t80 198v731h160v-1114h-125l-31 117h-8zM686 1352l-98 -74l-406 250l154 86z" />
    <glyph glyph-name="uacute" unicode="&#xfa;" horiz-adv-x="1177" 
d="M844 117q-14 -20 -37.5 -40.5t-62 -45t-96 -39.5t-122.5 -15q-353 0 -362 375v762h160v-729q0 -137 59.5 -203.5t183.5 -66.5t201 70t80 198v731h160v-1114h-125l-31 117h-8zM1010 1528l-406 -250l-98 74l348 262z" />
    <glyph glyph-name="ucircumflex" unicode="&#xfb;" horiz-adv-x="1177" 
d="M844 117q-14 -20 -37.5 -40.5t-62 -45t-96 -39.5t-122.5 -15q-353 0 -362 375v762h160v-729q0 -137 59.5 -203.5t183.5 -66.5t201 70t80 198v731h160v-1114h-125l-31 117h-8zM588 1470l-334 -194l-59 94l393 256l395 -256l-59 -94z" />
    <glyph glyph-name="udieresis" unicode="&#xfc;" horiz-adv-x="1177" 
d="M844 117q-14 -20 -37.5 -40.5t-62 -45t-96 -39.5t-122.5 -15q-353 0 -362 375v762h160v-729q0 -137 59.5 -203.5t183.5 -66.5t201 70t80 198v731h160v-1114h-125l-31 117h-8zM885 1454q0 -43 -29 -71.5t-72 -28.5t-72.5 28.5t-29.5 71.5t29.5 71.5t72.5 28.5t72 -28.5
t29 -71.5zM492 1454q0 -43 -29 -71.5t-72 -28.5q-44 0 -72 28.5t-28 71.5t28 71.5t72 28.5q43 0 72 -28.5t29 -71.5z" />
    <glyph glyph-name="yacute" unicode="&#xfd;" horiz-adv-x="1019" 
d="M590 -78q-57 -170 -152 -260t-256 -90q-73 0 -127 20l25 142q55 -19 104 -19q104 0 166 58t99 188l-404 1153h172l180 -547q77 -235 125 -405h8q29 130 115 405l172 547h166zM946 1528l-405 -250l-99 74l349 262z" />
    <glyph glyph-name="thorn" unicode="&#xfe;" horiz-adv-x="1142" 
d="M328 -389h-158v1931h158v-514h8q35 37 105.5 67.5t168.5 30.5q90 0 165 -31.5t133 -94.5t91 -167t33 -241q0 -286 -137 -448t-387 -162q-107 0 -180 24v-395zM328 152q83 -29 186 -29q164 0 260 114t96 338q0 95 -17 168t-45.5 118.5t-68.5 74.5t-82 40t-90 11
q-66 0 -133 -31t-106 -84v-720z" />
    <glyph glyph-name="ydieresis" unicode="&#xff;" horiz-adv-x="1019" 
d="M590 -78q-57 -170 -152 -260t-256 -90q-73 0 -127 20l25 142q55 -19 104 -19q104 0 166 58t99 188l-404 1153h172l180 -547q77 -235 125 -405h8q29 130 115 405l172 547h166zM807 1454q0 -43 -28.5 -71.5t-71.5 -28.5t-73 29t-30 71t30 71t73 29t71.5 -28.5t28.5 -71.5z
M414 1454q0 -43 -29 -71.5t-72 -28.5q-44 0 -72 28.5t-28 71.5t28 71.5t72 28.5q43 0 72 -28.5t29 -71.5z" />
    <glyph glyph-name="dotlessi" unicode="&#x131;" horiz-adv-x="591" 
d="M383 0h-160v1114h160v-1114z" />
    <glyph glyph-name="Lslash" unicode="&#x141;" horiz-adv-x="1015" 
d="M985 0h-780v594l-127 -92v139l127 92v703h164v-584l288 211v-137l-288 -211v-570h616v-145z" />
    <glyph glyph-name="lslash" unicode="&#x142;" horiz-adv-x="614" 
d="M559 10q-55 -24 -139 -24q-113 0 -170 62t-57 173v422l-115 -88v137l115 88v774h157v-651l203 158v-137l-203 -158v-502q0 -74 27.5 -107.5t89.5 -33.5q48 0 92 22v-135z" />
    <glyph glyph-name="OE" unicode="&#x152;" horiz-adv-x="1972" 
d="M1092 180q-118 -200 -414 -200q-131 0 -231 40.5t-173 126.5t-111 227.5t-38 336.5t40 339.5t116 232.5t179.5 130.5t235.5 42.5q280 0 396 -188h6v168h749v-146h-602v-489h529v-146h-529v-510h631v-145h-778v180h-6zM293 725q0 -165 28 -282.5t82 -185.5t125 -99
t164 -31t163 29.5t123.5 95.5t81 181t27.5 278q0 165 -28.5 282.5t-83 185.5t-126 99t-165.5 31q-92 0 -161 -29t-122 -95t-80.5 -181t-27.5 -279z" />
    <glyph glyph-name="oe" unicode="&#x153;" horiz-adv-x="1871" 
d="M946 201q-51 -105 -140.5 -162t-240.5 -57q-124 0 -213 40.5t-141 118.5t-76 179.5t-24 234.5t25.5 236.5t80 182t145.5 120t216 41.5q281 0 372 -217h11q55 107 154.5 161t225.5 54q196 0 303 -118.5t107 -322.5q0 -76 -12 -190h-711q0 -1 1 -5t1 -5q13 -195 101 -281
t255 -86q168 0 275 100l78 -125q-127 -114 -373 -114q-308 0 -412 215h-8zM274 567q0 -227 73.5 -336.5t232.5 -109.5t226.5 105t67.5 339q0 432 -309 432q-156 0 -223.5 -104t-67.5 -326zM1030 645v-12h559q2 27 2 63q0 147 -68 223t-200 76q-54 0 -100 -17t-88 -54.5
t-70 -109t-35 -169.5z" />
    <glyph glyph-name="Scaron" unicode="&#x160;" horiz-adv-x="1091" 
d="M991 377q0 -170 -128.5 -283.5t-350.5 -113.5q-150 0 -264 43.5t-185 107.5l97 131q164 -135 366 -135q141 0 220 68t79 172q0 52 -23.5 95t-63 73.5t-91 58t-108 52.5t-113 52t-108 62t-91 77t-63 102t-23.5 132q0 164 126.5 274.5t318.5 110.5q224 0 370 -121
l-100 -127q-125 99 -281 99q-124 0 -196 -63t-72 -163q0 -59 29.5 -107.5t77.5 -80.5t109.5 -64t125.5 -58.5t125.5 -64t109.5 -79.5t77.5 -106.5t29.5 -143.5zM963 1866l-396 -256l-393 256l59 94l334 -195l336 195z" />
    <glyph glyph-name="scaron" unicode="&#x161;" horiz-adv-x="970" 
d="M852 299q0 -59 -25 -114.5t-72.5 -101.5t-125 -73.5t-174.5 -27.5q-129 0 -232.5 40.5t-161.5 100.5l99 119q54 -56 132.5 -89.5t170.5 -33.5q111 0 171 50.5t60 125.5q0 45 -24 79.5t-64 56t-90.5 43t-103 38.5t-103 44.5t-90.5 60t-64 86t-24 120.5q0 127 103 218.5
t278 91.5q99 0 187 -32.5t139 -86.5l-103 -111q-39 40 -101 65t-126 25q-108 0 -163.5 -47t-55.5 -119q0 -50 31 -87.5t80.5 -61t109.5 -44.5t120.5 -47.5t110 -60.5t80.5 -92t31 -135zM879 1532l-396 -256l-393 256l60 94l333 -194l336 194z" />
    <glyph glyph-name="Ydieresis" unicode="&#x178;" horiz-adv-x="1107" 
d="M635 0h-162v518l-475 918h186l371 -750h8l371 750h176l-475 -918v-518zM852 1788q0 -43 -28.5 -71.5t-71.5 -28.5t-73 29t-30 71t30 71t73 29t71.5 -28.5t28.5 -71.5zM459 1788q0 -43 -29 -71.5t-72 -28.5q-44 0 -72 28.5t-28 71.5t28 71.5t72 28.5q43 0 72 -28.5
t29 -71.5z" />
    <glyph glyph-name="Zcaron" unicode="&#x17d;" horiz-adv-x="1056" 
d="M981 0h-897l-27 147l725 1133v8h-659v148h825l27 -148l-721 -1132v-9h727v-147zM922 1866l-396 -256l-393 256l60 94l333 -195l336 195z" />
    <glyph glyph-name="zcaron" unicode="&#x17e;" horiz-adv-x="919" 
d="M825 0h-727l-24 158l557 809v8h-514v139h659l33 -158l-559 -809v-8h575v-139zM854 1532l-395 -256l-393 256l59 94l334 -194l336 194z" />
    <glyph glyph-name="florin" unicode="&#x192;" horiz-adv-x="1038" 
d="M461 -45q-21 -157 -116.5 -252.5t-252.5 -95.5q-121 0 -172 31l53 141q57 -33 136 -33q165 0 194 209l92 727h-202v135h219l32 260q20 157 114 252.5t253 95.5q119 0 172 -30l-53 -140q-50 29 -135 29q-88 0 -135 -56.5t-58 -150.5l-31 -260h267v-135h-283z" />
    <glyph glyph-name="circumflex" unicode="&#x2c6;" horiz-adv-x="1028" 
d="M512 1470l-334 -194l-59 94l393 256l395 -256l-59 -94z" />
    <glyph glyph-name="caron" unicode="&#x2c7;" horiz-adv-x="1028" 
d="M907 1532l-395 -256l-393 256l59 94l334 -194l336 194z" />
    <glyph glyph-name="breve" unicode="&#x2d8;" horiz-adv-x="1028" 
d="M860 1507q-119 -198 -346 -198t-346 198l106 68q5 -12 14 -26t29.5 -36t45.5 -39t65 -29.5t86 -12.5q56 0 102 17.5t74 45t41.5 45.5t22.5 35z" />
    <glyph glyph-name="dotaccent" unicode="&#x2d9;" horiz-adv-x="1028" 
d="M631 1444q0 -50 -34 -83.5t-85 -33.5q-50 0 -83.5 33.5t-33.5 83.5q0 51 33.5 85t83.5 34q51 0 85 -34t34 -85z" />
    <glyph glyph-name="ring" unicode="&#x2da;" horiz-adv-x="1028" 
d="M737 1470q0 -98 -63.5 -160.5t-163.5 -62.5t-159.5 57t-59.5 154q0 98 62.5 160.5t162.5 62.5t160.5 -57.5t60.5 -153.5zM391 1466q0 -56 34 -90.5t91 -34.5q56 0 86.5 32.5t30.5 88.5q0 58 -32.5 91.5t-90.5 33.5q-56 0 -87.5 -32.5t-31.5 -88.5z" />
    <glyph glyph-name="ogonek" unicode="&#x2db;" horiz-adv-x="1028" 
d="M719 -449q-65 -24 -160 -24q-127 0 -189.5 61.5t-62.5 159.5q0 204 307 352l64 -77q-39 -20 -76 -45.5t-74 -58.5t-59.5 -74t-22.5 -81q0 -118 150 -118q58 0 98 20z" />
    <glyph glyph-name="tilde" unicode="&#x2dc;" horiz-adv-x="1028" 
d="M381 1401q-84 0 -141 -60l-64 103q84 84 197 84q58 0 150.5 -36t131.5 -36q85 0 131 62l64 -101q-13 -26 -62.5 -58t-123.5 -32q-48 0 -144.5 37t-138.5 37z" />
    <glyph glyph-name="hungarumlaut" unicode="&#x2dd;" horiz-adv-x="1028" 
d="M537 1526l-392 -258l-94 78l352 272zM975 1505l-408 -237l-84 86l369 252z" />
    <glyph glyph-name="danda" unicode="&#x964;" horiz-adv-x="976" 
d="M567 0h-157v1315h157v-1315z" />
    <glyph glyph-name="doubledanda" unicode="&#x965;" horiz-adv-x="1521" 
d="M1112 0h-158v1315h158v-1315zM567 0h-157v1315h157v-1315z" />
    <glyph glyph-name="bnAnji" unicode="&#x980;" horiz-adv-x="1157" 
d="M1210 86q-32 -35 -87 -60.5t-122 -25.5q-123 0 -187 72.5t-64 216.5v704q0 178 -177 178q-129 0 -223 -95.5t-94 -227.5q0 -98 61.5 -146.5t171.5 -48.5q64 0 132 21l28 -129q-91 -35 -178 -35q-74 0 -138.5 19.5t-117 59t-83 106.5t-30.5 155q0 93 35 178t96.5 148.5
t152 101t194.5 37.5q155 0 238 -84t83 -234v-686q0 -88 19 -129t79 -41q73 0 125 60z" />
    <glyph glyph-name="bnCandrabindu" unicode="&#x981;" 
d="M137 1704q-61 -107 -170 -169t-246 -62q-138 0 -247 62t-170 169l112 68q103 -170 305 -170q104 0 181 47t123 123zM-186 1849q0 -40 -26.5 -67t-66.5 -27q-42 0 -68 27t-26 67q0 42 26 69.5t68 27.5q40 0 66.5 -28t26.5 -69z" />
    <glyph glyph-name="bnAnusvara" unicode="&#x982;" horiz-adv-x="894" 
d="M805 55l-105 -75l-626 489l139 94zM766 1028q0 -128 -93 -216.5t-224 -88.5q-135 0 -226.5 82t-91.5 213q0 128 94 217.5t224 89.5q134 0 225.5 -83t91.5 -214zM272 1030q0 -82 50 -134t131 -52q74 0 122 50.5t48 123.5q0 77 -50.5 131.5t-126.5 54.5q-75 0 -123.5 -51
t-50.5 -123z" />
    <glyph glyph-name="bnVisarga" unicode="&#x983;" horiz-adv-x="876" 
d="M725 1040q0 -115 -84 -195.5t-203 -80.5q-122 0 -204 74.5t-82 193.5q0 117 83.5 198t202.5 81q122 0 204.5 -75t82.5 -196zM725 264q0 -115 -84 -195.5t-203 -80.5q-122 0 -204 74.5t-82 193.5q0 117 83.5 198t202.5 81q122 0 204.5 -75.5t82.5 -195.5zM285 266
q0 -70 43.5 -116t113.5 -46q63 0 105.5 44.5t42.5 107.5q0 68 -43 115t-111 47q-65 0 -108 -44.5t-43 -107.5zM285 1042q0 -70 43.5 -115.5t113.5 -45.5q64 0 106 44t42 107q0 68 -43 115t-111 47q-65 0 -108 -44.5t-43 -107.5z" />
    <glyph glyph-name="bnA" unicode="&#x985;" horiz-adv-x="1828" 
d="M1870 1184h-244v-1063l78 -55l-113 -93l-473 351q-137 -134 -348 -134q-147 0 -268 58t-207.5 164.5t-145.5 246t-94 314.5l138 61q30 -156 77 -280.5t115.5 -223t166.5 -152.5t218 -54q151 0 239.5 94t88.5 239q0 123 -55.5 190.5t-149.5 67.5q-73 0 -116.5 -40.5
t-43.5 -114.5q0 -43 22.5 -81.5t65.5 -62.5l-108 -79q-62 33 -96.5 96t-34.5 137q0 123 82.5 205t224.5 82q157 0 257.5 -114t100.5 -288q0 -119 -49 -219l283 -215l8 2q-12 164 -12 408v553h-1518v131h1911v-131z" />
    <glyph glyph-name="bnAA" unicode="&#x986;" horiz-adv-x="2390" 
d="M2183 0h-149v1014q0 170 -164 170h-244v-1063l78 -55l-113 -93l-473 351q-137 -134 -348 -134q-147 0 -268 58t-207.5 164.5t-145.5 246t-94 314.5l138 61q30 -156 77 -280.5t115.5 -223t166.5 -152.5t218 -54q151 0 239.5 94t88.5 239q0 123 -55.5 190.5t-149.5 67.5
q-73 0 -116.5 -40.5t-43.5 -114.5q0 -43 22.5 -81.5t65.5 -62.5l-108 -79q-62 33 -96.5 96t-34.5 137q0 123 82.5 205t224.5 82q157 0 257.5 -114t100.5 -288q0 -119 -49 -219l283 -215l8 2q-12 164 -12 408v553h-1518v131h1935q110 0 160 -72h10q-8 22 -18 80.5t-10 134.5
v60h147v-203h246v-131h-246v-1184z" />
    <glyph glyph-name="bnI" unicode="&#x987;" horiz-adv-x="1011" 
d="M958 12l-104 -100q-389 235 -490 286.5t-223 67.5v129h133q118 0 205 24t137 67t73.5 96.5t23.5 119.5q0 96 -62.5 156t-163.5 60q-87 0 -139.5 -48.5t-52.5 -128.5q0 -91 88 -147l-109 -82q-62 38 -95.5 100.5t-33.5 135.5q0 135 94 222t246 87q166 0 270.5 -100.5
t104.5 -260.5q0 -170 -107.5 -272.5t-297.5 -124.5v-8q79 -21 286 -148zM858 1407q0 -26 -8 -92h203v-131h-1094v131h741q9 43 9 82q0 87 -54.5 125.5t-175.5 38.5h-119q-92 0 -158 21.5t-101 60t-50.5 82.5t-15.5 98q0 41 4 61l141 31q-6 -69 -6 -72q0 -32 8 -56t28 -46.5
t60.5 -34.5t100.5 -12h131q158 0 257 -74.5t99 -212.5z" />
    <glyph glyph-name="bnII" unicode="&#x988;" horiz-adv-x="1347" 
d="M1165 -2h-143q-43 162 -43 358q0 256 65 418l-270 -246q-10 -80 -34.5 -147.5t-66 -123t-106 -87t-145.5 -31.5q-120 0 -204.5 64.5t-115.5 144.5l115 80q28 -64 79 -108t128 -44q57 0 99.5 27.5t66.5 76.5t35.5 108t11.5 130q0 61 -9 112t-30 96.5t-62 71.5t-98 26
q-73 0 -116 -40.5t-43 -105.5q0 -87 65 -131l-106 -76q-47 29 -76 85t-29 128q0 121 83 196t220 75q149 0 233.5 -92t102.5 -252l344 307l129 -72q-121 -228 -121 -586q0 -169 41 -362zM1389 1184h-1430v131h1071q8 39 8 82q0 87 -54 125.5t-175 38.5h-350q-92 0 -159 22
t-103 60.5t-52 83.5t-16 98q0 39 4 59l143 31q-6 -35 -6 -68q0 -68 43 -110.5t158 -42.5h360q158 0 257.5 -74.5t99.5 -212.5q0 -37 -10 -92h211v-131z" />
    <glyph glyph-name="bnU" unicode="&#x989;" horiz-adv-x="1368" 
d="M1219 1407q0 -31 -11 -92h176v-131h-720v-324q0 -112 96 -112q59 0 155.5 43.5t194.5 134.5q59 -39 106.5 -126.5t47.5 -193.5q0 -214 -144 -347.5t-383 -133.5q-150 0 -273.5 59t-204.5 160.5t-127.5 233t-53.5 280.5l143 31q10 -290 152 -457.5t366 -167.5
q169 0 273 93t104 245q0 86 -35 133q-73 -61 -160 -94t-171 -33q-110 0 -174 68.5t-64 175.5v332h-528v131h1077q8 58 8 82q0 87 -54 125.5t-175 38.5h-443q-93 0 -160 22t-103 60.5t-52 83.5t-16 98q0 39 4 59l143 31q-6 -35 -6 -68q0 -68 43 -110.5t158 -42.5h454
q158 0 257.5 -74.5t99.5 -212.5z" />
    <glyph glyph-name="bnUU" unicode="&#x98a;" horiz-adv-x="1398" 
d="M1266 1407q0 -43 -9 -92h183v-131h-725v-310q0 -112 108 -112q124 0 318 174q67 -53 110 -139.5t43 -202.5q0 -209 -137.5 -341t-372.5 -132q-144 0 -265 41t-201.5 107t-138.5 153t-85.5 175t-32.5 177l109 29q3 -58 13.5 -115t35.5 -121.5t61.5 -119t96 -105.5
t135.5 -84l8 8q-134 76 -210 253.5t-58 400.5l119 24q-15 -139 3.5 -261.5t68 -218t138.5 -151t207 -55.5q170 0 265.5 93.5t95.5 240.5q0 103 -35 156q-151 -125 -303 -125q-117 0 -182.5 67.5t-65.5 177.5v316h-604v131h1149q10 48 10 82q0 87 -54.5 125.5t-174.5 38.5
h-461q-92 0 -159 22t-103 60.5t-52 83.5t-16 98q0 39 4 59l142 31q-1 -8 -2.5 -21.5t-2.5 -25t-1 -21.5q0 -68 42.5 -110.5t157.5 -42.5h473q158 0 256.5 -74.5t98.5 -212.5z" />
    <glyph glyph-name="bnvR" unicode="&#x98b;" horiz-adv-x="1540" 
d="M260 528l477 -311h8q-14 195 -14 399v191q-128 -34 -259.5 -114t-211.5 -165zM1366 334l-139 -72l-350 240v-371l86 -55l-105 -103l-749 484v141q116 117 290 220t349 145v8q-154 129 -193 164q-106 -205 -311 -205q-119 0 -188.5 66t-69.5 165q0 91 34 154h150
q-41 -80 -41 -139q0 -52 32 -83.5t89 -31.5q79 0 139.5 56.5t106.5 201.5h57q102 -86 188 -166q-10 80 -10 258v107h146v-844l352 -244l6 4q-16 99 -16 311v773h147v-203h215v-131h-215v-850z" />
    <glyph glyph-name="bnvL" unicode="&#x98c;" horiz-adv-x="1257" 
d="M1145 537q0 -247 -162 -392t-424 -151l-82 106q162 171 162 392q0 102 -51.5 160.5t-145.5 58.5q-90 0 -143 -46t-53 -133q0 -76 48 -118t124 -54l-45 -129q-121 22 -198 98.5t-77 202.5q0 156 96 237t244 81q149 0 245.5 -100.5t96.5 -255.5q0 -196 -98 -349
q155 33 234 137t79 259q0 88 -24.5 157.5t-65.5 116t-95 84t-113 66.5t-118 57.5t-113 63.5t-95 77.5t-65.5 106.5t-24.5 145q0 40 10 70l147 26q-10 -35 -10 -69q0 -65 24.5 -116.5t66 -86t95.5 -64t113.5 -58t118.5 -60.5t113 -77.5t95.5 -103.5t66 -144.5t24.5 -194.5z
" />
    <glyph glyph-name="bnE" unicode="&#x98f;" horiz-adv-x="1447" 
d="M1243 0h-135q-8 85 -77 126.5t-218 41.5q-29 0 -124.5 -3t-131.5 -3q-209 0 -326.5 94t-117.5 248q0 130 67 219l144 -59q-60 -66 -60 -162q0 -92 77 -147.5t241 -55.5q44 0 131 3t118 3q108 0 169 -17t100 -52h8q-12 86 -12 423v449q0 88 -92 88q-83 0 -171.5 -60
t-145 -146.5t-56.5 -162.5q0 -122 125 -122q42 0 78 15t55 32l59 -119q-84 -64 -198 -64q-126 0 -198.5 70t-72.5 186q0 82 45 173t117 165t171 123t198 49q113 0 173 -60.5t60 -168.5v-1106z" />
    <glyph glyph-name="bnAI" unicode="&#x990;" horiz-adv-x="1552" 
d="M1589 1208q0 -134 -95.5 -232.5t-250.5 -111.5v-864h-135q-8 85 -77 126.5t-218 41.5q-29 0 -124.5 -3t-131.5 -3q-209 0 -326.5 94t-117.5 248q0 130 67 219l144 -59q-60 -66 -60 -162q0 -92 77 -147.5t241 -55.5q44 0 131 3t118 3q108 0 169 -17t100 -52h8
q-12 86 -12 423v449q0 88 -92 88q-83 0 -171.5 -60t-145 -146.5t-56.5 -162.5q0 -122 125 -122q42 0 78 15t55 32l59 -119q-84 -64 -198 -64q-126 0 -198.5 70t-72.5 186q0 82 45 173t117 165t171 123t198 49q113 0 173 -60.5t60 -168.5v-107q83 13 139 67.5t56 143.5
q0 177 -262 258l-414 127q-159 51 -245.5 142t-86.5 217q0 100 64 172l139 -51q-49 -52 -49 -125q0 -80 62.5 -136t215.5 -106l330 -102q397 -126 397 -398z" />
    <glyph glyph-name="bnO" unicode="&#x993;" horiz-adv-x="1230" 
d="M1008 1016q0 -162 -119 -268q98 -60 158.5 -148t60.5 -203q0 -155 -103.5 -258.5t-285.5 -103.5q-101 0 -194.5 43t-165.5 113t-134 164.5t-104.5 193.5t-71.5 203l135 55q43 -172 119.5 -312.5t186 -229.5t229.5 -89q113 0 175 64.5t62 160.5q0 163 -192 265
q-67 -33 -152 -52l-73 127q149 26 234 94.5t85 180.5q0 83 -53.5 132.5t-142.5 49.5q-127 0 -236 -121l-107 103q142 153 340 153q146 0 247.5 -88.5t101.5 -228.5z" />
    <glyph glyph-name="bnAU" unicode="&#x994;" horiz-adv-x="1456" 
d="M1395 1157q0 -79 -25 -145.5t-68.5 -112.5t-101.5 -78.5t-124 -47.5t-136 -15h-39q-8 -8 -12 -10q98 -60 158.5 -148t60.5 -203q0 -155 -103.5 -258.5t-285.5 -103.5q-101 0 -194.5 43t-165.5 113t-134 164.5t-104.5 193.5t-71.5 203l135 55q43 -172 119.5 -312.5
t186 -229.5t229.5 -89q113 0 175 64.5t62 160.5q0 163 -192 265q-67 -33 -152 -52l-73 127q149 26 234 94.5t85 180.5q0 83 -53.5 132.5t-142.5 49.5q-127 0 -236 -121l-107 103q142 153 340 153q146 0 247.5 -88.5t101.5 -228.5q0 -73 -25 -137q119 18 190.5 91t71.5 193
q0 57 -22.5 106.5t-60.5 88t-87.5 74.5t-104 69t-108.5 66.5t-103.5 72.5t-87.5 82t-60.5 100t-22.5 122q0 81 45 149l145 -51q-37 -46 -37 -109q0 -46 22.5 -87.5t60 -75t87 -66.5t103.5 -66t108 -68t103.5 -77.5t87 -90.5t60 -111t22.5 -134z" />
    <glyph glyph-name="bnKA" unicode="&#x995;" horiz-adv-x="1415" 
d="M934 70l-117 -90l-713 587v131q287 245 598 289v197h-743v131h1497v-131h-606v-189q108 -2 197 -36t146.5 -89.5t88.5 -125.5t31 -146q0 -116 -57.5 -208.5t-149.5 -141.5l-105 108q69 29 116.5 96t47.5 148q0 111 -83 182t-232 74v-719zM254 629l455 -383h8
q-15 184 -15 411v187q-225 -33 -448 -215z" />
    <glyph glyph-name="bnKHA" unicode="&#x996;" horiz-adv-x="1345" 
d="M1231 82l-98 -109l-1041 523v145q269 20 403 109.5t134 230.5q0 90 -66 149q-49 -107 -129.5 -163t-177.5 -56q-119 0 -191.5 67t-72.5 169q0 88 43 168h153q-47 -77 -47 -162q0 -49 30.5 -79t90.5 -30q76 0 135 61.5t109 209.5h67q197 -141 197 -334
q0 -173 -115.5 -281.5t-328.5 -150.5v-8l671 -344l9 2q-13 205 -13 446v873h150v-203h243v-131h-243v-1057z" />
    <glyph glyph-name="bnGA" unicode="&#x997;" horiz-adv-x="1294" 
d="M1090 0h-150v758q0 109 -47 203t-139 153.5t-211 59.5q-118 0 -204.5 -60.5t-129.5 -138.5q35 18 88 28.5t98 10.5q124 0 209.5 -76t85.5 -209q0 -124 -82.5 -238.5t-218.5 -197.5l-117 108q123 70 194 155.5t71 176.5q0 78 -50 118t-129 40q-114 0 -208 -51l-107 108
q45 155 183 261t309 106q75 0 142 -17.5t111.5 -42.5t82.5 -58.5t58 -59t34 -50.5h8q-5 11 -12 52t-14 116t-7 152v111h152v-203h245v-131h-245v-1184z" />
    <glyph glyph-name="bnGHA" unicode="&#x998;" horiz-adv-x="1277" 
d="M1161 86l-92 -113l-934 453v135l117 72q35 23 68.5 41t52 26.5t35.5 16t20 8.5v8q-149 13 -226 85.5t-77 185.5q0 107 63 180h-229v131h1360v-131h-246v-1055zM930 197h8q-16 183 -16 413v574h-560q-88 -72 -88 -178q0 -79 60 -127t158 -48q58 0 104 15.5t106 50.5
l64 -121l-459 -274z" />
    <glyph glyph-name="bnNGA" unicode="&#x999;" horiz-adv-x="1406" 
d="M799 909q83 0 126.5 39t43.5 109q0 57 -42 97t-114 40q-149 0 -149 -182v-76q69 -27 135 -27zM1309 471q0 -95 -38 -181t-106 -151t-170 -103t-223 -38q-149 0 -277 58.5t-214.5 157t-136.5 226.5t-54 267l143 28q4 -141 50 -256t121 -187.5t170 -111.5t200 -39
q174 0 280.5 96.5t106.5 227.5q0 87 -31 133q-96 -68 -181 -102.5t-175 -34.5q-119 0 -187.5 69.5t-68.5 184.5v155q-85 57 -151 140.5t-105 173.5h-303v131h406q48 -169 159 -283q4 140 81 214.5t206 74.5q127 0 213 -77.5t86 -190.5q0 -127 -86 -199t-223 -72
q-73 0 -137 21v-84q0 -61 27.5 -90t86.5 -29q151 0 379 193q62 -43 107 -128t45 -194z" />
    <glyph glyph-name="bnCA" unicode="&#x99a;" horiz-adv-x="1075" 
d="M969 508q0 -124 -67.5 -242t-182 -193t-240.5 -75q-129 0 -202.5 69t-73.5 187v930h-244v131h1157v-131h-772v-56q0 -157 180 -225l168 -63q139 -52 208 -130.5t69 -201.5zM350 258q0 -58 32 -90.5t99 -32.5q52 0 111.5 31.5t109.5 81.5t82.5 120.5t32.5 141.5
q0 66 -38.5 113.5t-137.5 83.5l-133 49q-101 37 -160 106h-8q10 -45 10 -321v-283z" />
    <glyph glyph-name="bnCHA" unicode="&#x99b;" horiz-adv-x="1218" 
d="M299 750q0 -47 26.5 -75t80.5 -28q79 0 130.5 55t51.5 127q0 42 -32.5 70t-75 40t-97 32.5t-84.5 46.5v-268zM727 827q0 -123 -92 -216t-232 -93q-117 0 -182 63.5t-65 166.5v436h-197v131h1301v-131h-977q16 -33 59.5 -56.5t119.5 -49.5t113 -44q73 17 132 17
q160 0 268 -99.5t108 -259.5q0 -196 -139.5 -304t-417.5 -120v-8q90 -24 279 -123l321 -168l-98 -110q-326 179 -484 258t-229 102.5t-157 32.5v129h237q272 0 406.5 80t134.5 231q0 103 -63.5 161.5t-163.5 64.5q18 -40 18 -91z" />
    <glyph glyph-name="bnJA" unicode="&#x99c;" horiz-adv-x="1630" 
d="M1423 -6h-149v336q0 97 22.5 193t39.5 136t32 66q-179 6 -305 112t-154 246q-131 -83 -198.5 -154.5t-67.5 -140.5q0 -87 113 -90l243 -6q46 -38 73.5 -101t27.5 -128q0 -148 -107.5 -251t-290.5 -103q-175 0 -318.5 102.5t-224.5 272.5t-87 370l143 41q3 -175 64.5 -321
t172.5 -233t248 -87q118 0 182 59.5t64 143.5q0 60 -33 106l-180 4q-112 3 -180 57.5t-68 155.5q0 200 342 404h-868v131h1712v-131h-649q8 -48 24 -91t47 -87.5t74 -76.5t109.5 -52.5t148.5 -20.5h41l68 -106q-111 -200 -111 -426v-330z" />
    <glyph glyph-name="bnJHA" unicode="&#x99d;" horiz-adv-x="1574" 
d="M965 76l-105 -103l-762 514v138q110 112 281 219t354 155v185h-774v131h922v-639l348 -240h8q-16 180 -16 412v670h149v-203h246v-131h-246v-848l-139 -70l-350 240v-373zM250 559l489 -336h9q-15 171 -15 412v215q-132 -39 -267 -123t-216 -168z" />
    <glyph glyph-name="bnNYA" unicode="&#x99e;" horiz-adv-x="1941" 
d="M1245 0h-143q0 124 -99.5 187t-336.5 67q-300 4 -444 104t-144 275q0 102 53 203l150 -39q-50 -85 -50 -170q0 -55 21.5 -95.5t71 -72.5t137.5 -49.5t213 -18.5q108 -1 188.5 -14.5t130 -37t74 -42t49.5 -45.5h8q-28 186 -28 414v362q0 76 -31 113t-102 37
q-84 0 -166 -49.5t-132.5 -125.5t-50.5 -151q0 -60 34 -93.5t97 -33.5q42 0 78.5 15t55.5 32l59 -119q-77 -61 -201 -61q-127 0 -200.5 70t-73.5 186q0 82 41.5 166.5t110 152t163 110t193.5 42.5q102 0 162 -46.5t79 -117.5q31 60 108.5 114t188.5 54q127 0 205 -71.5
t78 -184.5q0 -78 -42 -134t-108 -81v-8q72 -21 123.5 -78t51.5 -145q0 -118 -81.5 -194.5t-215.5 -76.5q-93 0 -173 48.5t-112 97.5q10 -38 10 -224v-272zM1239 846q0 -163 72.5 -263t197.5 -100q73 0 114.5 41.5t41.5 100.5q0 71 -48 111t-136 40h-45v131h39q77 0 122 42.5
t45 113.5q0 57 -38.5 92t-110.5 35q-45 0 -88.5 -20.5t-81.5 -60.5t-61 -108.5t-23 -154.5z" />
    <glyph glyph-name="bnTTA" unicode="&#x99f;" horiz-adv-x="1118" 
d="M969 1407q0 -31 -11 -92h201v-131h-809v-776q0 -73 40 -117.5t118 -44.5q136 0 236 106.5t100 249.5q0 83 -36.5 133.5t-109.5 50.5q-38 0 -72.5 -17.5t-54.5 -47.5l-84 119q82 90 211 90q132 0 214.5 -91t82.5 -237q0 -92 -37 -181.5t-100.5 -159t-156.5 -112.5
t-197 -43q-137 0 -219 80t-82 211v787h-242v131h850q8 39 8 82q0 87 -54 125.5t-175 38.5h-256q-92 0 -159 22t-103 60.5t-52 83.5t-16 98q0 39 4 59l142 31q-1 -6 -4 -30.5t-3 -37.5q0 -68 43 -110.5t158 -42.5h268q158 0 257.5 -74.5t99.5 -212.5z" />
    <glyph glyph-name="bnTTHA" unicode="&#x9a0;" horiz-adv-x="1112" 
d="M1006 483q0 -86 -30.5 -163.5t-85.5 -136.5t-138.5 -93.5t-184.5 -34.5q-132 0 -243 65.5t-174.5 174t-67.5 233.5q189 51 278 149.5t89 274.5v156l-64 76h-426v131h334q-121 135 -121 291q0 141 97.5 226t248.5 79l29 -139q-100 11 -162.5 -38.5t-62.5 -138.5
q0 -118 139 -280h692v-131h-594q78 -83 114.5 -122t95.5 -105.5t85.5 -103t62.5 -90.5t51 -94.5t26.5 -89t11.5 -96.5zM256 446q3 -37 25 -79.5t60 -82t98.5 -65.5t131.5 -26q130 0 208.5 84t78.5 204q0 64 -18.5 123t-65 124t-75 98.5t-97.5 107.5q-15 16 -22 24
q6 -102 -16 -187t-57 -137.5t-85 -94t-87.5 -60.5t-78.5 -33z" />
    <glyph glyph-name="bnDDA" unicode="&#x9a1;" horiz-adv-x="1368" 
d="M1409 1184h-745v-324q0 -112 96 -112q59 0 155.5 43.5t194.5 134.5q59 -39 106.5 -126.5t47.5 -193.5q0 -214 -144 -347.5t-383 -133.5q-150 0 -273.5 59t-204.5 160.5t-127.5 233t-53.5 280.5l143 31q10 -290 152 -457.5t366 -167.5q169 0 273 93t104 245q0 86 -35 133
q-73 -61 -160 -94t-171 -33q-110 0 -174 68.5t-64 175.5v332h-553v131h1450v-131z" />
    <glyph glyph-name="bnDDHA" unicode="&#x9a2;" horiz-adv-x="1120" 
d="M995 600q0 -126 -59.5 -239.5t-172.5 -186t-253 -72.5t-223.5 79.5t-83.5 209.5v793h-244v131h1200v-131h-809v-781q0 -72 41 -116.5t121 -44.5q136 0 236 106t100 252q0 84 -39 135t-119 51q-76 0 -123 -34l-55 125q30 22 79.5 37.5t100.5 15.5q142 0 222.5 -91
t80.5 -239z" />
    <glyph glyph-name="bnNNA" unicode="&#x9a3;" horiz-adv-x="1245" 
d="M1040 0h-149v659q0 151 -41.5 267t-127 184t-204.5 68q-133 0 -206.5 -77t-73.5 -200q0 -114 67.5 -176.5t173.5 -62.5q91 0 158 49l49 -131q-37 -26 -94 -42t-115 -16q-176 0 -282.5 107.5t-106.5 273.5q0 180 113.5 296t310.5 116q78 0 146 -21.5t115 -57t78 -70
t52 -72.5h8q-20 98 -20 311v113h149v-203h246v-131h-246v-1184z" />
    <glyph glyph-name="bnTA" unicode="&#x9a4;" horiz-adv-x="1394" 
d="M1288 625q0 -220 -135.5 -359t-351.5 -139q-119 0 -221.5 42t-178.5 115.5t-137 179.5t-102 226.5t-68 263.5l139 62q23 -127 55.5 -235t81 -206t109 -166.5t143 -108.5t179.5 -40q153 0 245.5 106t92.5 261q0 131 -52.5 207.5t-152.5 76.5q-72 0 -116 -41.5t-44 -115.5
q0 -103 88 -154l-102 -88q-63 37 -99 102.5t-36 147.5q0 126 82 207.5t223 81.5q168 0 263 -121.5t95 -304.5zM1436 1184h-1477v131h1477v-131z" />
    <glyph glyph-name="bnTHA" unicode="&#x9a5;" horiz-adv-x="1384" 
d="M1270 84l-99 -111l-1042 488v164q148 7 257.5 39t172 82.5t92 109t29.5 125.5q0 89 -58 146t-155 57q-80 0 -134 -47t-54 -125q0 -86 71 -148l-121 -69q-100 78 -100 219q0 136 94.5 222.5t241.5 86.5q150 0 257 -92.5t107 -249.5q0 -78 -27.5 -149t-83 -132.5
t-149 -107.5t-217.5 -68v-8l684 -326h8q-14 172 -14 416v912h152v-203h243v-131h-243v-1057z" />
    <glyph glyph-name="bnDA" unicode="&#x9a6;" horiz-adv-x="1120" 
d="M905 0h-153v422q0 198 57 393q-253 -166 -471 -469l-152 68v770h-227v131h1202v-131h-825v-611q85 109 232.5 235t271.5 177l137 -76q-72 -222 -72 -491v-418z" />
    <glyph glyph-name="bnDHA" unicode="&#x9a7;" horiz-adv-x="1243" 
d="M1124 86l-90 -113l-897 457v139l115 66q44 26 91.5 49.5t72.5 33.5l26 11v8q-142 3 -233.5 80t-91.5 209q0 129 86 211t231 82q132 0 228 -55l-52 -121q-75 41 -168 41q-82 0 -130 -43.5t-48 -118.5q0 -86 63.5 -131t182.5 -45q146 0 379 149v320h395v-131h-246v-1053z
M899 201h8q-18 218 -18 420v217l-586 -332z" />
    <glyph glyph-name="bnNA" unicode="&#x9a8;" horiz-adv-x="1288" 
d="M1085 0h-151v43q0 123 -34 250.5t-94 236t-155 177.5t-205 69q-101 0 -153.5 -50.5t-52.5 -133.5q0 -78 61 -139l-133 -60q-78 75 -78 199q0 149 92.5 237.5t255.5 88.5q76 0 146 -21.5t123.5 -56.5t100 -83.5t79.5 -98.5t59 -105h8q-20 160 -20 408v223h-975v131h1370
v-131h-244v-1184z" />
    <glyph glyph-name="bnPA" unicode="&#x9aa;" horiz-adv-x="1339" 
d="M233 1036q256 -24 351 -313l344 225q-53 113 -146.5 177.5t-220.5 64.5q-114 0 -200 -49t-128 -105zM1137 0h-152v668q0 82 -14 145l-641 -418l-76 115l213 139q-16 52 -37.5 93.5t-55 81.5t-84 63.5t-114.5 27.5q-35 5 -47 5l-86 118q33 53 79 101t109 92t147 70t177 26
q91 0 168.5 -24t132.5 -65t92 -84t62 -91l6 2q-9 28 -20 143t-11 224v86h152v-203h243v-131h-243v-1184z" />
    <glyph glyph-name="bnPHA" unicode="&#x9ab;" horiz-adv-x="1538" 
d="M1006 72l-101 -103l-780 500v152l299 229l-277 293v41h-188v131h1620v-131h-1270v-8l260 -275v-115l-307 -237l522 -338h9q-17 250 -17 403v379q111 49 242 49q177 0 296.5 -100.5t119.5 -271.5q0 -131 -69.5 -220t-170.5 -133l-92 117q83 31 134.5 92.5t51.5 141.5
q0 115 -73 175t-179 60q-51 0 -110 -16v-764z" />
    <glyph glyph-name="bnBA" unicode="&#x9ac;" horiz-adv-x="1124" 
d="M1006 76l-105 -105l-797 523v137q98 98 295.5 220.5t370.5 178.5v154h-811v131h1206v-131h-243v-1053zM254 563l524 -342h8q-16 183 -16 412v248q-123 -45 -281.5 -143.5t-234.5 -174.5z" />
    <glyph glyph-name="bnBHA" unicode="&#x9ad;" horiz-adv-x="1474" 
d="M1370 580q0 -209 -142.5 -345.5t-381.5 -136.5q-137 0 -252 47.5t-196 124.5t-145.5 186.5t-103.5 222t-67 243.5l137 57q144 -737 629 -737q172 0 273.5 96t101.5 242q0 55 -10.5 102t-22 70.5t-31.5 58.5h-8q-115 -256 -320 -256q-123 0 -196.5 71.5t-73.5 178.5
q0 82 45 147l148 -26q-45 -48 -45 -117q0 -54 32.5 -85.5t92.5 -31.5q70 0 129 64.5t124 226.5h119q68 -64 116 -173t48 -230zM1516 1184h-1557v131h1557v-131z" />
    <glyph glyph-name="bnMA" unicode="&#x9ae;" horiz-adv-x="1198" 
d="M1239 1184h-246v-1184h-143q-14 108 -69 215.5t-143.5 191t-188.5 113.5q-26 -82 -72 -121t-96 -39q-54 0 -87.5 32.5t-33.5 86.5q0 63 45 113t121 65v31q0 84 -25.5 165.5t-65 141t-81 101t-78.5 61.5v27h-117v131h1280v-131zM852 344l4 2q-12 288 -12 369v469h-568v-8
q29 -29 59 -72t62 -105.5t52 -145t20 -167.5v-35q122 -26 224.5 -114t158.5 -193z" />
    <glyph glyph-name="bnYA" unicode="&#x9af;" horiz-adv-x="1153" 
d="M817 207q-18 265 -18 405v572h-490v-8l260 -275v-115l-307 -237l547 -342h8zM1030 72l-102 -103l-803 500v152l299 229l-277 293v41h-188v131h1235v-131h-246v-1061z" />
    <glyph glyph-name="bnRA" unicode="&#x9b0;" horiz-adv-x="1124" 
d="M406 -16q0 -45 -29 -74t-74 -29q-43 0 -71.5 29t-28.5 74q0 44 28.5 72t71.5 28q45 0 74 -28t29 -72zM1006 76l-105 -105l-797 523v137q98 98 295.5 220.5t370.5 178.5v154h-811v131h1206v-131h-243v-1053zM254 563l524 -342h8q-16 183 -16 412v248
q-123 -45 -281.5 -143.5t-234.5 -174.5z" />
    <glyph glyph-name="bnLA" unicode="&#x9b2;" horiz-adv-x="1511" 
d="M1307 0h-150v717q-14 45 -65 84t-121 39q-78 0 -129 -54t-51 -147v-80h-146v78q0 95 -51 144.5t-133 49.5q-79 0 -137 -60t-58 -163q0 -125 74.5 -196.5t187.5 -71.5q63 0 121 25l23 -138q-71 -22 -146 -22q-183 0 -296 109.5t-113 293.5q0 164 99.5 264.5t238.5 100.5
q58 0 107 -17t79.5 -44t49.5 -54t26 -53h8q14 67 75 120.5t154 53.5q51 0 95.5 -18t65 -35t34.5 -35h8v293h-1198v131h1593v-131h-245v-1184z" />
    <glyph glyph-name="bnSHA" unicode="&#x9b6;" horiz-adv-x="1427" 
d="M1223 0h-150v895q0 135 -75.5 208t-194.5 73q-99 0 -172.5 -67.5t-73.5 -186.5q0 -107 73.5 -169.5t180.5 -62.5q38 0 68 6v-135q-42 -6 -70 -6q-105 0 -193 43t-137 121q-44 -81 -127 -124.5t-192 -43.5q-52 0 -113 16v140q37 -19 111 -19q117 0 184.5 66t67.5 172
q0 128 -72 193t-191 65h-188v131h188q110 0 197 -42.5t141 -119.5q55 75 137.5 117.5t176.5 42.5q115 0 188.5 -42.5t102.5 -88.5h8q-3 10 -8 41.5t-10 92.5t-5 122v80h148v-203h245v-131h-245v-1184z" />
    <glyph glyph-name="bnSSA" unicode="&#x9b7;" horiz-adv-x="1157" 
d="M850 504l-49 94v12v574h-531v-8l289 -261v-38l209 -215l33 -64v-45zM1030 72l-106 -101l-807 498v143l303 256l-314 275v41h-147v131h1239v-131h-250v-1063zM322 1040l235 -239l-299 -254l549 -342h8q-11 172 -14 348l-244 248l2 76l-301 309z" />
    <glyph glyph-name="bnSA" unicode="&#x9b8;" horiz-adv-x="1349" 
d="M1145 0h-152v569q0 59 -29 91t-85 32q-28 0 -55.5 -13t-58.5 -42.5t-52 -53t-58 -67.5q-13 -16 -20 -24q-80 -93 -153.5 -145t-159.5 -52q-113 0 -189.5 57.5t-107.5 134.5l112 82q12 -27 25.5 -47t35 -42.5t54 -35t72.5 -12.5q82 0 126 59t44 144q0 104 -40 177.5
t-143 186.5l-129 144v41h-223v131h1430v-131h-244v-1184zM618 721q3 -24 3 -55q115 172 249 172q77 0 129 -45q-6 121 -6 258v133h-645v-8l103 -121q40 -47 63 -78t50 -75t40 -88.5t14 -92.5z" />
    <glyph glyph-name="bnHA" unicode="&#x9b9;" horiz-adv-x="1011" 
d="M967 14l-109 -102q-381 231 -471 277q-109 56 -208 72q-15 3 -32 5v129h132q228 0 333 84.5t105 222.5q0 96 -61.5 156t-163.5 60q-88 0 -143.5 -49t-55.5 -128q0 -42 23 -81t65 -62l-109 -82q-62 36 -95.5 98.5t-33.5 135.5q0 132 97 219.5t249 87.5q166 0 271.5 -100.5
t105.5 -260.5q0 -171 -108.5 -275t-298.5 -126v-8q104 -27 291 -142zM1053 1184h-1094v131h1094v-131z" />
    <glyph glyph-name="bnNukta" unicode="&#x9bc;" 
d="M-805 -176q0 -45 -28.5 -74t-71.5 -29q-45 0 -74 29t-29 74t29 73.5t74 28.5q43 0 71.5 -28.5t28.5 -73.5z" />
    <glyph glyph-name="bnAvagraha" unicode="&#x9bd;" horiz-adv-x="946" 
d="M840 2q-395 229 -505.5 283.5t-225.5 68.5v131h129q155 0 251 32.5t135.5 89t39.5 141.5q0 94 -60 152t-158 58q-88 0 -141 -48t-53 -128q0 -42 21.5 -79.5t62.5 -59.5l-103 -76q-60 33 -93.5 93.5t-33.5 132.5q0 95 54.5 168.5t148.5 105.5q-65 117 -233 117h-72v131h55
q304 0 396 -225q157 -5 255.5 -102t98.5 -249q0 -160 -102 -244.5t-295 -107.5v-8q58 -14 282 -139l240 -138z" />
    <glyph glyph-name="bnmAA" unicode="&#x9be;" horiz-adv-x="559" 
d="M354 0h-149v1014q0 170 -164 170h-82v131h107q109 0 159 -72h11q-5 12 -10.5 36.5t-12 75t-6.5 103.5v60h147v-203h246v-131h-246v-1184z" />
    <glyph glyph-name="bnmI" unicode="&#x9bf;" horiz-adv-x="559" 
d="M354 0h-149v1184h-246v131h246v172q0 87 32.5 165.5t92.5 139.5t153.5 97t206.5 36q112 0 223 -25.5t201.5 -67.5t161.5 -88t125 -95l-90 -107q-119 105 -280.5 174.5t-338.5 69.5q-161 0 -249.5 -91.5t-88.5 -226.5v-153h246v-131h-246v-1184z" />
    <glyph glyph-name="bnmII" unicode="&#x9c0;" horiz-adv-x="559" 
d="M354 0h-149v1184h-246v131h242q-12 174 -109 299.5t-253.5 187.5t-356.5 62q-166 0 -246 -43.5t-80 -118.5q0 -59 56.5 -99t193.5 -40q176 0 369 82l22 -11v-319h-139v164q-127 -43 -264 -43q-182 0 -285.5 73.5t-103.5 190.5q0 133 122.5 214t342.5 81q385 0 622 -185
t260 -495h246v-131h-244v-1184z" />
    <glyph glyph-name="bnmU" unicode="&#x9c1;" 
d="M-557 -535q99 0 151 74t52 195v24q-107 58 -205 58q-89 0 -139 -51t-50 -130q0 -74 54 -122t137 -48zM55 -627q-149 186 -266 285q-19 -149 -107 -233t-241 -84q-151 0 -241.5 83.5t-90.5 210.5q0 135 91.5 220.5t230.5 85.5q109 0 215 -45v167h149v-251
q157 -108 367 -357z" />
    <glyph glyph-name="bnmUU" unicode="&#x9c2;" 
d="M166 -614l-103 -84q-48 61 -190 176q-59 -63 -135 -98t-189 -35q-150 0 -239.5 84.5t-89.5 212.5q0 127 90 214t229 91q51 0 107 -8v124h149v-276q-104 37 -217 37q-103 0 -159 -52t-56 -130q0 -76 52 -125t136 -49q184 0 295 190q130 -74 320 -272z" />
    <glyph glyph-name="bnmvR" unicode="&#x9c3;" 
d="M66 -487l-93 -105l-637 320l334 342l125 -70l-227 -238z" />
    <glyph glyph-name="bnmvRR" unicode="&#x9c4;" 
d="M-182 -612l-103 -97l-503 314l313 301l113 -78l-201 -199zM203 -416l-94 -90l-351 217l254 250l113 -67l-162 -162z" />
    <glyph glyph-name="bnmE" unicode="&#x9c7;" horiz-adv-x="555" 
d="M532 94l-75 -121q-167 65 -257.5 232t-90.5 395q0 154 43.5 309.5t113.5 274.5h-307v131h637v-131h-160q-81 -104 -129.5 -263t-48.5 -321q0 -381 274 -506z" />
    <glyph glyph-name="bnmAI" unicode="&#x9c8;" horiz-adv-x="555" 
d="M487 1395q0 -41 -8 -80h117v-131h-160q-81 -104 -129.5 -263t-48.5 -321q0 -381 274 -506l-75 -121q-167 65 -257.5 232t-90.5 395q0 154 43.5 309.5t113.5 274.5h-307v131h371q10 45 10 71q0 77 -57 113.5t-179 50.5q-108 13 -184.5 38.5t-119.5 62.5t-62 79.5t-19 94.5
q0 34 5 59l147 31q-1 -8 -2.5 -21.5t-2.5 -25t-1 -21.5q0 -31 10.5 -54t38 -44.5t79.5 -37t130 -25.5q364 -40 364 -291z" />
    <glyph glyph-name="bnmO" unicode="&#x9cb;" horiz-adv-x="2465" 
d="M532 94l-75 -121q-167 65 -257.5 232t-90.5 395q0 154 43.5 309.5t113.5 274.5h-307v131h637v-131h-160q-81 -104 -129.5 -263t-48.5 -321q0 -381 274 -506zM1141 184q0 -40 -26 -67t-64 -27q-40 0 -66.5 27t-26.5 67q0 37 27 63.5t66 26.5q38 0 64 -26.5t26 -63.5z
M932 338q0 -39 -25.5 -64.5t-64.5 -25.5q-40 0 -65 25t-25 65q0 39 25.5 64.5t64.5 25.5q38 0 64 -26t26 -64zM825 575q0 -38 -25 -63t-65 -25q-38 0 -64 25t-26 63q0 40 26 66.5t64 26.5q39 0 64.5 -26.5t25.5 -66.5zM1401 152q0 -40 -26 -65.5t-66 -25.5t-65 25.5
t-25 65.5t25 65t65 25t66 -25t26 -65zM856 834q0 -38 -26.5 -64.5t-63.5 -26.5q-40 0 -67 26.5t-27 64.5t27 64t67 26q37 0 63.5 -26t26.5 -64zM1649 260q0 -39 -27 -64.5t-66 -25.5t-64.5 25.5t-25.5 64.5q0 38 26 64t64 26q39 0 66 -26t27 -64zM1020 1059q0 -40 -25 -66
t-65 -26t-65 26t-25 66q0 39 25.5 64.5t64.5 25.5t64.5 -25.5t25.5 -64.5zM1796 461q0 -38 -25.5 -64t-62.5 -26q-40 0 -66 26t-26 64q0 40 26 66t66 26q37 0 62.5 -26.5t25.5 -65.5zM1262 1147q0 -40 -25.5 -65t-65.5 -25t-65 25t-25 65t25 65t65 25t65.5 -25t25.5 -65z
M1817 735q0 -39 -26 -64.5t-65 -25.5q-40 0 -65 25t-25 65t25 65t65 25q39 0 65 -25.5t26 -64.5zM1520 1116q0 -37 -25 -63.5t-63 -26.5q-39 0 -66 26.5t-27 63.5q0 40 26.5 66t66.5 26q38 0 63 -26t25 -66zM1714 977q0 -39 -25.5 -64.5t-64.5 -25.5q-38 0 -64 26t-26 64
q0 40 26 66t64 26q40 0 65 -26t25 -66zM2261 0h-150v1014q0 87 -40.5 128.5t-122.5 41.5h-82v131h106q110 0 160 -72h10q-8 22 -18 80.5t-10 134.5v60h147v-203h246v-131h-246v-1184z" />
    <glyph glyph-name="bnmAU" unicode="&#x9cc;" horiz-adv-x="2465" 
d="M532 94l-75 -121q-167 65 -257.5 232t-90.5 395q0 154 43.5 309.5t113.5 274.5h-307v131h637v-131h-160q-81 -104 -129.5 -263t-48.5 -321q0 -381 274 -506zM1141 184q0 -40 -26 -67t-64 -27q-40 0 -66.5 27t-26.5 67q0 37 27 63.5t66 26.5q38 0 64 -26.5t26 -63.5z
M932 338q0 -39 -25.5 -64.5t-64.5 -25.5q-40 0 -65 25t-25 65q0 39 25.5 64.5t64.5 25.5q38 0 64 -26t26 -64zM825 575q0 -38 -25 -63t-65 -25q-38 0 -64 25t-26 63q0 40 26 66.5t64 26.5q39 0 64.5 -26.5t25.5 -66.5zM1401 152q0 -40 -26 -65.5t-66 -25.5t-65 25.5
t-25 65.5t25 65t65 25t66 -25t26 -65zM856 834q0 -38 -26.5 -64.5t-63.5 -26.5q-40 0 -67 26.5t-27 64.5t27 64t67 26q37 0 63.5 -26t26.5 -64zM1649 260q0 -39 -27 -64.5t-66 -25.5t-64.5 25.5t-25.5 64.5q0 38 26 64t64 26q39 0 66 -26t27 -64zM1020 1059q0 -40 -25 -66
t-65 -26t-65 26t-25 66q0 39 25.5 64.5t64.5 25.5t64.5 -25.5t25.5 -64.5zM1796 461q0 -38 -25.5 -64t-62.5 -26q-40 0 -66 26t-26 64q0 40 26 66t66 26q37 0 62.5 -26.5t25.5 -65.5zM1262 1147q0 -40 -25.5 -65t-65.5 -25t-65 25t-25 65t25 65t65 25t65.5 -25t25.5 -65z
M1817 735q0 -39 -26 -64.5t-65 -25.5q-40 0 -65 25t-25 65t25 65t65 25q39 0 65 -25.5t26 -64.5zM1520 1116q0 -37 -25 -63.5t-63 -26.5q-39 0 -66 26.5t-27 63.5q0 40 26.5 66t66.5 26q38 0 63 -26t25 -66zM1714 977q0 -39 -25.5 -64.5t-64.5 -25.5q-38 0 -64 26t-26 64
q0 40 26 66t64 26q40 0 65 -26t25 -66zM2261 0h-150v1184h-245v131h245v63q0 93 -56.5 140t-178.5 47h-98q-92 0 -159 22t-103.5 60.5t-53 83.5t-16.5 98q0 41 4 59l143 31q-1 -8 -2.5 -21.5t-2.5 -25t-1 -21.5q0 -68 43 -110.5t158 -42.5h106q161 0 264 -84t103 -228v-71
h246v-131h-246v-1184z" />
    <glyph glyph-name="bnVirama" unicode="&#x9cd;" 
d="M174 -471l-80 -113l-465 324l80 115z" />
    <glyph glyph-name="bnTAkhanda" unicode="&#x9ce;" horiz-adv-x="1069" 
d="M528 854q90 0 141.5 43t51.5 117q0 73 -55.5 119.5t-151.5 46.5q-85 0 -150.5 -48t-99.5 -131q36 -68 106 -107.5t158 -39.5zM993 -4l-147 -29q4 40 4 80q0 46 -15.5 81t-32.5 56.5t-66.5 46t-77.5 35t-106 36.5q-13 5 -20 7q-74 26 -135 56t-120.5 75.5t-100 100
t-65.5 130.5t-25 165q0 213 115.5 345t310.5 132q152 0 253 -81t101 -218q0 -139 -92 -216t-239 -77q-85 0 -167 33.5t-135 93.5v-14q0 -56 13 -103.5t33 -83t55.5 -67.5t67 -53t82 -44t86.5 -36.5t94 -32.5q72 -25 124 -50t103.5 -65t78.5 -97t27 -130q0 -51 -4 -76z" />
    <glyph glyph-name="bnAUlengthmark" unicode="&#x9d7;" horiz-adv-x="559" 
d="M354 0h-149v1184h-246v131h246v63q0 93 -57 140t-179 47h-98q-92 0 -159 22t-103.5 60.5t-53 83.5t-16.5 98q0 41 4 59l144 31q-1 -8 -2.5 -21.5t-2.5 -25t-1 -21.5q0 -68 42.5 -110.5t157.5 -42.5h107q161 0 263.5 -84t102.5 -228v-71h246v-131h-246v-1184z" />
    <glyph glyph-name="bnDDxA" unicode="&#x9dc;" horiz-adv-x="1368" 
d="M834 -160q0 -45 -29 -73.5t-72 -28.5q-45 0 -73.5 28.5t-28.5 73.5q0 44 29 72.5t73 28.5q43 0 72 -28.5t29 -72.5zM1409 1184h-745v-324q0 -112 96 -112q59 0 155.5 43.5t194.5 134.5q59 -39 106.5 -126.5t47.5 -193.5q0 -214 -144 -347.5t-383 -133.5q-150 0 -273.5 59
t-204.5 160.5t-127.5 233t-53.5 280.5l143 31q10 -290 152 -457.5t366 -167.5q169 0 273 93t104 245q0 86 -35 133q-73 -61 -160 -94t-171 -33q-110 0 -174 68.5t-64 175.5v332h-553v131h1450v-131z" />
    <glyph glyph-name="bnDDHxA" unicode="&#x9dd;" horiz-adv-x="1120" 
d="M614 -160q0 -46 -28 -74t-72 -28q-45 0 -73.5 28.5t-28.5 73.5q0 44 29 72.5t73 28.5t72 -28.5t28 -72.5zM995 600q0 -126 -59.5 -239.5t-172.5 -186t-253 -72.5t-223.5 79.5t-83.5 209.5v793h-244v131h1200v-131h-809v-781q0 -72 41 -116.5t121 -44.5q136 0 236 106
t100 252q0 84 -39 135t-119 51q-76 0 -123 -34l-55 125q30 22 79.5 37.5t100.5 15.5q142 0 222.5 -91t80.5 -239z" />
    <glyph glyph-name="bnYxA" unicode="&#x9df;" horiz-adv-x="1153" 
d="M393 -14q0 -44 -27.5 -72.5t-70.5 -28.5t-70.5 28.5t-27.5 72.5t27.5 72t70.5 28t70.5 -28t27.5 -72zM817 207q-18 265 -18 405v572h-490v-8l260 -275v-115l-307 -237l547 -342h8zM1030 72l-102 -103l-803 500v152l299 229l-277 293v41h-188v131h1235v-131h-246v-1061z
" />
    <glyph glyph-name="bnvRR" unicode="&#x9e0;" horiz-adv-x="1540" 
d="M260 528l477 -311h8q-14 195 -14 399v191q-128 -34 -259.5 -114t-211.5 -165zM1366 334l-139 -72l-350 240v-371l86 -55l-105 -103l-237 154l-142 -137l412 -269l-100 -100l-531 340l246 240l-397 256v141q116 117 290 220t349 145v8q-154 129 -193 164
q-106 -205 -311 -205q-119 0 -188.5 66t-69.5 165q0 91 34 154h150q-41 -80 -41 -139q0 -52 32 -83.5t89 -31.5q79 0 139.5 56.5t106.5 201.5h57q102 -86 188 -166q-10 80 -10 258v107h146v-844l352 -244l6 4q-16 99 -16 311v773h147v-203h215v-131h-215v-850z" />
    <glyph glyph-name="bnvLL" unicode="&#x9e1;" horiz-adv-x="1257" 
d="M1145 537q0 -247 -162 -392t-424 -151l-82 106q162 171 162 392q0 102 -51.5 160.5t-145.5 58.5q-90 0 -143 -46t-53 -133q0 -76 48 -118t124 -54l-45 -129q-121 22 -198 98.5t-77 202.5q0 156 96 237t244 81q149 0 245.5 -100.5t96.5 -255.5q0 -196 -98 -349
q155 33 234 137t79 259q0 88 -24.5 157.5t-65.5 116t-95 84t-113 66.5t-118 57.5t-113 63.5t-95 77.5t-65.5 106.5t-24.5 145q0 40 10 70l147 26q-10 -35 -10 -69q0 -65 24.5 -116.5t66 -86t95.5 -64t113.5 -58t118.5 -60.5t113 -77.5t95.5 -103.5t66 -144.5t24.5 -194.5z
M1280 -326q0 -152 -102.5 -230.5t-284.5 -78.5q-70 0 -139 17l-15 112q95 13 150 58.5t55 125.5q0 95 -88 95q-36 0 -58 -22t-22 -58q0 -47 31 -78l-90 -53q-60 63 -60 137q0 86 55 139t138 53q99 0 155 -59.5t56 -148.5q0 -124 -90 -197q186 24 186 192q0 46 -16.5 91
t-36.5 75t-36.5 71.5t-16.5 80.5q0 70 51 133l102 -51q-28 -38 -28 -80q0 -33 16 -71.5t36 -70t36 -80.5t16 -102z" />
    <glyph glyph-name="bnmvL" unicode="&#x9e2;" 
d="M98 -467q0 -152 -102 -230.5t-283 -78.5q-76 0 -141 16l-14 111q206 30 206 186q0 94 -88 94q-38 0 -60 -22t-22 -58q0 -46 31 -77l-90 -54q-57 60 -57 138q0 87 54 139.5t138 52.5q97 0 154 -61t57 -148q0 -124 -92 -198q186 24 186 194q0 45 -16.5 90t-36.5 75.5
t-36.5 71.5t-16.5 81q0 70 51 133l103 -51q-27 -36 -27 -80q0 -41 25.5 -90.5t51 -108.5t25.5 -125z" />
    <glyph glyph-name="bnmvLL" unicode="&#x9e3;" 
d="M98 -467q0 -152 -102 -230.5t-283 -78.5q-76 0 -141 16l-14 111q206 30 206 186q0 94 -88 94q-38 0 -60 -22t-22 -58q0 -46 31 -77l-90 -54q-57 60 -57 138q0 87 54 139.5t138 52.5q97 0 154 -61t57 -148q0 -124 -92 -198q186 24 186 194q0 45 -16.5 90t-36.5 75.5
t-36.5 71.5t-16.5 81q0 70 51 133l103 -51q-27 -36 -27 -80q0 -14 2.5 -28.5t6 -25t10.5 -27t11.5 -24.5t14.5 -27t14 -26q53 53 125 53q73 0 118.5 -49t45.5 -115q0 -72 -43 -118q54 12 84.5 47.5t30.5 87.5q0 53 -40 124t-40 115q0 53 39 101l76 -41q-21 -27 -21 -60
q0 -31 20 -67.5t40 -80.5t20 -93q0 -102 -69 -163t-208 -61q-33 0 -71 3v8h-2l-6 73q42 12 72 44t30 83q0 34 -20 54t-56 20q-54 0 -92 -51q10 -42 10 -80z" />
    <glyph glyph-name="bnZero" unicode="&#x9e6;" horiz-adv-x="1216" 
d="M1065 666q0 -235 -117.5 -372.5t-345.5 -137.5q-152 0 -255.5 65t-150 175t-46.5 259q0 234 118 371t346 137q115 0 202 -36.5t141 -103.5t81 -156.5t27 -200.5zM305 668q0 -373 309 -373q297 0 297 358q0 371 -309 371q-147 0 -222 -89.5t-75 -266.5z" />
    <glyph glyph-name="bnOne" unicode="&#x9e7;" horiz-adv-x="1077" 
d="M940 420q0 -86 -26 -160t-77.5 -133t-137.5 -93t-197 -34q-191 0 -303.5 93.5t-112.5 234.5q0 161 133 223l88 -100q-33 -14 -52 -46.5t-19 -76.5q0 -78 71 -132.5t193 -54.5q139 0 216 76.5t77 204.5q0 80 -32 145.5t-83 111.5t-113 88.5t-124 86.5t-113 94t-83 123
t-32 162q0 38 8 70l150 24q-9 -54 -9 -72q0 -74 32 -136t83 -108t112.5 -89t123 -91t112.5 -102.5t83 -133.5t32 -175z" />
    <glyph glyph-name="bnTwo" unicode="&#x9e8;" horiz-adv-x="978" 
d="M915 53l-100 -106l-754 459l93 120l36 -20q96 -49 224 -49q123 0 202.5 51t79.5 154q0 58 -27.5 106.5t-71.5 83t-97 66.5t-106.5 63.5t-97.5 65.5t-72 82t-29 104q0 38 8 70l147 24q-8 -48 -8 -72q0 -39 28 -73.5t72 -63t98 -58t108 -66.5t98 -80.5t72 -108.5t28 -143
q0 -145 -107.5 -236.5t-306.5 -87.5v-8q149 -67 287 -152z" />
    <glyph glyph-name="bnThree" unicode="&#x9e9;" horiz-adv-x="1484" 
d="M1288 668q0 -117 -32.5 -219t-95.5 -181t-164 -124.5t-228 -45.5q-135 0 -242.5 51.5t-179 140t-119.5 213t-69 264.5t-21 300l139 43q0 -150 15 -276t50.5 -239t91 -191.5t140.5 -124.5t195 -46q175 0 274 119t99 318q0 56 -6.5 105t-22.5 96t-40.5 80.5t-63.5 54
t-88 20.5q-76 0 -121 -49.5t-45 -128.5q0 -112 94 -176l-111 -84q-131 86 -131 264q0 63 19.5 118.5t57 99.5t97.5 69.5t135 25.5q81 0 145.5 -28.5t106.5 -76.5t70 -113t39.5 -134t11.5 -145z" />
    <glyph glyph-name="bnFour" unicode="&#x9ea;" horiz-adv-x="1026" 
d="M272 991q0 -91 65.5 -156t162.5 -100q62 27 101.5 48t82 52.5t63.5 70.5t21 87q0 85 -69 140t-179 55q-108 0 -178 -53.5t-70 -143.5zM942 326q0 -111 -56.5 -191.5t-148.5 -119t-209 -38.5q-194 0 -316 94t-122 257q0 122 68.5 201t191.5 141q-95 48 -159 130t-64 195
q0 149 109 238.5t280 89.5q176 0 286.5 -93.5t110.5 -232.5q0 -119 -61 -194t-176 -137q266 -113 266 -340zM524 115q120 0 194.5 57t74.5 158q0 83 -73.5 154t-191.5 110q-9 -4 -28 -12q-44 -19 -66 -29t-58.5 -29.5t-55.5 -36.5t-40 -41.5t-30.5 -54.5t-9.5 -65
q0 -98 80 -154.5t204 -56.5z" />
    <glyph glyph-name="bnFive" unicode="&#x9eb;" horiz-adv-x="1247" 
d="M1087 115l-26 -115q-468 0 -713.5 167.5t-245.5 463.5q0 261 180 445.5t476 244.5l63 -107q-6 -34 -6 -65q0 -65 21.5 -111.5t63.5 -75.5t91.5 -45t118.5 -26l39 -137q-128 -47 -195 -127.5t-67 -184.5q0 -105 55 -189t145 -138zM254 631q0 -109 46 -196.5t130.5 -147.5
t197.5 -97t253 -51q-66 62 -104 146.5t-38 171.5q0 210 205 352q-134 31 -200 122.5t-68 219.5q-209 -68 -315.5 -206t-106.5 -314z" />
    <glyph glyph-name="bnSix" unicode="&#x9ec;" horiz-adv-x="1302" 
d="M1231 535q0 -214 -139.5 -348t-378.5 -134q-143 0 -268.5 58t-212.5 155.5t-139.5 226.5t-57.5 271l151 33q4 -144 50.5 -260.5t121 -189t166.5 -111.5t191 -39q168 0 266 91.5t98 243.5q0 104 -32 148q-69 -68 -133.5 -98.5t-145.5 -30.5q-110 0 -175 68.5t-65 175.5
v209q0 88 -18 127.5t-78 39.5q-75 0 -125 -57l-86 115q33 35 88.5 60.5t122.5 25.5q121 0 185.5 -73t64.5 -216v-223q0 -111 96 -111q54 0 122.5 39.5t174.5 136.5q60 -38 108 -128t48 -205z" />
    <glyph glyph-name="bnSeven" unicode="&#x9ed;" horiz-adv-x="1157" 
d="M485 618q139 0 256 82v293q0 178 -184 178q-128 0 -220.5 -101t-92.5 -243q0 -101 62.5 -155t178.5 -54zM1202 86q-32 -35 -87.5 -60.5t-123.5 -25.5q-122 0 -186 72.5t-64 216.5v262q-125 -76 -272 -76q-107 0 -191 37.5t-136 118.5t-52 196q0 206 132 347t341 141
q157 0 243.5 -84.5t86.5 -233.5v-686q0 -88 19 -129t79 -41q73 0 125 60z" />
    <glyph glyph-name="bnEight" unicode="&#x9ee;" horiz-adv-x="1419" 
d="M526 143q127 0 212 110.5t85 262.5q0 95 -59 147t-176 52q-132 0 -244 -78v-315q0 -89 47.5 -134t134.5 -45zM979 506q0 -100 -32 -191.5t-90 -161.5t-145.5 -111.5t-191.5 -41.5q-153 0 -240 84t-87 231v689q0 87 -19.5 127t-79.5 40q-75 0 -125 -57l-86 115
q33 35 88.5 60.5t122.5 25.5q122 0 186 -72.5t64 -216.5v-242q129 74 262 74q177 0 275 -94q46 65 153 65h41q76 0 106.5 25.5t30.5 95.5q0 1 -6 49l140 -34q4 -28 4 -62q0 -217 -224 -217h-43q-89 0 -118 -63q14 -49 14 -117z" />
    <glyph glyph-name="bnNine" unicode="&#x9ef;" horiz-adv-x="1292" 
d="M1184 471q0 -211 -127 -336t-332 -141l-92 94q53 90 53 221q0 124 -67 192t-177 68q-106 0 -167.5 -65.5t-61.5 -171.5q0 -95 43.5 -148.5t122.5 -62.5l-51 -131q-119 18 -189.5 107.5t-70.5 234.5q0 174 101.5 275.5t272.5 101.5q173 0 279 -104t106 -286
q0 -90 -26 -172q112 39 172.5 122.5t60.5 203.5q0 89 -49 159t-127 115.5t-172.5 85t-189.5 77t-173 79.5t-127 105t-49 143q0 34 9 70l149 26q-8 -28 -8 -71q0 -47 30.5 -86.5t81.5 -68.5t117.5 -56t140 -55t147.5 -60t140.5 -75.5t117.5 -96t81.5 -128t30.5 -165.5z" />
    <glyph glyph-name="asRA" unicode="&#x9f0;" horiz-adv-x="1132" 
d="M1012 76l-107 -107l-801 525v135q98 99 299 224t379 181v150h-823v131h1215v-131h-246v-1055zM254 563l537 -348h8q-9 85 -13 221l-378 250q-98 -67 -154 -123zM514 754l268 -174q0 207 2 307q-130 -47 -270 -133z" />
    <glyph glyph-name="asWA" unicode="&#x9f1;" horiz-adv-x="1124" 
d="M1006 76l-105 -105l-797 523v137q98 98 295.5 220.5t370.5 178.5v154h-811v131h1206v-131h-243v-1053zM530 31l-96 -105l-274 174l96 107zM254 563l524 -342h8q-16 183 -16 412v248q-123 -45 -281.5 -143.5t-234.5 -174.5z" />
    <glyph glyph-name="bnTaka" unicode="&#x9f2;" horiz-adv-x="847" 
d="M797 152l-142 -33q-92 754 -620 788l24 144q141 -9 256.5 -59t198 -131t142.5 -192.5t94 -239.5t47 -277z" />
    <glyph glyph-name="bnBangladeshitaka" unicode="&#x9f3;" horiz-adv-x="1220" 
d="M1092 604q0 -118 -33 -225t-94 -192.5t-159 -136t-218 -50.5q-148 0 -233 79t-85 220v457h-180v131h180v133q0 83 -32.5 120.5t-114.5 37.5h-33v137q20 2 62 2q135 0 201.5 -78t66.5 -213v-139h121v-131h-121v-457q0 -80 44.5 -120t123.5 -40q108 0 190.5 63.5t124 168
t41.5 231.5q0 81 -37 127.5t-110 46.5q-61 0 -105 -41l-80 117q77 66 185 66q132 0 213.5 -85.5t81.5 -228.5z" />
    <glyph glyph-name="bnNumeratorone" unicode="&#x9f4;" horiz-adv-x="815" 
d="M778 1116q-219 -699 -624 -1046l-88 104q207 199 341 432.5t242 556.5z" />
    <glyph glyph-name="bnNumeratortwo" unicode="&#x9f5;" horiz-adv-x="1396" 
d="M1307 1116q-218 -698 -627 -1046l-109 94q52 88 52 219q0 125 -59 193.5t-165 68.5q-87 0 -133.5 -47.5t-46.5 -130.5q0 -43 22.5 -81t65.5 -62l-110 -80q-61 36 -94 98t-33 135q0 135 87.5 222t239.5 87q170 0 265.5 -103.5t95.5 -285.5q0 -31 -2 -47q139 169 235.5 360
t186.5 453z" />
    <glyph glyph-name="bnNumeratorthree" unicode="&#x9f6;" horiz-adv-x="1294" 
d="M1165 1217q0 -107 -7 -209t-26.5 -223t-51 -224t-85.5 -202.5t-124 -169t-172 -112t-226 -42.5q-103 0 -183.5 27.5t-132 90.5t-51.5 154q0 106 65.5 172.5t209.5 75.5q112 7 158.5 58.5t46.5 140.5q0 66 -34 107.5t-106 41.5q-64 0 -96.5 -35t-32.5 -96q0 -56 41 -106
l-118 -64q-66 72 -66 174q0 116 72 189t198 73q140 0 209.5 -81.5t69.5 -204.5q0 -140 -73.5 -227t-221.5 -91q-91 -3 -134.5 -33.5t-43.5 -93.5q0 -68 63 -103.5t156 -35.5q106 0 193.5 44t147.5 122.5t104.5 179.5t69.5 224t36.5 244.5t11.5 252.5z" />
    <glyph glyph-name="bnNumeratorfour" unicode="&#x9f7;" horiz-adv-x="559" 
d="M354 0h-149v1315h149v-1315z" />
    <glyph glyph-name="bnNumeratoroneless" unicode="&#x9f8;" horiz-adv-x="1159" 
d="M975 129h-156v643l-487 -426l-146 68v755h150v-624l504 440l135 -76v-780z" />
    <glyph glyph-name="bnDenominatorsixteen" unicode="&#x9f9;" horiz-adv-x="1085" 
d="M920 666q0 -167 -103.5 -269t-267.5 -102q-163 0 -265 102t-102 269q0 168 101.5 267t265.5 99q165 0 268 -99t103 -267zM332 666q0 -106 60 -168t157 -62q101 0 161 62t60 168q0 105 -59.5 166t-161.5 61q-96 0 -156.5 -62t-60.5 -165z" />
    <glyph glyph-name="bnIsshar" unicode="&#x9fa;" horiz-adv-x="1296" 
d="M1243 1016q-28 -82 -49 -137t-57 -133t-72 -130.5t-90 -110t-114 -92t-140.5 -57t-173.5 -22.5q-176 0 -304 88.5t-194 230.5l123 68q21 -42 49 -79.5t72.5 -78.5t110.5 -65.5t143 -24.5q88 0 164 32t133 84.5t108 132.5t87.5 162t72.5 187zM647 848q0 -43 -29 -70.5
t-73 -27.5q-43 0 -72 28t-29 70q0 45 29 73.5t72 28.5q45 0 73.5 -28.5t28.5 -73.5z" />
    <glyph glyph-name="bnGanda" unicode="&#x9fb;" horiz-adv-x="552" 
d="M764 -209l-86 -117l-430 310q-211 151 -211 354q0 150 95.5 246.5t283.5 113.5l37 -137q-269 -31 -269 -225q0 -77 41 -132.5t117 -109.5z" />
    <glyph glyph-name="uni200C" unicode="&#x200c;" 
d="M49 -471h-96v2132h96v-2132z" />
    <glyph glyph-name="uni200D" unicode="&#x200d;" 
d="M262 1214l-67 -67l-148 153v-1771h-96v1771l-141 -149l-68 68l190 190l-194 195l67 67l195 -194l197 194l65 -65l-196 -197z" />
    <glyph glyph-name="endash" unicode="&#x2013;" horiz-adv-x="843" 
d="M842 539h-840v143h840v-143z" />
    <glyph glyph-name="emdash" unicode="&#x2014;" horiz-adv-x="1376" 
d="M1374 539h-1372v143h1372v-143z" />
    <glyph glyph-name="quoteleft" unicode="&#x2018;" horiz-adv-x="473" 
d="M365 1085q0 -53 -35 -87.5t-90 -34.5q-66 0 -108 48t-42 134q0 123 79 218t177 130l53 -84q-70 -29 -110.5 -72t-40.5 -94q0 -48 28 -80t89 -63v-15z" />
    <glyph glyph-name="quoteright" unicode="&#x2019;" horiz-adv-x="473" 
d="M385 1313q0 -124 -79.5 -219.5t-178.5 -128.5l-51 82q70 30 110.5 73t40.5 94q0 49 -27.5 81t-88.5 63v14q0 53 35 88t90 35q65 0 107 -48t42 -134z" />
    <glyph glyph-name="quotesinglbase" unicode="&#x201a;" horiz-adv-x="493" 
d="M395 61q0 -124 -79.5 -219.5t-178.5 -130.5l-51 84q70 30 111 73.5t41 94.5q0 48 -28 80t-89 63v15q0 53 35 88t90 35q65 0 107 -48.5t42 -134.5z" />
    <glyph glyph-name="quotedblleft" unicode="&#x201c;" horiz-adv-x="886" 
d="M776 1085q0 -53 -35 -87.5t-90 -34.5q-65 0 -107 48t-42 134q0 124 79.5 218.5t178.5 129.5l51 -84q-70 -29 -111 -72t-41 -94q0 -48 28 -80t89 -63v-15zM365 1085q0 -53 -35 -87.5t-90 -34.5q-66 0 -108 48t-42 134q0 123 79 218t177 130l53 -84q-70 -29 -110.5 -72
t-40.5 -94q0 -48 28 -80t89 -63v-15z" />
    <glyph glyph-name="quotedblright" unicode="&#x201d;" horiz-adv-x="886" 
d="M797 1313q0 -125 -79 -220t-177 -130l-54 84q70 29 111 71.5t41 93.5q0 49 -28 81t-89 63v14q0 53 35 89t90 36q65 0 107.5 -48.5t42.5 -133.5zM385 1313q0 -125 -79 -220t-179 -130l-51 84q70 29 110.5 71.5t40.5 93.5q0 49 -27.5 81t-88.5 63v14q0 53 35 89t90 36
q65 0 107 -48.5t42 -133.5z" />
    <glyph glyph-name="quotedblbase" unicode="&#x201e;" horiz-adv-x="905" 
d="M805 61q0 -124 -78.5 -219.5t-177.5 -130.5l-53 84q70 30 110.5 73.5t40.5 94.5q0 49 -27.5 80.5t-89.5 62.5v15q0 53 36 88t91 35q64 0 106 -48.5t42 -134.5zM393 61q0 -124 -78.5 -219.5t-177.5 -130.5l-53 84q70 30 111 73.5t41 94.5q0 49 -27.5 80.5t-89.5 62.5v15
q0 53 36 88t91 35q64 0 105.5 -48.5t41.5 -134.5z" />
    <glyph glyph-name="dagger" unicode="&#x2020;" horiz-adv-x="1073" 
d="M625 -272h-174l18 1245l-379 -25v176l379 -24l-27 444h187l-29 -444l383 24v-176l-381 25z" />
    <glyph glyph-name="daggerdbl" unicode="&#x2021;" horiz-adv-x="1073" 
d="M631 -274h-187l27 442l-381 -23v177l377 -27l-10 340l10 338l-375 -25v176l377 -24l-25 444h185l-27 -444l381 24v-176l-379 25l12 -338l-10 -338l377 25v-177l-381 23z" />
    <glyph glyph-name="bullet" unicode="&#x2022;" horiz-adv-x="925" 
d="M735 727q0 -115 -78 -193.5t-192 -78.5q-120 0 -197.5 77.5t-77.5 194.5q0 115 77.5 192.5t195.5 77.5q117 0 194.5 -77.5t77.5 -192.5z" />
    <glyph glyph-name="ellipsis" unicode="&#x2026;" horiz-adv-x="1603" 
d="M1501 123q0 -51 -37 -87t-92 -36q-51 0 -87 36t-36 87q0 55 36 92t87 37q56 0 92.5 -37t36.5 -92zM354 123q0 -51 -37 -87t-92 -36q-51 0 -87 36t-36 87q0 55 36 92t87 37q55 0 92 -37t37 -92zM928 123q0 -51 -37 -87t-92 -36q-52 0 -88.5 36t-36.5 87q0 55 36 92t89 37
q55 0 92 -37t37 -92z" />
    <glyph glyph-name="perthousand" unicode="&#x2030;" horiz-adv-x="2461" 
d="M1419 1309l-1013 -1266l-99 80l1016 1266zM717 1051q0 -195 -86.5 -295.5t-227.5 -100.5q-142 0 -223.5 96.5t-81.5 292.5q0 189 87 290.5t229 101.5q139 0 221 -97.5t82 -287.5zM238 1047q0 -277 174 -277q85 0 126.5 64.5t41.5 209.5q0 275 -177 275
q-82 0 -123.5 -64.5t-41.5 -207.5zM1597 377q0 -195 -86 -296t-227 -101q-142 0 -223.5 97.5t-81.5 293.5q0 189 86.5 289t228.5 100q139 0 221 -96.5t82 -286.5zM1118 373q0 -277 174 -277q85 0 126.5 64.5t41.5 208.5q0 276 -176 276q-82 0 -124 -65t-42 -207zM2363 377
q0 -195 -86 -296t-227 -101q-142 0 -223.5 97.5t-81.5 293.5q0 189 86.5 289t228.5 100q139 0 221 -96.5t82 -286.5zM1882 373q0 -141 46 -209t128 -68q86 0 128 64.5t42 208.5q0 276 -178 276q-166 0 -166 -272z" />
    <glyph glyph-name="guilsinglleft" unicode="&#x2039;" horiz-adv-x="606" 
d="M514 203l-104 -80l-314 430l314 434l104 -82l-242 -352z" />
    <glyph glyph-name="guilsinglright" unicode="&#x203a;" horiz-adv-x="606" 
d="M514 553l-313 -430l-105 80l242 350l-242 352l105 82z" />
    <glyph glyph-name="fraction" unicode="&#x2044;" horiz-adv-x="362" 
d="M721 1356l-983 -1338l-92 60l981 1343z" />
    <glyph glyph-name="Euro" unicode="&#x20ac;" horiz-adv-x="1224" 
d="M1141 104q-120 -120 -375 -120q-444 0 -510 512h-176v127h166v163h-166v129h180q42 248 178 382.5t359 134.5q78 0 143.5 -12.5t108 -33.5t67 -38t41.5 -35l-102 -129q-53 47 -115.5 74.5t-159.5 27.5q-143 0 -237.5 -93.5t-124.5 -277.5h489l-33 -129h-468
q-3 -38 -3 -77q0 -45 3 -86h430l-31 -127h-385q60 -367 368 -367q66 0 121 16t82 33t60 45z" />
    <glyph glyph-name="indianrupee" unicode="&#x20b9;" horiz-adv-x="980" 
d="M739 0h-184l-371 463l-114 123l39 125q81 -21 156.5 -16t134.5 28.5t97.5 77t45.5 129.5h-459v131h446q-25 71 -87.5 108t-143.5 37h-215v131h887l-62 -131h-325v-8q69 -45 98 -137h289l-62 -131h-213q-6 -88 -46.5 -158t-101.5 -111.5t-133.5 -62t-146.5 -16.5l-2 -7
q23 -24 158 -180l315 -379v-16z" />
    <glyph glyph-name="trademark" unicode="&#x2122;" horiz-adv-x="1226" 
d="M621 872h-93v564h158l139 -410l138 410h157v-564h-96v291q0 37 2 96.5t2 77.5h-8l-152 -424h-88l-153 433h-9q0 -20 1.5 -81.5t1.5 -101.5v-291zM274 874h-98v482h-164v80h422v-80h-160v-482z" />
    <glyph glyph-name="minus" unicode="&#x2212;" horiz-adv-x="1081" 
d="M1018 625h-957v141h957v-141z" />
    <glyph glyph-name="uni25CC" unicode="&#x25cc;" horiz-adv-x="1351" 
d="M586 184q0 -40 -26 -67t-64 -27q-40 0 -66.5 27t-26.5 67q0 37 27 63.5t66 26.5q38 0 64 -26.5t26 -63.5zM377 338q0 -39 -25.5 -64.5t-64.5 -25.5q-40 0 -65 25t-25 65q0 39 25.5 64.5t64.5 25.5q38 0 64 -26t26 -64zM270 575q0 -38 -25 -63t-65 -25q-38 0 -64 25
t-26 63q0 40 26 66.5t64 26.5q39 0 64.5 -26.5t25.5 -66.5zM846 152q0 -40 -26 -65.5t-66 -25.5t-65 25.5t-25 65.5t25 65t65 25t66 -25t26 -65zM301 834q0 -38 -26.5 -64.5t-63.5 -26.5q-40 0 -67 26.5t-27 64.5t27 64t67 26q37 0 63.5 -26t26.5 -64zM1094 260
q0 -39 -27 -64.5t-66 -25.5t-64.5 25.5t-25.5 64.5q0 38 26 64t64 26q39 0 66 -26t27 -64zM465 1059q0 -40 -25 -66t-65 -26t-65 26t-25 66q0 39 25.5 64.5t64.5 25.5t64.5 -25.5t25.5 -64.5zM1241 461q0 -38 -25.5 -64t-62.5 -26q-40 0 -66 26t-26 64q0 40 26 66t66 26
q37 0 62.5 -26.5t25.5 -65.5zM707 1147q0 -40 -25.5 -65t-65.5 -25t-65 25t-25 65t25 65t65 25t65.5 -25t25.5 -65zM1262 735q0 -39 -26 -64.5t-65 -25.5q-40 0 -65 25t-25 65t25 65t65 25q39 0 65 -25.5t26 -64.5zM965 1116q0 -37 -25 -63.5t-63 -26.5q-39 0 -66 26.5
t-27 63.5q0 40 26.5 66t66.5 26q38 0 63 -26t25 -66zM1159 977q0 -39 -25.5 -64.5t-64.5 -25.5q-38 0 -64 26t-26 64q0 40 26 66t64 26q40 0 65 -26t25 -66z" />
    <glyph glyph-name="bnK_SSA" horiz-adv-x="1783" 
d="M1352 713h-88v-719h-140q-35 137 -165.5 242t-301.5 122q-24 -82 -68.5 -119.5t-92.5 -37.5q-53 0 -84 29t-31 81q0 55 42 101t114 67v43q0 106 -59 175.5t-152 90.5q-22 -79 -68 -118t-94 -39q-51 0 -82 30t-31 82q0 57 41 102.5t113 65.5q-3 163 -123 273h-123v131
h1866v-131h-561v-334h84q165 0 262.5 -83.5t97.5 -223.5q0 -117 -54 -198.5t-145 -127.5l-96 111q67 29 108.5 83t41.5 132q0 86 -57 128t-154 42zM1128 246q-14 172 -14 409v58h-149q-138 0 -224 85t-86 236v150h-403q88 -126 88 -264q139 -20 238.5 -127.5t99.5 -266.5
v-37q146 -11 273.5 -88t176.5 -155zM963 850h151v334h-313v-152q0 -182 162 -182z" />
    <glyph glyph-name="bnJ_NYA" horiz-adv-x="1697" 
d="M717 713l264 -19q-96 71 -147.5 200.5t-59.5 289.5h-6q-68 -77 -123 -188.5t-55 -186.5q0 -88 127 -96zM1331 150q-169 0 -262 131q-43 -94 -135 -149.5t-221 -55.5q-132 0 -248 60.5t-197.5 162.5t-130.5 237.5t-53 284.5l141 41q3 -175 64.5 -321t172 -233t247.5 -87
q119 0 186.5 60t67.5 153q0 60 -27 129l-236 12q-121 8 -189.5 64.5t-68.5 161.5q0 158 150 383h-633v131h1780v-131h-821q8 -204 102 -330q42 95 117.5 149t183.5 54q114 0 184 -67.5t70 -170.5q0 -74 -37 -126t-96 -75v-8q64 -22 108.5 -74t44.5 -133q0 -109 -72 -181
t-192 -72zM1090 614q0 -153 60.5 -243t172.5 -90q63 0 100 37.5t37 91.5q0 65 -43 102t-121 37h-41v119h35q70 0 109 39t39 106q0 53 -33.5 84t-97.5 31q-86 0 -151.5 -80.5t-65.5 -233.5z" />
    <glyph glyph-name="bnNull" 
 />
    <glyph glyph-name="bnReph" 
d="M279 1819l-558 -396l-75 115l557 389z" />
    <glyph glyph-name="bnRAc2" 
d="M-205 -401h-139q-7 47 -19 83.5t-35 68.5t-61.5 49.5t-91.5 17.5q-40 0 -111.5 -6.5t-111.5 -6.5q-88 0 -154 26.5t-105.5 76t-60 112.5t-24.5 142l149 37q-2 -112 46 -183t149 -71q43 0 110 5t105 5q152 0 221 -117h8q-22 128 -22 234v112h147v-585z" />
    <glyph glyph-name="bnYAc2" horiz-adv-x="518" 
d="M393 319q0 -121 -48.5 -221t-137.5 -170l-117 92q85 70 120.5 145t35.5 169q0 68 -17.5 145.5t-38 136.5t-38 139.5t-17.5 155.5q0 168 117 265v8h-293v131h600v-131h-22q-48 0 -90.5 -15.5t-78.5 -47.5t-57.5 -88t-21.5 -130q0 -83 26 -180.5t52 -201.5t26 -202z" />
    <glyph glyph-name="bnBAc2" 
d="M-86 -481l-109 -103l-716 375v150q116 98 264.5 176t296.5 119v32h145v-688zM-344 -348h8q-14 203 -14 405v35q-220 -79 -416 -219z" />
    <glyph glyph-name="bnK" horiz-adv-x="1339" 
d="M1378 1184h-583v-74q213 -9 331.5 -104.5t118.5 -239.5q0 -117 -55.5 -198t-147.5 -128l-92 111q67 27 109.5 82t42.5 133q0 100 -79.5 154t-227.5 59v-582l-88 2l-613 277v145q107 107 249.5 183t305.5 98v82h-690v131h1419v-131zM655 575h9q-15 218 -15 394
q-115 -22 -223.5 -79.5t-187.5 -129.5z" />
    <glyph glyph-name="bnKH" horiz-adv-x="1204" 
d="M1024 303h-125l-823 307v146q172 2 286.5 27t181 83.5t66.5 151.5q0 83 -55 125q-46 -104 -124 -156.5t-171 -52.5q-114 0 -180 65.5t-66 171.5q0 62 29 144h141q-34 -66 -34 -139q0 -119 118 -119q69 0 126.5 60.5t115.5 197.5h53q84 -52 133 -130t49 -167
q0 -155 -104 -243t-313 -116v-8l553 -211l8 2q-12 187 -12 437v639h147v-203h221v-131h-221v-881z" />
    <glyph glyph-name="bnG" horiz-adv-x="1245" 
d="M1040 393h-141v389q0 106 -45.5 197.5t-135.5 150t-206 58.5q-117 0 -201 -59.5t-125 -137.5q35 18 87 28.5t96 10.5q120 0 200 -69t80 -191q0 -110 -78.5 -202t-203.5 -158l-99 108q113 59 174.5 120.5t61.5 139.5q0 66 -43.5 99.5t-118.5 33.5q-120 0 -221 -53
l-103 100q42 151 180 257t308 106q73 0 138.5 -17t109 -42t80 -57.5t55 -57.5t31.5 -49h8q-4 10 -10.5 49t-12.5 112.5t-6 147.5v111h141v-203h263v-131h-263v-791z" />
    <glyph glyph-name="bnGH" horiz-adv-x="1202" 
d="M997 264h-139l-739 213v144l102 63q34 22 66 39.5t49.5 25.5t33.5 15t19 8v8q-134 7 -206 73t-72 175q0 88 49 156h-201v131h1284v-131h-246v-920zM862 401h8q-16 180 -16 406v377h-530q-74 -58 -74 -154q0 -77 51.5 -116.5t136.5 -39.5q65 0 112.5 15.5t104.5 50.5
l62 -119l-430 -258z" />
    <glyph glyph-name="bnNG" horiz-adv-x="1368" 
d="M768 950q81 0 125.5 38.5t44.5 101.5q0 55 -41 92t-109 37q-151 0 -151 -183v-63q64 -23 131 -23zM1260 565q0 -186 -135 -296.5t-373 -110.5q-149 0 -273.5 53.5t-208.5 145t-133 211.5t-57 255l139 35q10 -138 56.5 -247t119 -177.5t164 -104.5t195.5 -36
q173 0 266.5 74.5t93.5 193.5q0 83 -31 127q-90 -67 -170.5 -100t-169.5 -33q-113 0 -176 66t-63 176v106q-83 49 -148 123.5t-104 157.5h-293v131h389q19 -70 60 -141t100 -123q3 139 76.5 212.5t197.5 73.5q125 0 207 -70t82 -180q0 -124 -84 -190t-219 -66q-61 0 -131 17
v-45q0 -119 115 -119q146 0 366 190q59 -46 100.5 -126t41.5 -183z" />
    <glyph glyph-name="bnC" horiz-adv-x="972" 
d="M297 571q0 -120 127 -120q109 0 202 77t93 187q0 64 -33 101.5t-133 72.5l-102 37q-109 38 -154 98h-8q0 -14 4 -106t4 -201v-146zM1014 1184h-709q19 -40 57.5 -66.5t102.5 -50.5l137 -51q136 -50 198 -116.5t62 -184.5q0 -75 -34 -147t-91.5 -127.5t-140 -89.5
t-174.5 -34q-124 0 -195 66.5t-71 181.5v619h-197v131h1055v-131z" />
    <glyph glyph-name="bnCH" horiz-adv-x="1159" 
d="M283 762q0 -100 110 -100q83 0 136 55t53 123q0 40 -34 67t-78 39t-100 32.5t-87 45.5v-262zM711 840q0 -120 -91 -210.5t-229 -90.5q-110 0 -175.5 60t-65.5 153v432h-191v131h1241v-131h-932q15 -32 58.5 -55t119.5 -48.5t113 -42.5q58 17 121 17q155 0 259.5 -97
t104.5 -251q0 -191 -136.5 -295.5t-407.5 -114.5v-8q84 -22 272 -121l318 -166l-97 -102q-321 175 -471.5 250.5t-220.5 99t-151 31.5v122h229q264 0 395 78.5t131 225.5q0 98 -59.5 154.5t-153.5 64.5q19 -40 19 -86z" />
    <glyph glyph-name="bnJ" horiz-adv-x="1521" 
d="M1341 166h-135v192q0 95 18 187t32.5 132.5t25.5 61.5q-176 4 -308.5 108.5t-158.5 239.5q-5 -3 -29.5 -18t-34.5 -21.5t-33 -21.5t-34.5 -24t-30 -24.5t-28 -27.5t-20 -27.5t-15 -30.5t-4.5 -30q0 -46 33 -66.5t102 -25.5l213 -16q43 -37 69.5 -97.5t26.5 -121.5
q0 -144 -103 -240t-280 -96q-127 0 -239 57.5t-191.5 154.5t-126.5 227.5t-51 274.5l135 39q3 -170 63 -311t167.5 -224t240.5 -83q114 0 177 55.5t63 136.5q0 63 -33 105l-174 14q-238 21 -238 205q0 44 19.5 86.5t47 74.5t71 66.5t78.5 56.5t83 50h-780v131h1604v-131
h-641q10 -58 37 -111.5t73.5 -102.5t124.5 -78.5t176 -29.5h39l66 -100q-97 -170 -97 -410v-186z" />
    <glyph glyph-name="bnJH" horiz-adv-x="1398" 
d="M254 758l420 -215h8q-14 186 -14 387v55q-217 -95 -414 -227zM1229 502l-103 -27l-323 172v-270h-101l-577 305v149q253 183 543 299v54h-709v131h844v-522l291 -154v879h135v-203h211v-131h-211v-682z" />
    <glyph glyph-name="bnNY" horiz-adv-x="1536" 
d="M1038 246h-133q0 100 -76.5 148.5t-261.5 51.5q-242 4 -359.5 88t-117.5 228q0 90 43 172l139 -35q-36 -61 -36 -141q0 -86 74.5 -130.5t262.5 -47.5q234 -5 336 -91h9q-19 112 -19 297v289q0 55 -22 83t-74 28q-98 0 -180 -79.5t-82 -170.5q0 -41 23.5 -64.5t64.5 -23.5
q34 0 65.5 13t46.5 28l58 -115q-71 -55 -176 -55q-103 0 -165.5 59t-62.5 154q0 67 34 136t89.5 124t133 90t159.5 35q147 0 195 -111q30 46 91 80.5t140 34.5q108 0 173 -59.5t65 -155.5q0 -57 -29.5 -102t-83.5 -68v-8q61 -21 96 -66t35 -110q0 -99 -65.5 -162.5
t-178.5 -63.5q-61 0 -124 30t-101 67q14 -52 14 -150v-227zM1034 930q0 -123 56 -200t151 -77q52 0 81.5 30t29.5 73q0 52 -35 79t-100 27h-46v129h39q56 0 89.5 30.5t33.5 80.5q0 40 -28 66t-80 26q-73 0 -132 -69t-59 -195z" />
    <glyph glyph-name="bnTT" horiz-adv-x="1048" 
d="M926 1405q0 -28 -8 -90h172v-131h-768v-553q0 -77 44.5 -117.5t127.5 -40.5q131 0 212.5 80t81.5 201q0 166 -141 166q-79 0 -125 -66l-82 119q80 88 207 88q129 0 208 -83.5t79 -223.5q0 -181 -125.5 -300.5t-319.5 -119.5q-137 0 -223 75t-86 207v568h-221v131h815
q10 48 10 82q0 84 -53.5 121.5t-171.5 37.5h-237q-89 0 -154 21.5t-100 59t-50.5 80.5t-15.5 95q0 40 4 58l135 28q-6 -60 -6 -65q0 -150 197 -150h248q155 0 250.5 -71.5t95.5 -206.5z" />
    <glyph glyph-name="bnTTH" horiz-adv-x="1163" 
d="M1038 555q0 -112 -49 -205.5t-148 -152t-229 -58.5q-127 0 -234 64t-168.5 168.5t-66.5 226.5q184 48 270.5 144.5t86.5 267.5v151l-23 23h-518v131h430q-123 141 -123 282q0 137 97 220t243 77l29 -131q-98 9 -159.5 -39.5t-61.5 -134.5q0 -117 137 -274h651v-131h-557
q63 -65 87 -90.5t72 -77t65.5 -73.5t51 -64t45 -65t30.5 -59t25 -64.5t11.5 -63.5t5.5 -72zM309 518q3 -36 25 -77t58.5 -79.5t96 -64t127.5 -25.5q129 0 205 81.5t76 199.5q0 63 -20 122.5t-59.5 116.5t-76.5 100.5t-94 104.5q-15 15 -22 23q6 -100 -15.5 -183.5
t-55.5 -135t-83 -92t-85.5 -59t-76.5 -32.5z" />
    <glyph glyph-name="bnDD" horiz-adv-x="1306" 
d="M1348 1184h-723v-234q0 -108 94 -108q59 0 145 44t180 128q59 -39 106.5 -118.5t47.5 -190.5q0 -202 -138.5 -325.5t-369.5 -123.5q-146 0 -265 58.5t-196.5 159t-122 228t-51.5 271.5l142 28q10 -280 145 -445t350 -165q162 0 263.5 89t101.5 222q0 81 -37 136
q-158 -127 -309 -127q-105 0 -166.5 65.5t-61.5 167.5v240h-524v131h1389v-131z" />
    <glyph glyph-name="bnDDH" horiz-adv-x="1048" 
d="M934 754q0 -181 -125.5 -300.5t-319.5 -119.5q-137 0 -223 75t-86 207v568h-221v131h1131v-131h-768v-553q0 -77 44.5 -117.5t127.5 -40.5q131 0 212.5 80t81.5 201q0 166 -141 166q-79 0 -125 -66l-82 119q80 88 207 88q129 0 208 -83.5t79 -223.5z" />
    <glyph glyph-name="bnNN" horiz-adv-x="1179" 
d="M975 512h-141v193q0 227 -88 362t-257 135q-129 0 -200.5 -77t-71.5 -199q0 -107 60 -167.5t159 -60.5q101 0 187 95l55 -119q-96 -105 -244 -105q-157 0 -257.5 101t-100.5 258q0 174 108.5 287.5t298.5 113.5q244 0 363 -213h8q-18 81 -18 301v101h139v-203h246v-131
h-246v-672z" />
    <glyph glyph-name="bnT" horiz-adv-x="1394" 
d="M1262 -406l-80 -112l-465 323l80 115zM1288 625q0 -220 -135.5 -359t-351.5 -139q-119 0 -221.5 42t-178.5 115.5t-137 179.5t-102 226.5t-68 263.5l139 62q23 -127 55.5 -235t81 -206t109 -166.5t143 -108.5t179.5 -40q153 0 245.5 106t92.5 261q0 131 -52.5 207.5
t-152.5 76.5q-72 0 -116 -41.5t-44 -115.5q0 -103 88 -154l-102 -88q-63 37 -99 102.5t-36 147.5q0 126 82 207.5t223 81.5q168 0 263 -121.5t95 -304.5zM1436 1184h-1477v131h1477v-131z" />
    <glyph glyph-name="bnTH" horiz-adv-x="1247" 
d="M1047 256h-132l-784 317v156q143 3 244.5 24.5t159.5 60t84 86.5t26 110q0 85 -54.5 135.5t-150.5 50.5q-78 0 -130 -46.5t-52 -121.5q0 -85 70 -143l-113 -68q-100 73 -100 211q0 131 91.5 215t233.5 84q93 0 170 -33.5t127.5 -107t50.5 -174.5q0 -73 -21 -131
t-69.5 -110t-138.5 -88t-219 -52v-8l571 -230h9q-15 218 -15 404v721h142v-203h237v-131h-237v-928z" />
    <glyph glyph-name="bnD" horiz-adv-x="1056" 
d="M1096 1184h-781v-453q91 96 227.5 198t256.5 152l133 -71q-68 -207 -68 -455v-129h-139v129q0 214 47 369q-256 -171 -455 -402l-145 78v584h-213v131h1137v-131z" />
    <glyph glyph-name="bnDH" horiz-adv-x="1140" 
d="M942 274h-135l-692 263v127l110 65q42 24 86.5 46t68.5 32l23 10v8q-136 6 -216.5 70t-80.5 178q0 112 77.5 184t209.5 72q60 0 118 -18t93 -49l-53 -107q-65 49 -152 49q-68 0 -108.5 -37t-40.5 -98q0 -75 61 -108t154 -33q143 0 344 129v258h371v-131h-238v-910z
M815 399h8q-14 195 -14 396v118l-547 -305z" />
    <glyph glyph-name="bnN" horiz-adv-x="1089" 
d="M1130 1184h-221v-711l-143 2q-47 195 -143.5 308.5t-225.5 113.5q-84 0 -127 -40.5t-43 -104.5q0 -106 113 -158l-107 -84q-69 32 -110 95t-41 149q0 123 82.5 201.5t224.5 78.5q129 0 234 -81.5t153 -211.5h8q-24 168 -24 383v60h-801v131h1171v-131z" />
    <glyph glyph-name="bnP" horiz-adv-x="1341" 
d="M248 1036q110 -7 201.5 -65.5t134.5 -175.5l321 225q-121 170 -327 170q-114 0 -200 -49t-130 -105zM1151 432h-147v236q0 125 -37 229l-621 -436l-76 114l199 140q-64 182 -272 196q-23 6 -56 9l-86 118q32 53 79 101t110.5 92t148.5 70t178 26q91 0 168.5 -24
t132.5 -65t92 -84t62 -91l6 2q-9 28 -20 143t-11 224v86h150v-203h231v-131h-231v-752z" />
    <glyph glyph-name="bnPH" horiz-adv-x="1560" 
d="M979 266h-107l-692 266v152l301 201l-278 258v41h-244v131h1643v-131h-1233v-8l256 -236v-117l-301 -202l516 -197h8q-14 210 -14 405v189q109 47 243 47q114 0 205.5 -36.5t149 -115.5t57.5 -188q0 -236 -242 -336l-90 115q186 68 186 219q0 93 -68.5 148t-170.5 55
q-66 0 -125 -15v-645z" />
    <glyph glyph-name="bnB" horiz-adv-x="1019" 
d="M1061 1184h-227v-809h-127l-580 289v159q240 161 561 301v60h-729v131h1102v-131zM696 535h9q-17 246 -17 405v31q-215 -100 -420 -226z" />
    <glyph glyph-name="bnBH" horiz-adv-x="1425" 
d="M1321 678q0 -194 -128.5 -311t-356.5 -117q-123 0 -231 41.5t-188 111t-144 165.5t-105 200.5t-66 220.5l131 55q36 -186 116.5 -333.5t207.5 -237.5t279 -90q165 0 256.5 83.5t91.5 213.5q0 66 -16.5 111.5t-47.5 95.5h-8q-111 -248 -311 -248q-113 0 -182.5 69
t-69.5 171q0 78 41 139l139 -25q-41 -44 -41 -110q0 -55 29.5 -88t87.5 -33q68 0 127.5 64.5t124.5 220.5h106q67 -65 112.5 -160.5t45.5 -208.5zM1466 1184h-1507v131h1507v-131z" />
    <glyph glyph-name="bnM" horiz-adv-x="1265" 
d="M850 858q76 0 111.5 45.5t35.5 116.5q0 69 -39 116.5t-122 47.5h-426q24 -46 34 -119q46 -11 91.5 -37t81 -54t71.5 -54.5t77.5 -44t84.5 -17.5zM1307 1184h-222q64 -76 64 -187q0 -56 -16 -104t-48.5 -89t-91 -65t-135.5 -24q-68 0 -127.5 23t-103 55.5t-83.5 65.5
t-84 56t-89 23q-53 0 -86 -32t-33 -85q0 -64 59 -110l-110 -80q-95 77 -95 194q0 93 48.5 157.5t136.5 84.5q-21 68 -64 117h-268v131h1348v-131z" />
    <glyph glyph-name="bnY" horiz-adv-x="1011" 
d="M844 293h-107l-655 270v142l291 192l-269 248v39h-145v131h1092v-131h-207v-891zM211 643l502 -201h8q-14 200 -14 387v355h-447v-8l244 -228v-108z" />
    <glyph glyph-name="bnR" horiz-adv-x="1019" 
d="M403 297q0 -42 -28 -70t-72 -28q-42 0 -70 28t-28 70q0 44 27.5 72t70.5 28q44 0 72 -28t28 -72zM1061 1184h-227v-809h-127l-580 289v159q240 161 561 301v60h-729v131h1102v-131zM696 535h9q-17 246 -17 405v31q-215 -100 -420 -226z" />
    <glyph glyph-name="bnL" horiz-adv-x="1390" 
d="M1432 1184h-222v-858h-143v491q-15 46 -61 84.5t-115 38.5q-76 0 -122 -53t-46 -146v-77h-141v75q0 95 -50 145t-131 50q-77 0 -129.5 -53.5t-52.5 -155.5q0 -119 68.5 -180.5t175.5 -61.5q33 0 47 4l14 -133q-30 -6 -65 -6q-163 0 -275 103t-112 274q0 161 93 253.5
t230 92.5q57 0 104.5 -16.5t77 -43t47 -53.5t25.5 -53h10q12 68 67.5 120t147.5 52q120 0 185 -88h8v195h-1108v131h1473v-131z" />
    <glyph glyph-name="bnSH" horiz-adv-x="1308" 
d="M1120 471h-149v424q0 139 -59 210t-173 71q-98 0 -159.5 -57t-61.5 -171q0 -111 62 -169t168 -58q71 0 106 18v-137q-54 -14 -109 -14q-208 0 -305 151q-44 -81 -114 -118t-179 -37q-51 0 -112 16v139q40 -18 112 -18q114 0 169 59.5t55 167.5q0 118 -61 177t-173 59
h-178v131h176q113 0 188.5 -37.5t122.5 -118.5q89 154 289 154q172 0 250 -125h8q-20 120 -20 256v74h147v-203h230v-131h-230v-713z" />
    <glyph glyph-name="bnSS" horiz-adv-x="1050" 
d="M940 924q0 -188 -117.5 -291t-300.5 -103q-178 0 -294.5 106t-116.5 288q0 158 92 260h-244v131h1133v-131h-248q96 -103 96 -260zM522 1184q-87 0 -151 -45l391 -338q26 60 26 125q0 108 -74 183t-192 75zM522 659q93 0 162 50l-393 338q-29 -60 -29 -121
q0 -116 72.5 -191.5t187.5 -75.5z" />
    <glyph glyph-name="bnS" horiz-adv-x="1314" 
d="M1208 1067q0 -136 -76.5 -221.5t-220.5 -85.5q-116 0 -195.5 66t-121.5 178q-62 -244 -279 -244q-83 0 -155 43t-121 112l96 93q89 -121 180 -121q152 0 189 297h-545v131h1397v-131h-164q16 -53 16 -117zM682 1184q8 -57 24 -106.5t42.5 -94t67 -70.5t91.5 -26
q45 0 78 18.5t48 48.5t21.5 57t6.5 54q0 81 -19 119h-360z" />
    <glyph glyph-name="bnH" horiz-adv-x="946" 
d="M934 102l-94 -100q-395 229 -505.5 283.5t-225.5 68.5v131h129q155 0 251 32.5t135.5 89t39.5 141.5q0 94 -60.5 152t-159.5 58q-87 0 -140.5 -48.5t-53.5 -127.5q0 -42 21.5 -79.5t62.5 -59.5l-105 -76q-59 33 -92 93.5t-33 132.5q0 127 95 212t243 85q162 0 264.5 -98
t102.5 -253q0 -160 -102 -244.5t-295 -107.5v-8q58 -14 282 -139zM987 1184h-1028v131h1028v-131z" />
    <glyph glyph-name="bnK_SS" horiz-adv-x="1820" 
d="M1352 713h-88v-719h-140q-35 137 -165.5 242t-301.5 122q-24 -82 -68.5 -119.5t-92.5 -37.5q-53 0 -84 29t-31 81q0 55 42 101t114 67v43q0 106 -59 175.5t-152 90.5q-22 -79 -68 -118t-94 -39q-51 0 -82 30t-31 82q0 57 41 102.5t113 65.5q-3 163 -123 273h-123v131
h1866v-131h-561v-334h84q165 0 262.5 -83.5t97.5 -223.5q0 -117 -54 -198.5t-145 -127.5l-96 111q67 29 108.5 83t41.5 132q0 86 -57 128t-154 42zM1618 -477l-80 -113l-465 324l80 114zM1128 246q-14 172 -14 409v58h-149q-138 0 -224 85t-86 236v150h-403q88 -126 88 -264
q139 -20 238.5 -127.5t99.5 -266.5v-37q146 -11 273.5 -88t176.5 -155zM963 850h151v334h-313v-152q0 -182 162 -182z" />
    <glyph glyph-name="bnJ_NY" horiz-adv-x="1697" 
d="M717 713l264 -19q-96 71 -147.5 200.5t-59.5 289.5h-6q-68 -77 -123 -188.5t-55 -186.5q0 -88 127 -96zM1331 150q-169 0 -262 131q-43 -94 -135 -149.5t-221 -55.5q-132 0 -248 60.5t-197.5 162.5t-130.5 237.5t-53 284.5l141 41q3 -175 64.5 -321t172 -233t247.5 -87
q119 0 186.5 60t67.5 153q0 60 -27 129l-236 12q-121 8 -189.5 64.5t-68.5 161.5q0 158 150 383h-633v131h1780v-131h-821q8 -204 102 -330q42 95 117.5 149t183.5 54q114 0 184 -67.5t70 -170.5q0 -74 -37 -126t-96 -75v-8q64 -22 108.5 -74t44.5 -133q0 -109 -72 -181
t-192 -72zM1090 614q0 -153 60.5 -243t172.5 -90q63 0 100 37.5t37 91.5q0 65 -43 102t-121 37h-41v119h35q70 0 109 39t39 106q0 53 -33.5 84t-97.5 31q-86 0 -151.5 -80.5t-65.5 -233.5zM1335 -471l-80 -113l-464 324l79 115z" />
    <glyph glyph-name="asR" horiz-adv-x="997" 
d="M797 246h-115l-584 387v129q81 83 248.5 186.5t317.5 151.5v84h-705v131h1077v-131h-239v-938zM223 700l447 -290h6q-8 119 -10 184l-314 209q-86 -60 -129 -103zM444 860l220 -143q0 168 2 252q-107 -39 -222 -109z" />
    <glyph glyph-name="asW" horiz-adv-x="1038" 
d="M508 330l-88 -109l-293 156l88 106zM1079 1184h-245v-809h-127l-580 289v159q240 161 561 301v60h-729v131h1120v-131zM696 535h9q-17 246 -17 405v31q-215 -100 -420 -226z" />
    <glyph glyph-name="bnDDx" horiz-adv-x="1306" 
d="M760 35q0 -43 -27.5 -70.5t-70.5 -27.5t-71 27.5t-28 70.5t28 71.5t71 28.5t70.5 -28.5t27.5 -71.5zM1348 1184h-723v-201q0 -109 94 -109q59 0 145 44t180 129q59 -38 106.5 -119t47.5 -191q0 -202 -138.5 -325t-369.5 -123q-146 0 -265 58.5t-196.5 158t-122 227
t-51.5 271.5l142 30q10 -280 145 -445t350 -165q162 0 263.5 89t101.5 222q0 78 -37 133q-160 -125 -309 -125q-105 0 -166.5 66t-61.5 168v207h-524v131h1389v-131z" />
    <glyph glyph-name="bnDDHx" horiz-adv-x="1048" 
d="M934 754q0 -181 -125.5 -300.5t-319.5 -119.5q-137 0 -223 75t-86 207v568h-221v131h1131v-131h-768v-553q0 -77 44.5 -117.5t127.5 -40.5q131 0 212.5 80t81.5 201q0 166 -141 166q-79 0 -125 -66l-82 119q80 88 207 88q129 0 208 -83.5t79 -223.5zM588 90
q0 -42 -29 -70t-72 -28t-70.5 27.5t-27.5 70.5t27.5 71.5t70.5 28.5t72 -28.5t29 -71.5z" />
    <glyph glyph-name="bnYx" horiz-adv-x="1013" 
d="M844 293h-107l-655 270v142l291 192l-269 248v39h-145v131h1092v-131h-207v-891zM399 201q0 -43 -28 -71t-72 -28q-43 0 -70.5 28t-27.5 71t27.5 71.5t70.5 28.5q44 0 72 -28.5t28 -71.5zM211 643l502 -201h8q-14 200 -14 387v355h-449v-8l246 -228v-108z" />
    <glyph glyph-name="bnK_KA" horiz-adv-x="1372" 
d="M1413 1184h-598v-62q109 -1 195.5 -32.5t138.5 -82.5t79 -112.5t27 -128.5q0 -68 -23.5 -131.5t-64.5 -106.5l-127 76q72 65 72 162q0 101 -78 160t-219 59v-432q109 -1 195.5 -32.5t138.5 -83t79 -113t27 -127.5q0 -104 -50.5 -186.5t-141.5 -129.5l-90 109
q139 81 139 207q0 101 -78 159t-219 58v-525l92 -45l-108 -106l-684 356v154q157 154 362 237l-362 177v155q104 104 250 185.5t305 107.5v74h-711v131h1454v-131zM676 -39h8q-14 200 -14 401v35h-4l-4 -2h-3q-207 -49 -403 -213zM676 549h8q-14 200 -14 401v19
q-210 -45 -414 -217z" />
    <glyph glyph-name="bnNG_KA" horiz-adv-x="1415" 
d="M883 -39l-107 -104l-682 354v151q104 104 250 185.5t305 107.5v68q0 127 -56.5 196.5t-154.5 69.5q-75 0 -119.5 -42.5t-44.5 -117.5q0 -43 22 -82t62 -63l-106 -80q-60 40 -91.5 101.5t-31.5 130.5q0 125 81 205.5t224 80.5q160 0 258.5 -113.5t98.5 -287.5v-53
q111 -1 198.5 -32.5t139.5 -83t79 -113.5t27 -130q0 -100 -51 -181.5t-142 -131.5l-90 110q140 78 140 207q0 101 -79 159t-222 58v-522zM1456 1184h-139q14 -46 14 -111q0 -115 -66.5 -188.5t-189.5 -73.5q-135 0 -224 95.5t-89 277.5h-803v131h1497v-131zM907 1184
q0 -111 42 -178.5t124 -67.5q48 0 77.5 25t38.5 56.5t9 70.5q0 59 -14 94h-277zM655 76h9q-15 218 -15 403v35q-212 -45 -413 -215z" />
    <glyph glyph-name="bnL_KA" horiz-adv-x="1757" 
d="M1110 80h8q-14 200 -14 401v35q-213 -45 -414 -215zM1798 1184h-549v-512q88 -1 162 -22t124.5 -55.5t86 -80.5t52 -96t16.5 -103q0 -103 -50.5 -185t-142.5 -130l-90 109q139 81 139 206q0 101 -78 159t-219 58v-524l92 -45l-108 -106l-684 356v154q104 103 250 184
t305 108v119q-15 46 -61 84.5t-117 38.5q-75 0 -122.5 -54t-47.5 -147v-77h-144v75q0 95 -49.5 145t-132.5 50q-77 0 -130.5 -62t-53.5 -165q0 -109 56 -172t147 -82l-52 -131q-139 29 -221 132t-82 253q0 163 97 264.5t233 101.5q198 0 258 -149h8q19 68 74 112.5t147 44.5
q65 0 112 -23.5t73 -51.5h8v219h-1145v131h1839v-131z" />
    <glyph glyph-name="bnSS_KA" horiz-adv-x="1296" 
d="M877 -33l-107 -104l-684 356v152q127 127 291 207q-93 47 -146 136t-53 212q0 162 90 258h-309v131h1378v-131h-434q92 -102 92 -258q0 -158 -90 -262q157 -31 239.5 -127.5t82.5 -217.5q0 -101 -51 -183t-142 -132l-90 111q137 76 137 204q0 102 -77.5 161t-217.5 59
v-525zM584 1184q-86 0 -156 -47l395 -338q29 60 29 127q0 107 -75 182.5t-193 75.5zM647 84h8q-14 203 -14 401v39q-212 -48 -416 -217zM584 662q91 0 161 47l-393 338q-28 -58 -28 -121q0 -116 72.5 -190t187.5 -74z" />
    <glyph glyph-name="bnS_KA" horiz-adv-x="1380" 
d="M1202 1065q0 -125 -58 -211t-169 -109q159 -31 242 -128t83 -218q0 -103 -50 -185t-140 -132l-92 111q139 81 139 206q0 101 -77.5 159t-217.5 58v-524l90 -47l-108 -104l-684 356v152q119 118 286 204.5t345 100.5q-75 24 -127 76.5t-78 123.5q-32 -101 -98.5 -158
t-165.5 -57q-84 0 -156 44.5t-119 115.5l94 92q43 -56 85 -87.5t96 -31.5q47 0 83 29t56 78t30.5 99t14.5 106h-547v131h1462v-131h-231q12 -58 12 -119zM664 1184q5 -134 64 -224t167 -90q85 0 124.5 55t39.5 146q0 47 -15 113h-380zM721 164h10q-14 200 -14 401v37
q-217 -49 -416 -217z" />
    <glyph glyph-name="bnNG_KHA" horiz-adv-x="1511" 
d="M1399 -492l-99 -112l-909 287v151q114 5 204 22.5t158.5 50.5t105 85t36.5 121q0 86 -47 133q-85 -271 -307 -271q-122 0 -187 67.5t-65 170.5q0 45 8 78h145q-12 -46 -12 -74q0 -48 29.5 -79.5t85.5 -31.5q75 0 122 61.5t87 186.5q-75 -20 -156 -20q-227 0 -373.5 143.5
t-173.5 376.5l129 41q22 -201 132.5 -314.5t287.5 -113.5q135 0 210 64t75 157q0 42 -17 72q-127 -94 -274 -94q-110 0 -174 58t-64 159v80q-138 76 -227 221h-170v131h260q51 -127 143 -207q7 107 63.5 175.5t176.5 68.5q117 0 185.5 -67.5t68.5 -164.5q0 -94 -69.5 -157.5
t-188.5 -63.5q-45 0 -100 10v-28q0 -88 100 -88q65 0 137.5 32t173.5 103q47 -34 79 -100t32 -142q0 -81 -36.5 -152t-104.5 -120q70 -56 112.5 -135.5t42.5 -167.5q0 -148 -100.5 -240t-280.5 -119v-8l512 -164l9 2q-13 191 -13 426v1510h146v-203h245v-131h-245v-1647z
M600 1018q63 0 94 31t31 75t-30 76.5t-85 32.5q-56 0 -84 -37t-28 -102v-62q58 -14 102 -14z" />
    <glyph glyph-name="bnS_KHA" horiz-adv-x="1656" 
d="M1540 -160l-100 -116l-940 331v140q251 5 391.5 73t140.5 205q0 68 -49 121q-41 -100 -120 -160.5t-179 -60.5q-117 0 -185.5 63t-68.5 176q0 54 12 101h150q-17 -49 -17 -97q0 -47 28 -76.5t85 -29.5q69 0 120 57t95 176q-12 -2 -39 -2q-120 0 -197.5 64.5t-115.5 165.5
q-73 -228 -270 -228q-82 0 -154.5 44t-120.5 112l94 92q89 -121 181 -121q46 0 81.5 30t55.5 81t31 100t16 103h-506v131h1165q50 -131 50 -244q0 -109 -41.5 -187t-122.5 -114q72 -57 120 -133t48 -164q0 -154 -102.5 -243.5t-284.5 -116.5v-9l518 -188l8 2
q-14 213 -14 436v1164h149v-203h246v-131h-246v-1315zM635 1184q5 -142 63 -228t164 -86q80 0 121 55t41 142q0 65 -12 117h-377z" />
    <glyph glyph-name="bnG_GA" horiz-adv-x="1339" 
d="M735 739q0 -28 -6 -55q166 -41 256 -166v248q0 113 -45.5 206t-136.5 150.5t-211 57.5q-117 0 -204 -57t-128 -138q73 37 174 37q128 0 214.5 -75.5t86.5 -207.5zM1135 -293h-150v436q0 176 -104.5 296t-282.5 120q-120 0 -206.5 -55.5t-131.5 -141.5q73 37 180 37
q125 0 209 -72.5t84 -203.5q0 -120 -70 -224.5t-190 -181.5l-115 101q224 149 224 307q0 77 -49 114t-130 37q-120 0 -219 -55l-108 107q41 156 182 262t315 110q9 21 9 41q0 78 -49.5 116t-129.5 38q-120 0 -219 -55l-108 110q51 162 191 267.5t319 105.5q74 0 139 -16
t108.5 -38.5t80.5 -54.5t57 -57t37 -53h8q-4 14 -10.5 53.5t-13.5 115t-7 150.5v95h150v-203h245v-131h-245v-1477z" />
    <glyph glyph-name="bnNG_GA" horiz-adv-x="1437" 
d="M784 592v-33q68 31 216.5 96.5t207.5 94.5l107 -97q-98 -198 -98 -436v-319h-146v311q0 195 66 356l-379 -176q-38 -132 -122.5 -209.5t-207.5 -77.5q-119 0 -203 65t-114 144l112 80q28 -64 79 -107.5t128 -43.5q103 0 158 97.5t55 252.5q0 65 -10 120.5t-31.5 104.5
t-62.5 77t-97 28q-73 0 -115 -42t-42 -116q0 -82 63 -131l-108 -78q-49 36 -76 92.5t-27 120.5q0 127 79.5 206t221.5 79q114 0 193.5 -63t116 -164.5t36.5 -231.5zM1479 1184h-189q15 -46 15 -111q0 -117 -68 -188.5t-188 -71.5q-135 0 -225.5 95t-90.5 276h-774v131h1520
v-131zM879 1184q0 -110 43 -178t125 -68q124 0 124 152q0 59 -14 94h-278z" />
    <glyph glyph-name="bnDD_GA" horiz-adv-x="2326" 
d="M2124 0h-152v758q0 109 -46.5 203t-138.5 153.5t-212 59.5q-118 0 -203.5 -60t-128.5 -139q35 18 88.5 28.5t98.5 10.5q124 0 209 -76t85 -209q0 -121 -78 -233t-208 -195l-117 109q116 68 182 151.5t66 171.5q0 78 -49 118t-127 40q-106 0 -205 -47q49 -93 49 -197
q0 -222 -141.5 -352.5t-382.5 -130.5q-121 0 -225 38.5t-180.5 107t-132 161t-85.5 201t-35 227.5l144 31q10 -290 151 -457.5t363 -167.5q170 0 272 92.5t102 245.5q0 91 -32 135q-71 -62 -157.5 -95.5t-170.5 -33.5q-110 0 -174 69t-64 177v289h-530v131h1610
q75 0 142 -17.5t111.5 -42.5t82.5 -58.5t58 -59t34 -50.5h8q-5 11 -12 52t-14 116t-7 152v111h152v-203h243v-131h-243v-1184zM934 1184h-293v-283q0 -110 96 -110q59 0 152 40.5t186 126.5q46 141 164 236l-4 4q-87 -14 -301 -14z" />
    <glyph glyph-name="bnD_GA" horiz-adv-x="2080" 
d="M1876 0h-150v758q0 109 -47 203t-139 153.5t-211 59.5q-118 0 -204.5 -60.5t-129.5 -138.5q35 18 88.5 28.5t98.5 10.5q124 0 209.5 -76t85.5 -209q0 -125 -82.5 -240t-218.5 -196l-117 106q123 72 193.5 157.5t70.5 176.5q0 78 -49.5 118t-128.5 40q-96 0 -193 -41
q-53 -201 -53 -432v-418h-154v422q0 195 58 393q-253 -166 -471 -469l-152 68v770h-221v131h1362q75 0 142 -17.5t111.5 -42.5t82.5 -58.5t58 -59t34 -50.5h8q-5 11 -12 52t-14 116t-7 152v111h152v-203h246v-131h-246v-1184zM330 573q85 109 232 234.5t269 177.5
q47 118 156 207l-4 6q-88 -14 -283 -14h-370v-611z" />
    <glyph glyph-name="bnDDx_GA" horiz-adv-x="2340" 
d="M2136 0h-149v758q0 64 -17.5 125.5t-52 114t-82 92t-111 62t-135.5 22.5q-118 0 -204.5 -60.5t-129.5 -138.5q35 18 88.5 28.5t98.5 10.5q124 0 209.5 -76t85.5 -209q0 -121 -78 -233t-207 -195l-117 109q115 69 181.5 152t66.5 171q0 78 -49.5 118t-128.5 40
q-106 0 -205 -47q49 -93 49 -197q0 -222 -141.5 -352.5t-382.5 -130.5q-121 0 -224.5 38.5t-179.5 107t-131.5 161t-85.5 201t-36 227.5l145 31q10 -290 150 -457.5t364 -167.5q169 0 272 93t103 245q0 86 -33 135q-73 -62 -159.5 -95.5t-170.5 -33.5q-110 0 -172.5 68.5
t-62.5 177.5v289h-545v131h1622q75 0 142 -17.5t111.5 -42.5t82.5 -58.5t58 -59t34 -50.5h8q-5 11 -12 52t-13.5 116t-6.5 152v111h151v-203h246v-131h-246v-1184zM807 -137q0 -44 -29 -73.5t-73 -29.5t-73.5 29.5t-29.5 73.5t29.5 73t73.5 29t73 -29t29 -73zM948 1184h-295
v-283q0 -110 97 -110q59 0 151.5 40.5t185.5 126.5q45 138 164 236l-4 4q-88 -14 -299 -14z" />
    <glyph glyph-name="bnL_GA" horiz-adv-x="1480" 
d="M1522 1184h-246v-1581h-152v338q0 83 -22 154.5t-65 128.5t-114.5 89.5t-162.5 32.5q-108 0 -190 -57.5t-121 -134.5q39 21 93.5 33t100.5 10q120 -3 195 -70t75 -186q1 -104 -70.5 -201t-185.5 -164l-104 109q107 65 158.5 125.5t50.5 130.5q0 139 -172 139
q-102 0 -213 -62l-105 105q29 99 96.5 180t168.5 130t217 50q252 0 370 -180v488q-14 46 -61 84t-117 38q-76 0 -124 -54t-48 -146v-49h-145v45q0 88 -49.5 142t-133.5 54q-81 0 -134.5 -49t-53.5 -141q0 -149 156 -209l-74 -115q-100 29 -168 119t-68 207q0 148 96.5 239
t237.5 91q196 0 262 -156h9q15 67 70.5 114.5t150.5 47.5q117 0 186 -74h8v205h-1165v131h1563v-131z" />
    <glyph glyph-name="bnNG_GHA" horiz-adv-x="2387" 
d="M768 915q82 0 124 38.5t42 107.5q0 60 -38 102.5t-116 42.5q-71 0 -109 -49t-38 -139v-76q69 -27 135 -27zM2181 -27l-930 453q-27 -162 -159 -257t-342 -95q-150 0 -276.5 57.5t-211 154t-133.5 221t-57 261.5l137 31q20 -274 172 -429t369 -155q173 0 268.5 80.5
t95.5 200.5q0 83 -31 127q-93 -67 -171.5 -99t-163.5 -32q-121 0 -187.5 67t-66.5 178v142q-86 56 -152.5 137.5t-103.5 167.5h-279v131h375q48 -167 166 -283q3 141 78 219t202 78q53 0 94 -14h1555v-131h-244v-1055l88 -43zM1116 813q50 -38 88 -101.5t49 -146.5l113 70
q35 22 68 39.5t52 26t36 16t20 8.5v10q-146 10 -225.5 83t-79.5 186q0 107 63 180h-262q33 -64 33 -127q0 -123 -84.5 -192.5t-218.5 -69.5q-74 0 -135 20v-70q0 -59 28 -87.5t87 -28.5q149 0 368 184zM2042 197h8q-16 183 -16 413v574h-561q-89 -73 -89 -178
q0 -80 59.5 -127.5t160.5 -47.5q58 0 104.5 15.5t106.5 50.5l63 -121l-459 -274z" />
    <glyph glyph-name="bnD_GHA" horiz-adv-x="2082" 
d="M2124 1184h-246v-1055l88 -43l-92 -113l-926 451v141l109 68q35 23 68.5 41t52 26.5t35.5 16t20 8.5v8q-222 20 -285 168q-69 -217 -69 -461v-278h-150v276q0 108 17.5 222t50.5 196q-236 -170 -463 -457l-152 93v692h-223v131h2165v-131zM332 623q99 115 239 233.5
t256 169.5l105 -57q-2 12 -2 35q0 107 63 180h-661v-561zM1737 197h6q-14 192 -14 413v574h-560q-88 -72 -88 -178q0 -79 59.5 -127t157.5 -48q57 0 104 16t105 50l66 -121l-459 -274z" />
    <glyph glyph-name="bnL_GHA" horiz-adv-x="2127" 
d="M2013 70l-92 -113l-934 455v133l119 73q36 23 69.5 41.5t51.5 27t35.5 16t19.5 8.5v8q-140 9 -221 80h-2q-51 47 -129 47q-77 0 -123.5 -53.5t-46.5 -147.5v-78h-146v76q0 93 -49 144t-133 51q-83 0 -134.5 -64t-51.5 -168q0 -127 68 -192.5t180 -65.5q69 0 122 23
l23 -138q-67 -24 -145 -24q-181 0 -291.5 109t-110.5 288q0 168 94.5 270.5t239.5 102.5q57 0 105 -16.5t78 -43t48.5 -54t26.5 -54.5h8q14 70 69 123t148 53q28 0 68 -8v8q0 111 72 197h-1090v131h2210v-131h-244v-1071zM1782 180l8 2q-16 183 -16 412v590h-551
q-97 -83 -97 -195q0 -51 27 -92v0q56 -82 190 -82q58 0 104.5 15.5t106.5 50.5l64 -121l-459 -275z" />
    <glyph glyph-name="bnC_CA" horiz-adv-x="1742" 
d="M1636 508q0 -92 -40.5 -185t-106 -164t-156.5 -116t-186 -45q-130 0 -203.5 69t-73.5 187v315q-37 -143 -152.5 -236t-264.5 -93q-130 0 -204.5 69.5t-74.5 188.5v686h-215v131h1825v-131h-772v-56q0 -157 180 -225l168 -63q139 -51 207.5 -130t68.5 -202zM1018 258
q0 -58 33 -90.5t98 -32.5q52 0 112 31.5t110 81.5t83 120.5t33 141.5q0 65 -39 113t-139 84l-131 49q-111 40 -160 106h-8q8 -72 8 -321v-283zM322 504q0 -125 131 -125q109 0 197.5 89t88.5 214q0 65 -38 111t-136 81l-90 33q-105 35 -158 105h-8q13 -130 13 -324v-184z
M614 1008q106 -39 169 -93t87 -131v400h-553q18 -45 61.5 -76t117.5 -57z" />
    <glyph glyph-name="bnNY_CA" horiz-adv-x="1568" 
d="M999 45l-104 -102l-733 348v172q276 196 545 332q-47 125 -125 201.5t-187 76.5q-84 0 -127 -40.5t-43 -104.5q0 -71 51 -129l-122 -56q-72 75 -72 189q0 122 82 200t223 78q128 0 226.5 -70t154.5 -190h8q-2 13 -5.5 56t-8 124t-4.5 152v33h149v-19q0 -137 -12 -209
l4 -2q93 134 270 134q130 0 208.5 -78t78.5 -197q0 -87 -40 -147.5t-109 -87.5v-9q76 -26 125 -87t49 -156q0 -125 -78.5 -209t-212.5 -84q-187 0 -283 137v-209zM907 705q0 -179 70.5 -292.5t198.5 -113.5q79 0 120 47t41 117q0 76 -48.5 121t-141.5 45h-47v137h39
q84 0 128 47t44 127q0 63 -41.5 103t-116.5 40q-104 0 -175 -98.5t-71 -279.5zM768 158h8q-14 203 -14 405v103q-209 -115 -467 -285z" />
    <glyph glyph-name="bnSH_CA" horiz-adv-x="1918" 
d="M1194 258q0 -58 32 -90.5t99 -32.5q52 0 112 31.5t110 81.5t83 120.5t33 141.5q0 65 -39 113t-139 84l-133 49q-101 37 -160 106h-8q10 -45 10 -321v-283zM1812 508q0 -92 -40.5 -185t-106 -164t-156.5 -116t-186 -45q-129 0 -202.5 69t-73.5 187v930h-244
q-100 0 -173 -72t-73 -192q0 -107 73.5 -171.5t180.5 -64.5q53 0 109 23v-144q-54 -14 -111 -14q-101 0 -189 45t-141 121q-47 -78 -129 -122t-188 -44q-61 0 -115 14v139q41 -18 113 -18q115 0 182.5 67t67.5 171q0 129 -72 195.5t-188 66.5h-191v131h191q109 0 196 -43.5
t139 -120.5q54 75 136.5 119.5t175.5 44.5h1163v-131h-772v-56q0 -157 180 -225l168 -63q139 -51 207.5 -130t68.5 -202z" />
    <glyph glyph-name="bnC_CHA" horiz-adv-x="1918" 
d="M1442 827q0 -123 -92 -216t-230 -93q-91 0 -151 38.5t-82 105.5q-11 -170 -136.5 -291t-297.5 -121q-130 0 -204.5 69.5t-74.5 188.5v676h-215v131h2001v-131h-963q16 -34 60.5 -58t122 -50.5t114.5 -43.5q65 19 127 19q160 0 268.5 -99.5t108.5 -259.5
q0 -196 -141.5 -305t-415.5 -121v-8q93 -24 281 -121l319 -168l-100 -110q-442 239 -582 304.5t-244 80.5v137h195q272 0 406.5 80t134.5 231q0 104 -68 165t-160 61q19 -40 19 -91zM322 512q0 -125 133 -125q108 0 194 88.5t86 212.5q0 66 -37 112t-135 81l-84 26
q-113 41 -162 109h-8q13 -65 13 -322v-182zM1014 750q0 -103 104 -103q76 0 131.5 55.5t55.5 126.5q0 42 -32.5 70t-75 40t-97.5 32.5t-86 46.5v-268zM612 1012q213 -75 260 -224v396h-553q39 -77 177 -129z" />
    <glyph glyph-name="bnNY_CHA" horiz-adv-x="1431" 
d="M1241 -420l-84 -119q-194 80 -276.5 113t-205 80t-184 65t-131.5 33t-129 17v137h244q114 0 198.5 16t139.5 58t55 108q0 67 -53 123q-53 -53 -135.5 -88t-183.5 -35q-165 0 -272 82.5t-107 232.5q0 79 31.5 143t81.5 105.5t110 76.5t120.5 64.5t110.5 59.5t81.5 71
t31.5 91q0 78 -58.5 125t-152.5 47q-91 0 -144 -45t-53 -127q0 -76 60 -133l-111 -74q-45 36 -69.5 92t-24.5 117q0 140 95.5 223.5t244.5 83.5q102 0 179.5 -38.5t119.5 -106.5q46 68 115 102.5t149 34.5q118 0 194.5 -65.5t76.5 -184.5q0 -60 -29.5 -111.5t-85.5 -76.5v-9
q64 -24 98.5 -77t34.5 -123q0 -110 -71.5 -182t-200.5 -72q-147 0 -240 96t-115 256q-39 -31 -127 -76q26 -66 65 -123t79.5 -96t84.5 -75t82 -68t68.5 -66.5t48 -79.5t17.5 -98q0 -129 -100.5 -199.5t-268.5 -83.5v-8q107 -12 332 -104zM492 227q121 0 215 74
q-41 32 -69 57.5t-65 66t-68 92.5t-54 114q-90 -47 -138.5 -98.5t-48.5 -129.5q0 -83 62 -129.5t166 -46.5zM811 868q0 -151 63.5 -235t169.5 -84q64 0 100 33.5t36 91.5q0 63 -40 95t-130 32h-39v131h39q151 0 151 129q0 58 -35.5 89.5t-97.5 31.5q-93 0 -155 -83.5
t-62 -230.5z" />
    <glyph glyph-name="bnSH_CHA" horiz-adv-x="2062" 
d="M1157 750q0 -47 26.5 -75t82.5 -28q77 0 129.5 55.5t52.5 126.5q0 42 -32.5 70t-75 40t-97.5 32.5t-86 46.5v-268zM1585 827q0 -123 -91.5 -216t-229.5 -93q-118 0 -183 63.5t-65 166.5v436h-221q-100 0 -173 -72t-73 -192q0 -107 73.5 -171.5t180.5 -64.5q56 0 108 23
v-144q-54 -14 -108 -14q-103 0 -191 45t-141 121q-47 -78 -129 -122t-188 -44q-61 0 -115 14v139q44 -18 113 -18q114 0 181.5 67t67.5 171q0 129 -72 195.5t-188 66.5h-180v131h180q109 0 196.5 -43.5t139.5 -120.5q56 76 137 120t174 44h1315v-131h-962q16 -33 60 -56.5
t120 -49.5t113 -44q76 17 131 17q160 0 268.5 -99.5t108.5 -259.5q0 -196 -140 -304t-418 -120v-8q91 -23 281 -123l324 -170l-103 -110q-331 180 -485.5 257.5t-226.5 102t-156 33.5v131h237q271 0 405 80t134 231q0 103 -64 161.5t-163 64.5q18 -40 18 -91z" />
    <glyph glyph-name="bnNY_JA" horiz-adv-x="1562" 
d="M1051 127q0 -149 -91.5 -238.5t-269.5 -89.5q-172 0 -313.5 102t-221 271t-85.5 369l143 41q3 -174 64 -320.5t170 -233.5t243 -87q104 0 159.5 51.5t55.5 132.5q0 65 -28 104l-166 21q-116 14 -185 75t-69 164q0 64 32 125t77.5 108t90.5 92t77 95.5t32 100.5
q0 82 -57.5 129t-153.5 47q-90 0 -143.5 -45.5t-53.5 -128.5q0 -77 64 -138l-113 -75q-44 37 -70 94.5t-26 118.5q0 146 96 227.5t244 81.5q104 0 181.5 -38t119.5 -105q91 141 276 141q119 0 191 -70t72 -174q0 -76 -35 -128t-94 -75v-8q64 -23 107.5 -77t43.5 -134
q0 -65 -29 -125l60 -47q-76 -149 -76 -358v-359h-143v363q0 161 43 291q-55 -25 -127 -25q-155 0 -244.5 97t-114.5 258q-16 -18 -60 -62.5t-62.5 -66t-37 -58t-18.5 -69.5q0 -45 36 -73t101 -36l215 -29q44 -39 68.5 -100.5t24.5 -126.5zM897 868q0 -156 61.5 -249
t174.5 -93q68 0 105.5 36.5t37.5 99.5q0 65 -44.5 101t-123.5 36h-43v123h37q72 0 111.5 35.5t39.5 103.5q0 58 -36 91.5t-103 33.5q-93 0 -155 -81.5t-62 -236.5z" />
    <glyph glyph-name="bnJ_JA" horiz-adv-x="2347" 
d="M1102 459q0 -99 -49 -178q65 -116 163 -182t218 -66q117 0 181 60t64 143q0 74 -32 114l-191 12q-109 8 -173 63.5t-64 154.5q0 129 153 272q-165 3 -288 58t-177 165q-98 -52 -179 -129t-81 -143q0 -83 113 -90l246 -21q44 -38 70 -102.5t26 -130.5zM2148 -174h-143v336
q0 31 2.5 62.5t6 58.5t9 54.5t10.5 48.5t12.5 44t12.5 38t12 32.5t11 25.5t9 19t5 12q-197 5 -326 62t-213 202q-180 -139 -180 -233q0 -81 113 -88l246 -21q43 -39 69.5 -106.5t26.5 -132.5q0 -149 -105.5 -249t-289.5 -100q-152 0 -279.5 75.5t-214.5 207.5
q-95 -61 -235 -61q-132 0 -248.5 59.5t-198 160.5t-131 236.5t-53.5 284.5l143 41q3 -175 65 -321t173 -233t248 -87q118 0 181.5 59.5t63.5 143.5q0 62 -32 106l-189 12q-110 9 -173.5 65t-63.5 153q0 107 96 211t237 180h-866v131h2429v-131h-1374q22 -62 61.5 -103.5
t99.5 -64t129 -31t164 -8.5h170q22 -52 41 -86.5t56 -77t82 -67.5t117 -42.5t163 -17.5h96l68 -104q-113 -204 -113 -428v-328z" />
    <glyph glyph-name="bnN_JA" horiz-adv-x="1789" 
d="M1839 1184h-973v-162q122 -96 312 -150.5t393 -54.5h82l67 -108q-53 -100 -79.5 -212t-26.5 -266v-381h-146v390q0 250 86 444q-187 2 -370.5 46.5t-317.5 129.5v-252q0 -56 30.5 -79.5t86.5 -28.5l213 -21q42 -40 69 -104.5t27 -126.5q0 -166 -107 -265.5t-313 -99.5
q-224 0 -393.5 145t-236.5 371l127 74q54 -200 187 -324t314 -124q136 0 203.5 61t67.5 158q0 68 -33 106l-150 12q-191 16 -233 152q-27 64 -49.5 109t-55.5 97.5t-66 84.5t-77.5 54t-93.5 22q-75 0 -117.5 -42t-42.5 -106q0 -69 53 -133l-118 -57q-78 78 -78 196
q0 122 80.5 200.5t218.5 78.5q225 0 350 -238h8q-18 126 -18 348v56h-760v131h1880v-131z" />
    <glyph glyph-name="bnB_JA" horiz-adv-x="1712" 
d="M639 610v365q-95 -38 -203.5 -99.5t-179.5 -117.5l383 -168v20zM1753 1184h-967v-162q122 -96 312 -150.5t393 -54.5h82l67 -108q-53 -100 -79.5 -212t-26.5 -266v-381h-143v390q0 255 84 444q-187 2 -370.5 46t-318.5 130v-252q0 -56 30.5 -79.5t86.5 -28.5l213 -21
q42 -40 69 -104.5t27 -126.5q0 -166 -106 -265.5t-313 -99.5q-220 0 -389.5 141.5t-235.5 362.5l125 76q54 -196 187 -317t313 -121q134 0 202 61t68 158q0 66 -35 106l-147 12q-68 6 -117 27l-649 279v151q82 73 226 161t298 142v62h-680v131h1794v-131z" />
    <glyph glyph-name="bnNY_JHA" horiz-adv-x="1753" 
d="M1350 -49h8q-12 139 -12 405v4h-13q-91 0 -169.5 47.5t-108.5 94.5q10 -45 10 -209v-195zM1157 -367l-106 -102l-684 354v158q81 64 210.5 137t253.5 123q-86 46 -282 68q-244 29 -360.5 113.5t-116.5 234.5q0 121 67 221l129 -55q-51 -73 -51 -164q0 -90 82.5 -137
t255.5 -70q174 -22 255.5 -54.5t127.5 -84.5h8q-1 5 -4 30t-5.5 43t-6 55.5t-5.5 73.5t-3.5 89t-1.5 110v258q0 75 -31 112.5t-101 37.5q-122 0 -204 -86.5t-82 -200.5q0 -60 33.5 -92.5t93.5 -32.5q77 0 133 45l55 -112q-78 -62 -194 -62q-121 0 -194 70.5t-73 183.5
q0 108 54.5 204t157 157t229.5 61q98 0 158 -47t81 -119q12 25 35.5 52t58.5 54.5t85.5 44.5t107.5 17q121 0 197.5 -70.5t76.5 -181.5q0 -75 -37 -130.5t-100 -82.5v-8q67 -21 113.5 -76.5t46.5 -142.5q0 -77 -35.5 -138t-99.5 -96v-538l-133 -64l-287 148v-260zM1061 850
q0 -159 69.5 -255.5t192.5 -96.5q73 0 113.5 40.5t40.5 98.5q0 69 -46 107t-131 38h-47v125h37q76 0 120 42t44 112q0 56 -38 90.5t-109 34.5q-43 0 -85.5 -20t-79 -59t-59 -105.5t-22.5 -151.5zM928 -250h8q-14 203 -14 367v71q-102 -41 -215.5 -102t-194.5 -117z" />
    <glyph glyph-name="bnJ_JHA" horiz-adv-x="2048" 
d="M1714 -111q-12 164 -12 412v883h-729q8 -47 26 -91t51.5 -88t79.5 -76.5t114.5 -52.5t150.5 -20h43l67 -106q-98 -177 -98 -426v-275l299 -160h8zM1499 -430l-106 -105l-686 355v157q96 77 258 163.5t297 131.5v58q0 222 77 395q-182 6 -317 112t-164 244
q-122 -72 -167 -113q-66 -61 -66 -118q0 -79 137 -88l217 -19q44 -38 71 -101t27 -128q0 -147 -103 -243.5t-286 -96.5q-175 0 -318.5 101t-225 268.5t-89.5 365.5l144 41q4 -175 65.5 -319.5t172 -230t247.5 -85.5q119 0 181.5 55t62.5 138q0 60 -33 106l-180 15
q-246 24 -246 209q0 58 26.5 111.5t74.5 96.5t95.5 74.5t108.5 63.5h-815v131h2130v-131h-246v-1389l-137 -63l-299 157v-274zM1266 -313h8q-12 172 -12 366v72q-203 -81 -410 -219z" />
    <glyph glyph-name="bnC_NYA" horiz-adv-x="2129" 
d="M1325 31h8q-26 159 -26 399v266q0 74 -30.5 111t-100.5 37q-126 0 -217 -86.5t-91 -198.5q0 -58 33.5 -90.5t93.5 -32.5q77 0 133 45l56 -114q-34 -28 -87.5 -44t-109.5 -16q-149 0 -219 103q-61 -73 -145 -117q65 -104 321 -135q176 -21 260 -50.5t121 -76.5zM315 508
q0 -121 127 -121q108 0 198.5 90.5t90.5 218.5q0 65 -37 112t-135 81l-90 31q-111 38 -158 104h-8q12 -108 12 -313v-203zM1444 510q0 -160 70 -257t194 -97q71 0 111.5 40.5t40.5 98.5q0 69 -46.5 108t-130.5 39h-47v125h39q75 0 118.5 41.5t43.5 110.5q0 56 -38 91.5
t-109 35.5q-43 0 -85.5 -20.5t-79 -59.5t-59 -105.5t-22.5 -150.5zM2171 1184h-1856q38 -78 166 -123l125 -45q181 -67 238 -180q138 141 340 141q98 0 157.5 -45t79.5 -117q29 59 104.5 112.5t180.5 53.5q121 0 197.5 -71.5t76.5 -182.5q0 -77 -39.5 -132t-103.5 -81v-8
q68 -20 117 -76t49 -143q0 -116 -78.5 -191.5t-208.5 -75.5q-90 0 -167.5 47.5t-108.5 94.5q10 -40 10 -201v-162h-137q0 112 -87 159.5t-294 70.5q-204 23 -310 79.5t-151 143.5q-10 -2 -31 -2q-125 0 -195.5 68.5t-70.5 183.5v682h-215v131h2212v-131z" />
    <glyph glyph-name="bnK_TTA" horiz-adv-x="1339" 
d="M655 553h9q-13 186 -13 401v21q-117 -22 -225 -78t-184 -127zM1163 1407q0 -26 -8 -92h225v-131h-585v-68q214 -9 333 -103t119 -237q0 -223 -203 -325l-94 110q67 27 109.5 81t42.5 134q0 196 -307 209v-557q-59 -14 -111 -31.5t-107.5 -47.5t-95 -66.5t-65 -90
t-25.5 -116.5q0 -111 85 -172.5t220 -61.5q133 0 206 54t73 135q0 58 -36.5 92.5t-92.5 34.5q-71 0 -117 -43l-78 118q77 66 195 66q115 0 195.5 -73.5t80.5 -198.5q0 -148 -118 -237t-308 -89q-204 0 -329 103t-125 270q0 145 76.5 242.5t195.5 154.5l-420 219v146
q107 105 249.5 178t307.5 94v76h-692v131h1047q10 48 10 82q0 87 -55 125.5t-175 38.5h-337q-92 0 -159 22t-103.5 60.5t-53 83.5t-16.5 98q0 19 4 59l143 31q-1 -8 -2.5 -21.5t-2.5 -25t-1 -21.5q0 -68 43 -110.5t158 -42.5h350q158 0 256 -74.5t98 -212.5z" />
    <glyph glyph-name="bnTT_TTA" horiz-adv-x="1310" 
d="M1110 1407q0 -37 -10 -92h252v-131h-877v-670q0 -77 45.5 -119.5t128.5 -42.5q135 0 227.5 97t92.5 237q0 73 -36.5 118.5t-109.5 45.5q-37 0 -71.5 -19t-55.5 -49l-82 121q33 38 87 63t122 25q132 0 214.5 -84t82.5 -219q0 -110 -41 -203q103 -109 103 -274
q0 -199 -130.5 -318.5t-346.5 -119.5q-231 0 -409 149t-259 395l119 86q71 -221 212.5 -356t333.5 -135q152 0 241 82.5t89 218.5q0 90 -37 145q-63 -69 -152 -107t-194 -38q-146 0 -233.5 78t-87.5 213v680h-369v131h993q9 43 9 82q0 87 -54.5 125.5t-175.5 38.5h-334
q-93 0 -160 22t-103 60.5t-52 83.5t-16 98q0 39 4 59l143 31q-1 -8 -2.5 -21.5t-2.5 -25t-1 -21.5q0 -68 43 -110.5t158 -42.5h346q158 0 257 -74.5t99 -212.5z" />
    <glyph glyph-name="bnNN_TTA" horiz-adv-x="1765" 
d="M1616 1407q0 -48 -8 -92h198v-131h-807v-776q0 -73 40 -117.5t118 -44.5q135 0 235.5 106.5t100.5 249.5q0 83 -36 133.5t-109 50.5q-82 0 -127 -65l-84 119q82 90 211 90q131 0 212.5 -91t81.5 -237q0 -92 -36.5 -181t-100 -159t-156.5 -113t-198 -43q-136 0 -218.5 80
t-82.5 211v262q0 115 -19 207.5t-58 163.5t-105.5 109.5t-155.5 38.5q-134 0 -207.5 -77t-73.5 -198q0 -115 67.5 -178t174.5 -63q92 0 156 49l49 -131q-35 -26 -92 -42t-117 -16q-174 0 -281.5 108t-107.5 273q0 180 114.5 296t311.5 116q118 0 205.5 -48t130.5 -122h8v170
h608q10 48 10 82q0 87 -54.5 125.5t-174.5 38.5h-338q-92 0 -159 22t-103 60.5t-52 83.5t-16 98q0 39 4 59l142 31q-1 -8 -2.5 -21.5t-2.5 -25t-1 -21.5q0 -68 42.5 -110.5t157.5 -42.5h351q158 0 256 -74.5t98 -212.5z" />
    <glyph glyph-name="bnN_TTA" horiz-adv-x="1669" 
d="M1520 1407q0 -31 -11 -92h201v-131h-809v-781q0 -72 39.5 -115.5t118.5 -43.5q137 0 236.5 105.5t99.5 250.5q0 82 -36.5 133t-109.5 51q-39 0 -72.5 -18.5t-54.5 -48.5l-84 119q79 90 211 90q131 0 213 -90t82 -236q0 -92 -36.5 -181.5t-99.5 -159.5t-156 -113.5
t-197 -43.5q-137 0 -220 80.5t-83 210.5v15q-10 63 -27.5 122.5t-48 118t-69 102t-93.5 70.5t-119 27q-84 0 -127 -41.5t-43 -106.5q0 -67 51 -129l-124 -53q-72 79 -72 187q0 123 82.5 201.5t224.5 78.5q252 0 375 -237h8q-20 140 -20 399v37h-791v131h1403q8 58 8 82
q0 87 -54 125.5t-175 38.5h-338q-92 0 -159 22t-103 60.5t-52 83.5t-16 98q0 39 4 59l141 31q-1 -8 -2.5 -21.5t-2.5 -25t-1 -21.5q0 -153 203 -153h348q158 0 257.5 -74.5t99.5 -212.5z" />
    <glyph glyph-name="bnL_TTA" horiz-adv-x="2045" 
d="M1896 1407q0 -26 -8 -92h199v-131h-807v-776q0 -73 40 -117.5t118 -44.5q135 0 235.5 106.5t100.5 249.5q0 82 -37 133t-109 51q-81 0 -129 -65l-82 119q82 90 211 90q131 0 213 -91t82 -237q0 -92 -36.5 -181t-100 -159t-156.5 -113t-198 -43q-136 0 -219 80t-83 211
v320q-14 46 -61 84.5t-117 38.5q-77 0 -124.5 -54t-47.5 -147v-80h-145v78q0 95 -49.5 144.5t-130.5 49.5q-78 0 -132.5 -59.5t-54.5 -163.5q0 -125 74 -196.5t186 -71.5q85 0 150 39l33 -135q-82 -39 -183 -39q-177 0 -295 113t-118 290q0 165 97 265t234 100
q109 0 172 -43.5t89 -106.5h8q19 68 73.5 112t147.5 44q117 0 186 -74h8v279h-1171v131h1780q10 48 10 82q0 87 -54.5 125.5t-174.5 38.5h-338q-92 0 -159 22t-103.5 60.5t-53 83.5t-16.5 98q0 19 4 59l143 31q-1 -8 -2.5 -21.5t-2.5 -25t-1 -21.5q0 -68 43 -110.5
t158 -42.5h350q158 0 256 -74.5t98 -212.5z" />
    <glyph glyph-name="bnSS_TTA" horiz-adv-x="1138" 
d="M995 1407q0 -26 -8 -92h193v-131h-293q90 -99 90 -254q0 -139 -69.5 -234t-188.5 -131q-27 -11 -80 -30.5t-86.5 -32.5t-79.5 -34.5t-75.5 -45t-57.5 -54.5t-41.5 -71t-13.5 -88q0 -115 85.5 -177.5t219.5 -62.5q133 0 205.5 56.5t72.5 138.5q0 58 -35.5 92.5t-91.5 34.5
q-70 0 -116 -43l-78 119q72 65 194 65q114 0 194.5 -73.5t80.5 -198.5q0 -150 -117.5 -242t-308.5 -92q-205 0 -330 104t-125 275q0 136 69.5 227t180.5 143q-104 42 -164.5 134t-60.5 221q0 155 90 254h-291v131h879q10 48 10 82q0 87 -55 125.5t-175 38.5h-272
q-92 0 -159 22t-103.5 60.5t-53 83.5t-16.5 98q0 19 4 59l144 31q-1 -8 -2.5 -21.5t-2.5 -25t-1 -21.5q0 -68 42.5 -110.5t157.5 -42.5h285q158 0 256 -74.5t98 -212.5zM567 676q92 0 156 43l-389 332q-29 -56 -29 -121q0 -114 72.5 -184t189.5 -70zM567 1190
q-89 0 -157 -49l391 -338q30 55 30 127q0 107 -74 183.5t-190 76.5z" />
    <glyph glyph-name="bnP_TTA" horiz-adv-x="1892" 
d="M244 1028q129 -6 223 -80.5t127 -210.5l324 219q-51 107 -138.5 166.5t-208.5 59.5q-114 0 -198 -48.5t-129 -105.5zM1743 1407q0 -48 -8 -92h198v-131h-807v-803q0 -73 39.5 -116.5t118.5 -43.5q135 0 235.5 106.5t100.5 250.5q0 81 -36.5 132.5t-108.5 51.5
q-78 0 -129 -68l-82 119q79 90 211 90q131 0 212.5 -90t81.5 -235q0 -92 -36.5 -181.5t-100 -159.5t-156.5 -113.5t-198 -43.5q-136 0 -218.5 80.5t-82.5 210.5v288q0 80 -16 162l-609 -413l-76 114l201 137q-39 193 -215 236q-46 14 -121 14l-84 125q32 52 78.5 99.5
t109.5 90.5t146.5 69t173.5 26q304 0 432 -246l9 2q-3 7 -9 34.5t-12 77.5t-6 95v33h606q10 48 10 82q0 87 -54.5 125.5t-174.5 38.5h-338q-92 0 -159 22t-103 60.5t-52 83.5t-16 98q0 39 4 59l142 31q-1 -8 -2.5 -21.5t-2.5 -25t-1 -21.5q0 -68 42.5 -110.5t157.5 -42.5
h351q158 0 256 -74.5t98 -212.5z" />
    <glyph glyph-name="bnPH_TTA" horiz-adv-x="1624" 
d="M1509 1407q0 -48 -8 -92h164v-131h-1374v-8l256 -236v-125l-289 -194l502 -259h8q-14 206 -14 404v252q109 47 250 47q85 0 157.5 -20t129.5 -59.5t89.5 -104.5t32.5 -148q0 -68 -21.5 -125t-59.5 -97t-80 -67.5t-93 -46.5l-78 121q185 68 185 211q0 91 -67 144t-167 53
q-74 0 -129 -15v-987q0 -78 41.5 -123t124.5 -45q135 0 231.5 84t96.5 209q0 70 -40 115t-106 45q-38 0 -72 -18.5t-55 -47.5l-84 119q82 90 211 90t212 -82.5t83 -220.5q0 -116 -60 -214.5t-170 -158t-247 -59.5q-145 0 -229 80.5t-84 218.5v293l-654 336v139l304 201
l-281 258v41h-166v131h1393q10 48 10 82q0 87 -54.5 125.5t-174.5 38.5h-338q-92 0 -159 22t-103.5 60.5t-53 83.5t-16.5 98q0 19 4 59l143 31q-1 -8 -2.5 -21.5t-2.5 -25t-1 -21.5q0 -68 43 -110.5t158 -42.5h350q158 0 256 -74.5t98 -212.5z" />
    <glyph glyph-name="bnS_TTA" horiz-adv-x="1333" 
d="M662 1184q5 -134 64 -224t167 -90q85 0 124.5 55t39.5 146q0 61 -15 113h-380zM1180 1407q0 -18 -9 -92h203v-131h-184q12 -58 12 -119q0 -110 -46.5 -191t-133.5 -116q-40 -16 -115 -41.5t-127 -43.5t-115.5 -50.5t-103 -67t-67 -89t-27.5 -120.5q0 -111 86 -175.5
t219 -64.5t207 54.5t74 134.5q0 59 -36 94t-93 35q-67 0 -117 -43l-78 119q72 65 195 65q115 0 197.5 -73.5t82.5 -198.5q0 -150 -120 -241t-312 -91q-203 0 -332 107.5t-129 273.5q0 76 24.5 142t63 113t93 86.5t106.5 64t111 43.5q-86 60 -125 163q-34 -99 -100 -156
t-165 -57q-84 0 -154.5 44t-119.5 116l94 92q43 -56 85 -87.5t95 -31.5q47 0 83 28.5t56.5 77.5t31.5 98t16 106h-547v131h1063q10 48 10 82q0 87 -54.5 125.5t-174.5 38.5h-338q-92 0 -159 22t-103.5 60.5t-53 83.5t-16.5 98q0 19 4 59l144 31q-1 -6 -4 -30.5t-3 -37.5
q0 -68 43 -110.5t158 -42.5h350q158 0 256.5 -74.5t98.5 -212.5z" />
    <glyph glyph-name="bnNN_TTHA" horiz-adv-x="1648" 
d="M1554 446q0 -116 -51 -213t-152.5 -157t-234.5 -60q-217 0 -345 140.5t-128 367.5q65 16 131 43q0 60 -1.5 106t-8.5 114t-19.5 118.5t-36.5 105.5t-57.5 90.5t-84.5 59t-115 23.5q-112 0 -174 -68.5t-62 -175.5q0 -96 58 -155.5t157 -59.5q87 0 148 39l43 -127
q-82 -47 -195 -47q-163 0 -260.5 95t-97.5 255q0 164 99 271.5t284 107.5q217 0 342 -166.5t125 -462.5v-28q79 88 79 253v185q-94 103 -154.5 186.5t-85.5 144.5t-32.5 97.5t-7.5 77.5q0 129 84.5 213.5t210.5 87.5q17 3 49 0l31 -135q-8 2 -31 2q-89 0 -142 -48.5
t-53 -130.5q0 -120 138 -280h686v-131h-586q116 -123 190.5 -210.5t138 -181.5t92.5 -178t29 -168zM805 440q3 -53 23.5 -102t58 -90.5t98 -66.5t135.5 -25q130 0 207.5 83.5t77.5 204.5q0 68 -23 136.5t-66.5 135t-86.5 118.5t-103 116q4 -58 -4 -108q-4 -84 -29.5 -151.5
t-57.5 -108t-78.5 -72t-79 -45t-72.5 -25.5z" />
    <glyph glyph-name="bnN_TTHA" horiz-adv-x="1460" 
d="M1366 446q0 -116 -51 -213t-152.5 -157t-234.5 -60q-212 0 -349 141t-137 365q188 49 269 125q-139 244 -334 244q-81 0 -123.5 -41t-42.5 -105q0 -76 49 -131l-127 -51q-67 77 -67 185q0 124 80.5 202t222.5 78q130 0 236.5 -68t182.5 -190q21 62 21 145v185l-72 84
h-778v131h682q-68 95 -90.5 161t-22.5 130q0 143 95.5 225.5t248.5 79.5l31 -139q-96 3 -160.5 -43t-64.5 -134q0 -57 31.5 -122.5t105.5 -157.5h686v-131h-577q97 -109 151.5 -174t118.5 -149.5t96 -145.5t54 -131.5t22 -137.5zM616 440q7 -111 91.5 -197.5t224.5 -86.5
q130 0 208.5 84t78.5 204q0 68 -23 136.5t-69 136.5t-86.5 117.5t-102.5 117.5q0 -75 -2 -98q-3 -85 -28 -154.5t-57.5 -111t-80 -74.5t-80.5 -47t-74 -27z" />
    <glyph glyph-name="bnSS_TTHA" horiz-adv-x="1388" 
d="M1284 483q0 -86 -30 -163.5t-85 -136.5t-139 -93.5t-186 -34.5q-201 0 -336 130t-152 366q-129 32 -206.5 131t-77.5 248q0 157 84 254h-197v131h610q-114 130 -114 289q0 141 95 227t245 80l30 -139q-101 10 -163 -39t-62 -138q0 -121 137 -280h693v-131h-594
q67 -70 101.5 -107t87 -94.5t78.5 -91.5t62 -82t53 -83t35 -77.5t24.5 -82.5t6.5 -83zM219 934q0 -118 70.5 -192t183.5 -74q86 0 152 47l-385 325q-21 -46 -21 -106zM516 535q14 -153 101 -247.5t231 -94.5q130 0 208.5 84t78.5 204q0 35 -7 69.5t-16.5 63t-30 63t-35 56.5
t-44 58t-45.5 54t-51 57.5t-50 55.5q3 -93 -21.5 -167t-61 -118t-87 -75t-90 -43.5t-80.5 -19.5zM309 1137l391 -332q31 64 31 129q0 109 -73 184.5t-185 75.5q-98 0 -164 -57z" />
    <glyph glyph-name="bnDD_DDA" horiz-adv-x="2328" 
d="M2370 1184h-752v-332q0 -56 23 -84.5t77 -28.5q56 0 152 44t194 135q59 -39 106.5 -126.5t47.5 -193.5q0 -217 -143 -350t-383 -133q-176 0 -310 78t-221 217q-67 -92 -178.5 -142.5t-257.5 -50.5q-150 0 -272.5 58.5t-202.5 160t-125.5 232t-52.5 280.5l143 31
q10 -290 150 -456.5t362 -166.5q169 0 272 91.5t103 244.5q0 84 -33 133q-72 -62 -158.5 -94.5t-171.5 -32.5q-110 0 -172.5 68t-62.5 176v242h-545v131h2411v-131zM1694 256q169 0 273 93t104 245q0 86 -33 135q-72 -62 -160 -96.5t-166 -34.5q-116 0 -181 68t-65 178v340
h-813v-234q0 -110 97 -110q60 0 154.5 41.5t193.5 132.5q60 -42 105.5 -127.5t45.5 -190.5q0 -60 -12 -116q63 -156 182 -240t275 -84z" />
    <glyph glyph-name="bnNN_DDA" horiz-adv-x="1558" 
d="M1372 938q0 -169 -108 -289q63 -48 101 -123.5t38 -171.5q0 -197 -147 -312.5t-373 -115.5q-266 0 -468.5 148t-334.5 409l123 86q248 -499 682 -499q168 0 267 80.5t99 205.5q0 124 -92 199q-65 -46 -164 -96l-96 116q168 80 248 163t80 200q0 63 -36 118.5t-91 94.5
q-101 -172 -158 -246h-123q-55 275 -282 275q-117 0 -179.5 -62t-62.5 -172q0 -106 61.5 -165.5t165.5 -59.5q95 0 162 45l49 -127q-36 -26 -95 -41.5t-120 -15.5q-173 0 -274 105t-101 261q0 170 102 269.5t285 99.5q256 0 357 -230q43 63 137 228h94q113 -68 183.5 -163.5
t70.5 -213.5z" />
    <glyph glyph-name="bnN_DDA" horiz-adv-x="1564" 
d="M1606 1184h-734v-459q0 -113 97 -113q58 0 155 44t195 135q59 -39 106.5 -126.5t47.5 -193.5q0 -221 -142 -352t-383 -131q-120 0 -224 37.5t-181 104.5t-133.5 152t-92.5 187l121 92q66 -202 197.5 -317t312.5 -115q170 0 273.5 93t103.5 245q0 86 -33 135
q-73 -62 -161.5 -96.5t-172.5 -34.5q-76 0 -131 35t-82 96q-150 311 -368 311q-84 0 -127 -40.5t-43 -104.5q0 -69 51 -131l-123 -53q-72 75 -72 186q0 123 82.5 202t223.5 79q226 0 366 -199h8q-16 113 -18 332h-766v131h1647v-131z" />
    <glyph glyph-name="bnB_DDA" horiz-adv-x="1449" 
d="M612 649v346q-90 -37 -191 -98t-175 -121l366 -149v22zM1491 1184h-731v-529q0 -110 96 -110q59 0 155.5 43.5t194.5 134.5q59 -39 106.5 -127.5t47.5 -194.5q0 -220 -141.5 -350.5t-382.5 -130.5q-222 0 -384.5 126t-236.5 329l119 98q61 -197 192.5 -304.5
t309.5 -107.5q170 0 273 92t103 246q0 86 -32 133q-73 -61 -161 -95t-169 -34q-53 0 -102 19l-644 264v158q97 86 242 172.5t266 128.5v39h-651v131h1530v-131z" />
    <glyph glyph-name="bnL_DDA" horiz-adv-x="1939" 
d="M1980 1184h-729v-432q0 -111 97 -111q59 0 156 43.5t196 134.5q57 -39 104 -127t47 -194q0 -220 -141.5 -351t-382.5 -131q-197 0 -343.5 95t-227.5 260l118 102q64 -152 182.5 -234.5t270.5 -82.5q170 0 273.5 93t103.5 245q0 86 -33 137q-72 -62 -160 -96.5t-168 -34.5
q-114 0 -177.5 68t-63.5 177v17q-14 46 -61 84.5t-115 38.5q-76 0 -122 -53t-46 -146v-78h-142v76q0 95 -49.5 144t-130.5 49q-77 0 -129.5 -59.5t-52.5 -164.5q0 -125 70 -194.5t180 -69.5q76 0 139 35l29 -131q-73 -37 -168 -37q-172 0 -286 111t-114 286q0 163 95 263
t231 100q194 0 254 -150h8q19 67 73 111.5t144 44.5q116 0 185 -74h8v236h-1143v131h2021v-131z" />
    <glyph glyph-name="bnNN_DDHA" horiz-adv-x="1765" 
d="M1642 602q0 -92 -36.5 -181t-100 -159t-156.5 -113t-198 -43q-136 0 -218.5 80t-82.5 211v262q0 116 -18.5 208t-57.5 163t-105 109.5t-155 38.5q-135 0 -209 -77t-74 -200q0 -113 67.5 -176t174.5 -63q92 0 156 49l49 -131q-35 -26 -92 -42t-117 -16q-174 0 -281.5 108
t-107.5 273q0 180 114.5 296t311.5 116q118 0 205.5 -48t130.5 -122h8v170h956v-131h-807v-776q0 -73 40 -117.5t118 -44.5q135 0 235.5 106.5t100.5 249.5q0 83 -36 133.5t-109 50.5q-82 0 -127 -65l-84 119q82 90 211 90q131 0 212.5 -91t81.5 -237z" />
    <glyph glyph-name="bnN_DDHA" horiz-adv-x="1671" 
d="M1712 1184h-813v-785q0 -73 40 -116t120 -43q137 0 237.5 105.5t100.5 252.5q0 83 -36 134.5t-108 51.5q-80 0 -131 -69l-82 119q80 92 211 92q132 0 214.5 -91.5t82.5 -236.5q0 -94 -37 -184.5t-100 -160t-155.5 -112.5t-196.5 -43q-141 0 -225 80.5t-84 210.5v10
q-12 83 -38 159t-68.5 144.5t-109 110t-147.5 41.5q-84 0 -127 -41t-43 -106q0 -67 51 -129l-123 -54q-71 74 -71 187q0 123 82 201.5t223 78.5q129 0 227 -64.5t156 -181.5h8q-20 120 -20 398v41h-791v131h1753v-131z" />
    <glyph glyph-name="bnB_DDHA" horiz-adv-x="1613" 
d="M698 446v519q-102 -41 -234.5 -113.5t-248.5 -161.5zM1655 1184h-811v-793q0 -73 44.5 -117.5t129.5 -44.5q135 0 229 105.5t94 253.5q0 84 -38.5 135t-118.5 51q-75 0 -125 -37l-55 127q31 22 80.5 36.5t101.5 14.5q138 0 222.5 -91t84.5 -236q0 -127 -58 -240.5
t-169 -186.5t-248 -73q-114 0 -193 49.5t-110 136.5l-637 330v160q142 118 316.5 213t303.5 139v68h-739v131h1696v-131z" />
    <glyph glyph-name="bnNN_NNA" horiz-adv-x="1267" 
d="M924 473h8q-17 120 -19 270q-2 93 -24 173.5t-64 144.5t-110 100.5t-156 36.5q-135 0 -209 -76.5t-74 -199.5q0 -91 44 -152.5t120 -85.5q58 10 111 10q250 0 373 -221zM1065 -111h-152v150q0 154 -37 268t-118 182t-201 68q-133 0 -207 -76.5t-74 -197.5
q0 -115 68 -178.5t174 -63.5q91 0 158 49l49 -131q-80 -57 -209 -57q-176 0 -282.5 107.5t-106.5 273.5q0 104 40.5 190.5t115.5 140.5q-74 48 -115 128t-41 182q0 180 113.5 295.5t310.5 115.5q252 0 375 -221h8q-19 93 -19 311v93h150v-203h244v-131h-244v-1295z" />
    <glyph glyph-name="bnH_NNA" horiz-adv-x="1048" 
d="M1065 125l-88 -111l-43 21.5t-53 25.5v-628h-146v75q0 213 -77.5 341t-235.5 128q-99 0 -155 -55t-56 -151q0 -87 55 -136t144 -49q77 0 137 29l37 -125q-75 -37 -176 -37q-151 0 -246.5 86t-95.5 232q0 148 91 244t253 96q127 0 212.5 -57.5t125.5 -133.5h8
q-13 66 -19 209q-169 80 -277.5 122t-161 54t-132.5 23v133h127q230 0 340 75.5t110 206.5q0 96 -63 153.5t-170 57.5q-91 0 -149 -48.5t-58 -127.5q0 -41 20.5 -78.5t59.5 -60.5l-107 -80q-57 36 -88.5 96t-31.5 127q0 134 99.5 221t254.5 87q167 0 273 -98t106 -255
q0 -162 -103 -253.5t-278 -112.5v-9q121 -32 280 -106zM1090 1184h-1131v131h1131v-131z" />
    <glyph glyph-name="bnSS_NNA" horiz-adv-x="1622" 
d="M1026 72l-104 -101l-807 498v143l303 258l-314 273v41h-145v131h985v-127q94 121 262 121q130 0 209.5 -78.5t79.5 -198.5q0 -85 -40.5 -145.5t-108.5 -87.5v-8q75 -26 123.5 -87.5t48.5 -156.5q0 -126 -80 -209.5t-221 -83.5q-177 0 -273 133v-266zM266 1184v-6
l533 -459v465h-533zM946 795q0 -117 29.5 -207.5t90.5 -144.5t146 -54q79 0 120.5 47t41.5 117q0 76 -48.5 121t-139.5 45h-49v137h41q83 0 127.5 47t44.5 127q0 64 -40.5 104t-115.5 40q-103 0 -175.5 -99.5t-72.5 -279.5zM805 205h8q-11 172 -14 352l-267 227l-276 -237z
" />
    <glyph glyph-name="bnK_SS_NNA" horiz-adv-x="1785" 
d="M1122 246q-14 172 -14 409v58h-150q-139 0 -225 84.5t-86 236.5v150h-403q90 -124 90 -266q138 -18 238 -125.5t100 -266.5v-37q146 -11 273.5 -88t176.5 -155zM956 850h152v334h-313v-152q0 -182 161 -182zM1827 1184h-572v-334h86q165 0 262 -83.5t97 -223.5
q0 -226 -199 -326l-94 111q67 29 108 83t41 132q0 86 -56.5 128t-153.5 42h-91v-1286h-145v104q0 114 -18.5 204.5t-56.5 159.5t-102.5 106.5t-150.5 37.5q-114 0 -176.5 -61.5t-62.5 -170.5q0 -94 57 -149t160 -55t184 90l51 -127q-98 -98 -237 -98q-162 0 -262.5 93
t-100.5 249q0 159 98.5 260.5t276.5 101.5q74 0 135 -19t102.5 -51t68.5 -64t46 -69h8q-2 14 -6 47q-49 131 -180 229t-293 113q-24 -82 -69.5 -119.5t-92.5 -37.5q-53 0 -83.5 29t-30.5 81q0 55 41.5 101t113.5 67v43q0 106 -59 175.5t-152 90.5q-22 -79 -67.5 -118
t-93.5 -39q-53 0 -83 30t-30 82q0 57 41 102.5t113 65.5q-3 160 -123 273h-117v131h1868v-131z" />
    <glyph glyph-name="bnK_TA" horiz-adv-x="1880" 
d="M866 -143q-122 0 -231 48t-193.5 133t-155.5 205t-121.5 258.5t-86.5 299.5l135 63q88 -409 256 -637.5t399 -228.5q118 0 184 63.5t66 157.5q0 71 -43 127.5t-114 83.5q-47 -30 -132 -70l-100 107q153 67 232 144t79 180q0 66 -42.5 107.5t-118.5 41.5q-90 0 -152.5 -57
t-91.5 -135l-125 75q38 111 137 181.5t230 70.5q105 0 180 -47.5t108 -126.5q105 143 285 143q152 0 249 -90t97 -243q0 -161 -91.5 -248.5t-227.5 -87.5q-102 0 -177 37l35 129q66 -27 131 -27q77 0 129 52.5t52 142.5t-53 143t-146 53q-29 0 -56 -7.5t-47 -16.5t-42 -30
t-35 -36t-33.5 -46.5t-30.5 -48.5t-31.5 -56t-31.5 -56q-24 -44 -72 -92q88 -42 144.5 -119t56.5 -182q0 -157 -108.5 -257.5t-295.5 -100.5zM1921 1184h-1962v131h1962v-131z" />
    <glyph glyph-name="bnT_TA" horiz-adv-x="1394" 
d="M1184 788q0 -152 -115 -270q89 -43 147 -120t58 -183q0 -157 -109 -257.5t-293 -100.5q-124 0 -233 48t-194.5 133t-156 205t-121 258.5t-85.5 299.5l133 63q88 -410 256.5 -638t400.5 -228q117 0 182.5 63.5t65.5 157.5q0 72 -43.5 128.5t-115.5 84.5q-53 -34 -134 -72
l-100 107q153 67 232 144t79 180q0 66 -42.5 107.5t-118.5 41.5q-90 0 -152.5 -57t-91.5 -135l-125 75q38 111 136.5 181.5t227.5 70.5q143 0 227.5 -82t84.5 -205zM1436 1184h-1477v131h1477v-131z" />
    <glyph glyph-name="bnN_TA" horiz-adv-x="1304" 
d="M1346 1184h-267q58 -70 58 -183q0 -136 -88 -215q68 -53 102.5 -139.5t34.5 -193.5q0 -217 -128.5 -350.5t-340.5 -133.5q-111 0 -209 40t-173 111.5t-132.5 160t-98.5 194.5l121 88q32 -96 79 -177.5t107.5 -145.5t138.5 -100t165 -36q153 0 240 97.5t87 253.5
q0 114 -48.5 187t-149.5 73q-66 0 -108 -41t-42 -113q0 -103 86 -153l-100 -84q-61 36 -96 100t-35 143q0 133 92 213q-26 17 -76.5 59.5t-89 62.5t-84.5 20q-54 0 -87.5 -32.5t-33.5 -86.5q0 -70 52 -129l-125 -56q-72 79 -72 189q0 113 68 182.5t190 69.5q65 0 120 -20.5
t92.5 -50.5t73 -59.5t78.5 -50t91 -20.5q79 0 115 47.5t36 112.5q0 71 -41 118.5t-123 47.5h-866v131h1387v-131z" />
    <glyph glyph-name="bnP_TA" horiz-adv-x="1456" 
d="M254 1036q114 -7 209 -72t133 -194l328 227q-120 193 -342 193q-61 0 -117 -16t-96.5 -41t-68 -49t-46.5 -48zM895 -213q-108 0 -205.5 38.5t-175 107.5t-138 159.5t-102.5 198.5l125 88q78 -214 205 -333.5t289 -119.5q155 0 242.5 92.5t87.5 247.5q0 112 -51.5 184
t-149.5 72q-66 0 -108 -40.5t-42 -112.5q0 -102 86 -154l-100 -84q-61 37 -96 101.5t-35 142.5q0 120 75 199t206 85v9q0 104 -29 202l-631 -442l-76 115l209 145q-55 198 -248 225q-35 7 -88 7l-86 118q33 53 79.5 101t110.5 92t148.5 70t177.5 26q91 0 168.5 -24
t132.5 -65t92 -84t62 -91l8 2q-10 26 -21 140.5t-11 226.5v86h151v-203h291v-131h-291v-549q102 -40 156.5 -139.5t54.5 -231.5q0 -216 -129.5 -346.5t-343.5 -130.5z" />
    <glyph glyph-name="bnM_TA" horiz-adv-x="1290" 
d="M840 858q79 0 115 47.5t36 112.5q0 71 -40 118.5t-124 47.5h-446q32 -62 43 -127q56 -5 105 -28t83.5 -51t68 -55.5t74 -46t85.5 -18.5zM1331 1184h-250q58 -70 58 -183q0 -142 -95 -221q63 -53 96.5 -138.5t33.5 -188.5q0 -217 -130 -350.5t-342 -133.5q-110 0 -208 40
t-173.5 111.5t-133.5 161.5t-99 199l123 88q44 -133 111 -235t165.5 -166t212.5 -64q152 0 240 97.5t88 253.5q0 114 -49 187t-150 73q-66 0 -107.5 -41.5t-41.5 -114.5q0 -100 84 -153l-98 -82q-61 39 -96 102t-35 141q0 140 98 219q-21 15 -57 45t-57.5 46.5t-56 30.5
t-69.5 14q-54 0 -87.5 -32.5t-33.5 -86.5q0 -70 52 -129l-125 -56q-72 79 -72 189q0 85 39.5 146t112.5 89q-17 80 -70 142h-250v131h1372v-131z" />
    <glyph glyph-name="bnL_TA" horiz-adv-x="1591" 
d="M1038 -182q-160 0 -296 88t-228 235l104 99q76 -133 183.5 -211t236.5 -78q153 0 240.5 98t87.5 254q0 114 -49 187t-150 73q-67 0 -109 -41t-42 -114q0 -101 88 -152l-100 -84q-61 36 -96.5 100.5t-35.5 143.5q0 103 58 177t162 95v111q-13 44 -59.5 83.5t-114.5 39.5
q-75 0 -119.5 -53.5t-44.5 -147.5v-74h-144v74q0 93 -49 142.5t-131 49.5q-78 0 -130 -59.5t-52 -161.5q0 -124 67.5 -191t173.5 -67q70 0 129 29l33 -135q-67 -33 -162 -33q-169 0 -279 110.5t-110 286.5q0 162 94.5 262.5t229.5 100.5q194 0 254 -146h8q53 152 215 152
q66 0 112 -24t70 -54h9v201h-1133v131h1673v-131h-393v-494q132 -22 201 -129.5t69 -261.5q0 -216 -129 -348.5t-342 -132.5z" />
    <glyph glyph-name="bnSH_TA" horiz-adv-x="1505" 
d="M954 -283q-126 0 -235 50.5t-190.5 139.5t-140.5 200t-97 243l125 92q72 -274 210.5 -429.5t327.5 -155.5q156 0 244 94.5t88 249.5q0 112 -51.5 185t-149.5 73q-65 0 -108 -43t-43 -113q0 -101 86 -153l-102 -89q-61 36 -97.5 102.5t-36.5 147.5q0 107 59.5 183
t166.5 96v303q0 137 -66.5 209t-183.5 72q-96 0 -158.5 -60t-62.5 -168q0 -110 61 -168.5t168 -58.5q63 0 98 14v-135q-47 -14 -100 -14q-207 0 -305 153q-44 -82 -116 -119.5t-181 -37.5q-48 0 -115 16v141q41 -20 113 -20q113 0 171 61t58 166q0 120 -63 180t-176 60h-193
v131h193q226 0 313 -156q42 71 117.5 112.5t169.5 41.5q104 0 175 -40.5t99 -84.5h8q-3 8 -7.5 40t-9.5 93t-5 123v74h147v-203h387v-131h-387v-596q129 -26 201 -132.5t72 -256.5q0 -218 -130.5 -350t-347.5 -132z" />
    <glyph glyph-name="bnS_TA" horiz-adv-x="1345" 
d="M1210 1065q0 -89 -30.5 -160.5t-89.5 -113.5q120 -108 120 -322q0 -216 -129 -348.5t-342 -132.5q-114 0 -213.5 41.5t-175.5 116t-133 166.5t-98 202l121 88q32 -100 79.5 -185t109.5 -152.5t141.5 -105.5t168.5 -38q152 0 240 98t88 254q0 113 -50 186.5t-151 73.5
q-65 0 -107 -41t-42 -114q0 -100 86 -152l-98 -84q-61 36 -97.5 101t-36.5 143q0 72 30 132.5t85 98.5q-63 54 -92 137q-72 -215 -264 -215q-84 0 -156 44.5t-119 115.5l95 92q43 -56 84.5 -87.5t95.5 -31.5q47 0 83 29t56 78t30.5 99t14.5 106h-555v131h1427v-131h-188
q12 -58 12 -119zM672 1184q5 -134 64 -224t167 -90q85 0 124.5 55t39.5 146q0 52 -14 113h-381z" />
    <glyph glyph-name="bnT_THA" horiz-adv-x="1640" 
d="M1530 -18l-103 -117l-1208 395v180q758 7 758 441q0 162 -94 256q-65 -153 -117 -244h-148q0 64 -7.5 113t-27 94t-58.5 69.5t-97 24.5q-87 0 -133.5 -60t-46.5 -155q0 -99 49.5 -158t144.5 -59q67 0 113 26l33 -124q-65 -35 -162 -35q-150 0 -238 93.5t-88 256.5
q0 157 84.5 256.5t239.5 99.5q115 0 190.5 -66.5t100.5 -166.5q60 120 98 213h94q226 -163 226 -434q0 -478 -629 -553v-9l786 -258h8q-12 176 -12 414v1043h150v-203h245v-131h-245v-1170z" />
    <glyph glyph-name="bnN_THA" horiz-adv-x="1218" 
d="M1260 1184h-207q59 -67 59 -183q0 -74 -31 -138.5t-92 -102.5q105 -100 105 -258q0 -168 -103.5 -262t-288.5 -115v-8q73 -19 273 -140l162 -100l-105 -100q-331 206 -432 256t-225 67v129h133q231 0 333.5 71t102.5 204q0 96 -61.5 155.5t-163.5 59.5
q-88 0 -142.5 -48.5t-54.5 -127.5q0 -43 22.5 -82.5t63.5 -61.5l-108 -82q-61 36 -95 98.5t-34 135.5q0 92 49 164.5t135 109.5q-3 2 -17 14t-18 15t-17 13.5t-18 13.5t-17 11t-18.5 10.5t-18 7.5t-21 7t-21 3.5t-22.5 1.5q-54 0 -87.5 -32.5t-33.5 -86.5q0 -71 51 -129
l-125 -56q-72 79 -72 189q0 113 68 182.5t190 69.5q65 0 120 -20.5t92.5 -50.5t73 -59.5t78.5 -50t91 -20.5q78 0 115 48t37 112q0 71 -41 118.5t-123 47.5h-842v131h1301v-131z" />
    <glyph glyph-name="bnM_THA" horiz-adv-x="1218" 
d="M809 858q79 0 115.5 47.5t36.5 112.5q0 71 -40 118.5t-124 47.5h-443q31 -61 43 -127q55 -6 103 -29t82.5 -51t67.5 -55t73.5 -45.5t85.5 -18.5zM1260 1184h-209q57 -69 57 -183q0 -74 -30 -137.5t-91 -101.5q107 -99 107 -260q0 -168 -103.5 -262t-288.5 -115v-8
q73 -19 273 -140l162 -100l-105 -100q-331 206 -432 256t-225 67v129h133q231 0 333.5 71t102.5 204q0 96 -61.5 155.5t-163.5 59.5q-88 0 -142.5 -48.5t-54.5 -127.5q0 -43 22.5 -82.5t63.5 -61.5l-108 -82q-61 36 -95 98.5t-34 135.5q0 92 48.5 164.5t133.5 109.5
q-71 59 -103 75q-42 22 -88 22q-54 0 -87 -32.5t-33 -86.5q0 -71 51 -129l-125 -56q-72 79 -72 189q0 85 40.5 147t115.5 88q-22 85 -70 142h-223v131h1301v-131z" />
    <glyph glyph-name="bnS_THA" horiz-adv-x="1345" 
d="M1184 1065q0 -182 -113 -270q65 -46 101 -118.5t36 -160.5q0 -172 -107 -266t-294 -115v-8q97 -29 283 -141l143 -88l-107 -105q-230 143 -329.5 199t-159.5 78t-148 34v134h132q157 0 256.5 35.5t140.5 95.5t41 147q0 96 -61.5 153.5t-163.5 57.5q-88 0 -142.5 -48.5
t-54.5 -127.5q0 -88 86 -143l-113 -82q-59 36 -91 98t-32 135q0 86 43.5 156t120.5 110q-55 49 -84 129q-72 -215 -264 -215q-84 0 -155.5 44.5t-118.5 115.5l94 92q43 -56 84.5 -87.5t95.5 -31.5q47 0 83 29t56 78t30.5 99t14.5 106h-528v131h1427v-131h-215
q13 -63 13 -119zM645 1184q5 -134 64.5 -224t167.5 -90q84 0 123.5 55t39.5 146q0 52 -14 113h-381z" />
    <glyph glyph-name="bnG_DA" horiz-adv-x="1816" 
d="M688 762q0 -222 -246 -389l-110 100q205 135 205 293q0 71 -51.5 110t-133.5 39q-101 0 -194 -41l-109 109q49 147 176 240.5t297 93.5q77 0 144 -21.5t112.5 -57.5t74.5 -67.5t50 -66.5h8q-24 96 -24 201v10h971v-131h-826v-611q82 109 230.5 234.5t273.5 177.5l137 -76
q-71 -219 -71 -491v-418h-150v422q0 223 53 393q-253 -166 -471 -469l-153 68v356q0 109 -39 200.5t-121.5 150.5t-194.5 59q-110 0 -190.5 -51.5t-122.5 -124.5q75 32 172 32q130 0 216.5 -73.5t86.5 -200.5z" />
    <glyph glyph-name="bnD_DA" horiz-adv-x="1673" 
d="M1470 -180h-149v391q0 246 49 389q-132 -87 -255.5 -207.5t-223.5 -257.5l-154 84v209q0 125 17 246t43 194q-247 -162 -467 -465l-152 82v699h-219v131h1755v-131h-1386v-553q84 109 231.5 234t271.5 177l140 -75q-80 -251 -80 -518v-93q81 107 234.5 236t279.5 182
l137 -78q-72 -222 -72 -491v-385z" />
    <glyph glyph-name="bnN_DA" horiz-adv-x="1677" 
d="M1718 1184h-825v-611q82 109 230.5 234.5t273.5 177.5l137 -76q-72 -222 -72 -491v-418h-149v422q0 223 53 393q-253 -166 -471 -469l-154 68q-12 59 -29 112.5t-47 114.5t-66 105t-89 73t-115 29q-84 0 -127 -41.5t-43 -106.5q0 -67 51 -129l-122 -53q-72 75 -72 187
q0 123 82 201.5t223 78.5q126 0 220.5 -68t146.5 -180h8q-21 147 -21 400v47h-782v131h1759v-131z" />
    <glyph glyph-name="bnB_DA" horiz-adv-x="1585" 
d="M1366 0h-147v428q0 211 49 379q-236 -157 -469 -477l-682 334v151q83 74 228 162t300 141v66h-686v131h1667v-131h-829v-625q84 111 231 239t270 179l140 -76q-72 -213 -72 -479v-422zM645 559v414q-98 -39 -208.5 -101.5t-178.5 -119.5z" />
    <glyph glyph-name="bnM_DA" horiz-adv-x="1658" 
d="M778 858q79 0 115.5 47.5t36.5 112.5q0 71 -40 118.5t-124 47.5h-436q31 -61 43 -129q53 -7 100 -30t81 -50.5t66.5 -54t72.5 -44.5t85 -18zM1700 1184h-680q57 -69 57 -183q0 -101 -54 -178.5t-163 -99.5v-209q96 104 244 218.5t262 158.5l137 -76q-71 -219 -71 -479
v-365h-148v371q0 207 49 375q-126 -84 -231 -180t-242 -244l-151 65v367q-49 10 -93 34.5t-75.5 51t-63 52.5t-67.5 42.5t-76 16.5q-56 0 -89.5 -32.5t-33.5 -86.5q0 -71 51 -129l-123 -56q-71 74 -71 189q0 88 41 150.5t118 86.5q-22 85 -69 140h-199v131h1741v-131z" />
    <glyph glyph-name="bnL_DA" horiz-adv-x="2068" 
d="M1847 0h-147v436q0 211 49 379q-247 -162 -471 -469l-152 68v331q-14 46 -61 84.5t-115 38.5q-76 0 -122 -53t-46 -147v-78h-147v76q0 95 -49.5 145.5t-130.5 50.5q-78 0 -131.5 -60.5t-53.5 -166.5q0 -124 71 -194t183 -70q86 0 150 37l31 -136q-82 -39 -181 -39
q-178 0 -292.5 113t-114.5 291q0 165 96 264.5t233 99.5q198 0 261 -147h8q49 156 219 156q113 0 184 -76h8v250h-1167v131h2150v-131h-831v-611q82 108 230 234t272 178l139 -76q-72 -213 -72 -479v-430z" />
    <glyph glyph-name="bnG_DHA" horiz-adv-x="1597" 
d="M891 -90h8q-14 200 -14 364v68q-224 -104 -404 -217zM692 758q0 -222 -237 -385l-117 98q203 133 203 289q0 73 -51 111t-136 38q-102 0 -192 -41l-109 115q47 147 175 240.5t298 93.5q76 0 143 -21.5t113 -57.5t75 -68t50 -66h8q-4 14 -10.5 54t-13 116t-6.5 151v93h145
v-203h608v-131h-608v-619q220 92 320 115l123 -113q-2 -4 -5.5 -13.5t-12.5 -48t-16 -87t-12.5 -135.5t-5.5 -189v-178h-145v178q0 282 45 424q-167 -58 -291 -112v-568l92 -45l-106 -104l-686 356v156q221 146 553 299v270q0 110 -38.5 201t-120.5 150t-194 59
q-110 0 -191.5 -51.5t-121.5 -124.5q75 32 172 32q133 0 218 -74.5t85 -203.5z" />
    <glyph glyph-name="bnN_DHA" horiz-adv-x="1499" 
d="M788 113h9q-15 215 -15 364v68q-216 -100 -403 -215zM1540 1184h-612v-416q223 93 321 115l123 -111q-2 -4 -5.5 -13.5t-13 -48t-16.5 -87.5t-12.5 -136t-5.5 -190v-178h-145v178q0 281 45 424q-152 -53 -291 -111v-569l92 -47l-107 -103l-686 359v153q228 148 490 271
q-119 211 -301 211q-84 0 -127 -41t-43 -105q0 -69 51 -131l-123 -53q-72 75 -72 186q0 123 82.5 202t223.5 79q129 0 226 -62.5t157 -177.5h8q-19 114 -19 398v4h-821v131h1581v-131z" />
    <glyph glyph-name="bnD_DHA" horiz-adv-x="1460" 
d="M748 -10h8q-15 215 -15 364v68q-216 -100 -403 -215zM1501 1184h-1182v-475q104 101 247 204.5t265 153.5l127 -72q-49 -156 -65 -348q209 89 315 113l123 -111q-2 -4 -5.5 -13.5t-13 -48t-16.5 -87.5t-12.5 -136t-5.5 -190v-186h-145v188q0 280 45 422
q-152 -53 -291 -111v-569l92 -45l-105 -104l-688 358v154q235 157 557 303q9 171 50 317q-140 -93 -246 -180t-225 -215l-150 65v613h-213v131h1542v-131z" />
    <glyph glyph-name="bnB_DHA" horiz-adv-x="1439" 
d="M1481 1184h-609v-619q228 97 320 119l123 -111q-2 -4 -5.5 -14t-12.5 -48.5t-15.5 -87.5t-12 -136t-5.5 -189v-178h-146v178q0 276 41 422q-141 -50 -287 -114v-601l93 -43l-105 -102l-745 352v154q171 116 452 258l-452 213v149q123 97 291 187t321 145v66h-768v131
h1522v-131zM733 -133h8q-14 203 -14 401v72q-240 -113 -463 -248zM262 719l459 -221q2 1 8.5 4t11.5 4q-14 195 -14 387v76q-274 -112 -465 -250z" />
    <glyph glyph-name="bnL_DHA" horiz-adv-x="1830" 
d="M1118 61h8q-14 203 -14 367v74q-214 -99 -410 -219zM1872 1184h-615v-461q212 89 320 117l123 -113q-2 -4 -5.5 -13.5t-12.5 -48t-15.5 -87.5t-12 -136t-5.5 -190v-176h-146v178q0 276 41 422q-128 -45 -287 -111v-575l93 -45l-109 -107l-684 357v163q221 147 555 301
v119q-15 46 -61 84.5t-117 38.5q-75 0 -122.5 -54t-47.5 -147v-77h-143v75q0 94 -49.5 144.5t-125.5 50.5q-86 0 -139 -60.5t-53 -166.5q0 -102 48.5 -163.5t131.5 -84.5l-53 -131q-131 37 -205 137t-74 242q0 166 95.5 266t240.5 100q98 0 162 -40.5t90 -100.5h8
q23 65 83 107t143 42q115 0 180 -75h8v219h-1153v131h1913v-131z" />
    <glyph glyph-name="bnK_NA" horiz-adv-x="1425" 
d="M741 575h9q-15 214 -15 398q-112 -22 -219 -79t-190 -130zM1466 1184h-585v-64q213 -9 332.5 -108t119.5 -244q0 -116 -56 -200t-147 -132l-94 111q69 32 111.5 87.5t42.5 135.5q0 93 -85.5 151t-223.5 64v-1104h-142q-18 81 -49.5 151.5t-75.5 128t-104 91t-129 33.5
q-80 0 -123 -41t-43 -105q0 -69 49 -125l-125 -53q-67 74 -67 186q0 120 81.5 198.5t219.5 78.5q125 0 221.5 -67t155.5 -185h8q-15 46 -21 250l-557 252v153q107 107 249.5 184.5t305.5 100.5v72h-776v131h1507v-131z" />
    <glyph glyph-name="bnG_NA" horiz-adv-x="1234" 
d="M692 766q0 -101 -50.5 -191.5t-127.5 -152.5l-127 88q68 49 112 118t44 142q0 72 -50.5 106.5t-136.5 34.5q-99 0 -194 -43l-109 115q48 150 175 242t298 92q76 0 143 -21.5t113 -57.5t75 -68t50 -66h8q-4 14 -10.5 54t-13 116t-6.5 151v93h145v-203h246v-131h-246v-1338
h-141q-18 82 -49 152.5t-75 128t-104.5 90.5t-130.5 33q-80 0 -122.5 -40.5t-42.5 -105.5q0 -60 49 -124l-125 -52q-68 75 -68 185q0 120 81.5 198t219.5 78q125 0 221.5 -67t155.5 -185l8 2q-3 8 -7 41.5t-9 104t-6 149.5v336q0 109 -39 200.5t-121.5 150.5t-194.5 59
q-110 0 -191 -51t-124 -125q75 32 172 32q137 0 221 -71t84 -199z" />
    <glyph glyph-name="bnGH_NA" horiz-adv-x="1226" 
d="M1024 -285h-143q-37 167 -131.5 271t-233.5 104q-80 0 -123 -41t-43 -106q0 -66 49 -125l-125 -51q-67 74 -67 184q0 121 82.5 198.5t220.5 77.5q128 0 226 -62t155 -173l8 2q-17 87 -22 274l-746 199v154l98 59q36 22 68.5 39.5t50.5 26t34.5 16t18.5 8.5v8
q-135 7 -207.5 73.5t-72.5 178.5q0 88 47 154h-209v131h1309v-131h-244v-1469zM883 412l8 2q-14 195 -14 411v359h-537q-70 -60 -70 -150q0 -78 53 -115.5t134 -37.5q67 0 117 14.5t106 48.5l63 -123l-428 -258z" />
    <glyph glyph-name="bnC_NA" horiz-adv-x="1044" 
d="M1085 1184h-751q19 -38 58.5 -64.5t105.5 -52.5l137 -49q139 -49 200.5 -116.5t61.5 -186.5q0 -83 -37 -156v-852h-143q-37 165 -131.5 268t-231.5 103q-78 0 -119.5 -40.5t-41.5 -103.5t49 -127l-125 -53q-68 78 -68 187q0 119 80.5 197.5t218.5 78.5q127 0 225 -61.5
t154 -171.5h8q-22 132 -22 335v74q-116 -76 -256 -76q-130 0 -205.5 70.5t-75.5 192.5v604h-217v131h1126v-131zM324 584q0 -129 135 -129q108 0 199.5 77.5t91.5 182.5q0 63 -33 99t-133 71l-101 35q-114 41 -159 102h-9q0 -14 4.5 -107t4.5 -204v-127z" />
    <glyph glyph-name="bnD_NA" horiz-adv-x="1058" 
d="M1100 1184h-778v-488q86 101 228 214t263 163l133 -76q-65 -204 -65 -458v-668h-142q-18 81 -50 151.5t-76 128t-104.5 90.5t-129.5 33q-80 0 -122 -40t-42 -103t49 -127l-123 -53q-69 76 -69 186q0 120 80.5 198.5t218.5 78.5q126 0 223 -67t156 -185h8q-25 150 -25 336
v45q0 195 51 366q-249 -165 -460 -420l-150 64v631h-215v131h1141v-131z" />
    <glyph glyph-name="bnDH_NA" horiz-adv-x="1183" 
d="M981 -283h-143q-37 165 -133.5 269t-235.5 104q-80 0 -122 -41t-42 -104q0 -69 49 -125l-125 -53q-69 76 -69 184q0 119 81 198.5t218 79.5q129 0 229.5 -62.5t159.5 -176.5h8q-17 87 -22 266l-687 260v156l74 41q45 25 92.5 46.5t72.5 30.5l24 9v8q-132 8 -211.5 75
t-79.5 181q0 119 77.5 193.5t215.5 74.5q63 0 123 -18.5t98 -50.5l-55 -115q-70 51 -158 51q-69 0 -110.5 -38t-41.5 -101q0 -73 62.5 -108.5t148.5 -35.5q87 0 170 34t185 98v268h391v-131h-244v-1467zM844 401h8q-18 202 -18 390v92l-517 -279z" />
    <glyph glyph-name="bnT_NA" horiz-adv-x="1288" 
d="M1190 709q0 -116 -42.5 -210.5t-119.5 -156.5v-719h-143q-38 170 -135.5 287t-233.5 117q-79 0 -121.5 -40.5t-42.5 -103.5t49 -127l-122 -51q-70 73 -70 184q0 120 80.5 198.5t218.5 78.5q126 0 225.5 -68t161.5 -188h8q-22 132 -22 336v20q-64 -20 -148 -20
q-136 0 -250 59t-194.5 163t-135.5 232.5t-85 280.5l133 66q23 -138 67 -256t109 -211.5t156.5 -147t199.5 -53.5q147 0 230.5 92t83.5 240q0 119 -48.5 184.5t-140.5 65.5q-66 0 -106.5 -38t-40.5 -106q0 -94 82 -139l-105 -86q-57 32 -90 94t-33 137q0 115 80 194t209 79
q162 0 249 -108.5t87 -278.5zM1329 1184h-1370v131h1370v-131z" />
    <glyph glyph-name="bnN_NA" horiz-adv-x="1144" 
d="M1186 1184h-246v-1247h-137q-10 60 -30.5 121t-54 120t-76 104t-99 73t-119.5 28q-81 0 -123.5 -41t-42.5 -106q0 -68 51 -130l-125 -53q-71 78 -71 187q0 123 82.5 201.5t224.5 78.5q128 0 227 -68.5t158 -185.5h8q-11 56 -16 230q-18 73 -50 140.5t-77.5 126.5
t-109.5 94.5t-136 35.5q-81 0 -123.5 -40.5t-42.5 -104.5q0 -68 51 -130l-125 -53q-71 78 -71 187q0 123 81.5 200.5t223.5 77.5q127 0 226 -69t161 -185h8q-20 140 -20 406v2h-834v131h1227v-131z" />
    <glyph glyph-name="bnP_NA" horiz-adv-x="1306" 
d="M223 1036q106 -5 197.5 -62.5t134.5 -172.5l313 215q-112 174 -317 174q-114 0 -200 -49t-128 -105zM1102 -78h-139q-19 80 -51.5 150.5t-78.5 131t-110 95.5t-137 35q-81 0 -123.5 -42t-42.5 -106q0 -67 51 -129l-125 -53q-70 77 -70 186q0 123 82.5 202t223.5 79
q128 0 227 -68.5t158 -185.5h8q-21 147 -21 391v60q0 119 -30 221l-613 -426l-75 117l204 141q-56 158 -225 186q-37 11 -94 11l-86 124q33 52 80 99.5t110 90.5t146.5 69t173.5 26q306 0 434 -246l8 2q-9 23 -21 139.5t-12 225.5v70h148v-203h246v-131h-246v-1262z" />
    <glyph glyph-name="bnM_NA" horiz-adv-x="1206" 
d="M809 858q79 0 115.5 47.5t36.5 112.5q0 71 -40 118.5t-124 47.5h-443q31 -61 43 -127q55 -6 103 -29t82.5 -51t67.5 -55t73.5 -45.5t85.5 -18.5zM1245 1184h-194q57 -69 57 -183q0 -75 -31 -140t-94 -103v-758h-139q-19 115 -66 212.5t-127 163.5t-178 66q-80 0 -122 -41
t-42 -104q0 -68 49 -127l-125 -51q-69 76 -69 184q0 119 82 198t219 79q127 0 225.5 -66.5t161.5 -187.5h8q-3 10 -7.5 50.5t-9.5 135t-5 205.5h-21q-67 0 -123.5 21t-95 51t-73.5 60.5t-76.5 51.5t-86.5 21q-54 0 -87 -32.5t-33 -86.5q0 -71 51 -129l-125 -56
q-72 79 -72 189q0 85 40.5 147t115.5 88q-22 85 -70 142h-223v131h1286v-131z" />
    <glyph glyph-name="bnSH_NA" horiz-adv-x="1257" 
d="M422 754q-45 -81 -108 -116.5t-167 -35.5q-39 0 -77 6v135q33 -8 75 -8q110 0 159.5 60.5t49.5 162.5q0 103 -57 164.5t-170 61.5h-168v131h176q202 0 291 -150q87 150 264 150q153 0 234 -109h8q-3 8 -8 39.5t-10 92t-5 120.5v60h146v-203h243v-131h-243v-1204h-146
q-11 58 -30.5 112.5t-51 108t-71 93t-94.5 63.5t-117 24q-81 0 -123.5 -40t-42.5 -103t49 -127l-125 -52q-67 74 -67 185q0 119 81 197.5t218 78.5q128 0 226.5 -63t160.5 -181h8q-23 161 -23 334v291q0 281 -207 281q-91 0 -147.5 -59.5t-56.5 -166.5q0 -104 61 -162.5
t164 -58.5q17 0 57 4v-129q-24 -6 -59 -6q-202 0 -297 150z" />
    <glyph glyph-name="bnS_NA" horiz-adv-x="1292" 
d="M1196 1065q0 -100 -39.5 -178t-114.5 -117v-770h-137q-15 83 -44 159t-73.5 142t-110 105.5t-142.5 39.5q-83 0 -124.5 -40t-41.5 -105q0 -69 49 -125l-125 -53q-70 77 -70 186q0 119 82 198t219 79q127 0 225.5 -63.5t159.5 -180.5h9q-2 12 -6.5 56t-9.5 132t-5 170v37
h-6q-116 0 -196 61.5t-115 155.5q-72 -215 -265 -215q-84 0 -155.5 44t-120.5 116l96 92q43 -56 84.5 -87.5t95.5 -31.5q47 0 82 29t55.5 78.5t31.5 98.5t16 106h-541v131h1374v-131h-149q12 -58 12 -119zM657 1184q3 -134 62.5 -224t167.5 -90q85 0 124.5 55t39.5 146
q0 56 -13 113h-381z" />
    <glyph glyph-name="bnH_NA" horiz-adv-x="1552" 
d="M938 14l-107 -102q-379 229 -483 282t-221 70v131h125q117 0 204 24t137 66.5t73.5 95t23.5 115.5q0 100 -62 161t-163 61q-88 0 -143.5 -49t-55.5 -128q0 -43 22.5 -82t65.5 -61l-108 -82q-62 36 -95.5 98.5t-33.5 135.5q0 132 97 219.5t249 87.5q120 0 211 -55
t133 -150q106 188 311 188q153 0 248.5 -89t95.5 -244q0 -160 -91 -246t-228 -86q-112 0 -185 37l37 127q74 -27 138 -27q78 0 130 51t52 144q0 90 -52.5 142t-146.5 52q-59 0 -107.5 -27.5t-83.5 -78t-58.5 -102.5t-45.5 -120q-35 -118 -136 -189.5t-253 -88.5v-8
q97 -26 287 -142zM1593 1184h-1634v131h1634v-131z" />
    <glyph glyph-name="bnK_SS_NA" horiz-adv-x="1785" 
d="M1122 246q-14 172 -14 409v58h-150q-139 0 -225 84.5t-86 236.5v150h-403q90 -124 90 -266q138 -18 238 -125.5t100 -266.5v-37q146 -11 273.5 -88t176.5 -155zM956 850h152v334h-313v-152q0 -182 161 -182zM1827 1184h-572v-334h86q165 0 262 -83.5t97 -223.5
q0 -226 -199 -326l-94 111q67 29 108 83t41 132q0 86 -56.5 128t-153.5 42h-91v-1159h-135q-39 79 -86.5 145.5t-107 123.5t-133.5 89.5t-154 32.5q-86 0 -130 -41t-44 -105q0 -99 113 -153l-107 -82q-67 30 -108 93t-41 148q0 119 82 198t221 79q136 0 268.5 -74
t230.5 -225h9q0 1 -2 11.5t-4 22t-4.5 34t-4 47t-3 62t-1.5 79.5q-56 124 -182.5 214t-280.5 105q-24 -82 -69.5 -119.5t-92.5 -37.5q-53 0 -83.5 29t-30.5 81q0 55 41.5 101t113.5 67v43q0 106 -59 175.5t-152 90.5q-22 -79 -67.5 -118t-93.5 -39q-53 0 -83 30t-30 82
q0 57 41 102.5t113 65.5q-3 160 -123 273h-117v131h1868v-131z" />
    <glyph glyph-name="bnM_PA" horiz-adv-x="2193" 
d="M1085 1036q58 -4 112 -22.5t104 -54t87 -95.5t52 -139l344 223q-54 113 -149 177.5t-220 64.5q-114 0 -200 -49t-130 -105zM1989 0h-148v668q0 81 -14 147l-643 -420l-76 115l215 139q-46 232 -254 262q-25 -86 -94 -140t-182 -54q-67 0 -124 21t-95.5 51t-73.5 60.5
t-76 51.5t-86 21q-54 0 -87.5 -32.5t-33.5 -86.5q0 -71 51 -129l-125 -56q-71 78 -71 189q0 85 40.5 147t114.5 88q-22 86 -69 142h-199v131h934q89 -44 141 -127q160 139 377 139q90 0 167.5 -24t132 -65t91.5 -84t62 -91l6 2q-9 28 -20 143t-11 224v86h150v-203h245v-131
h-245v-1184zM784 858q78 0 115 48t37 112q0 71 -41 118.5t-123 47.5h-442q31 -61 43 -127q55 -6 102.5 -29t82 -51t67.5 -55t73.5 -45.5t85.5 -18.5z" />
    <glyph glyph-name="bnL_PA" horiz-adv-x="1452" 
d="M350 207q111 -8 202.5 -68t135.5 -180l322 223q-117 180 -332 180q-113 0 -197.5 -49t-130.5 -106zM1493 1184h-246v-1600h-145v256q0 122 -33 217l-616 -434l-86 113l206 143q-63 182 -249 203q-10 3 -78 6l-86 119q32 52 78 100t109.5 93t148 72t176.5 26
q91 -1 168 -25t130.5 -64.5t90 -82.5t61.5 -90h8q-9 22 -20.5 140.5t-11.5 231.5v183q-15 47 -57.5 84.5t-110.5 37.5q-75 0 -118.5 -54t-43.5 -146v-56h-141v54q0 89 -49 141.5t-129 52.5q-78 0 -124 -47.5t-46 -134.5q0 -46 23.5 -92t64.5 -78l-111 -88
q-58 42 -94.5 114.5t-36.5 143.5q0 144 89 233t226 91q101 0 164 -43t90 -105h8q22 66 74 110t137 44q108 0 177 -74h8v205h-1139v131h1534v-131z" />
    <glyph glyph-name="bnSS_PA" horiz-adv-x="1996" 
d="M885 1034q60 -3 116 -21.5t108.5 -53t91 -94t54.5 -136.5l334 217q-54 114 -148.5 179t-221.5 65q-115 0 -203 -49.5t-131 -106.5zM1794 0h-149v668q0 75 -15 143l-639 -420l-76 115l224 145q-49 219 -254 252q-9 -166 -122 -268.5t-280 -102.5q-175 0 -288 109.5
t-113 286.5q0 149 92 256h-215v131h524q101 0 185.5 -38.5t138.5 -109.5q174 160 407 160q90 0 167.5 -24t132 -65t91.5 -84t62 -91l8 2q-10 26 -21.5 141t-11.5 226v86h152v-203h244v-131h-244v-1184zM483 670q88 0 156 49l-387 325q-25 -55 -25 -116q0 -113 72.5 -185.5
t183.5 -72.5zM483 1184q-91 0 -153 -47l385 -326q24 53 24 117q0 112 -72.5 184t-183.5 72z" />
    <glyph glyph-name="bnS_PA" horiz-adv-x="2306" 
d="M2101 0h-147v668q0 76 -15 147l-645 -420l-75 115l217 139q-24 114 -86.5 182.5t-180.5 81.5q-33 -82 -104 -129t-174 -47q-115 0 -196 62.5t-117 154.5q-32 -101 -98 -158t-167 -57q-82 0 -154 44t-120 116l96 92q41 -55 83 -87t95 -32q47 0 83 29t56.5 78.5t31.5 98.5
t16 106h-541v131h1188q21 -59 33 -105q151 117 344 117q89 0 166 -24t131 -65t91 -84t62 -91l8 2q-9 27 -19.5 142t-10.5 225v86h149v-203h246v-131h-246v-1184zM657 1184q3 -134 62.5 -224t167.5 -90q85 0 124.5 55t39.5 146q0 61 -15 113h-379zM1198 1036
q125 -9 224.5 -84t129.5 -225l344 221q-54 113 -148.5 177.5t-221.5 64.5q-113 0 -198.5 -49t-129.5 -105z" />
    <glyph glyph-name="bnP_PA" horiz-adv-x="1370" 
d="M264 348q109 -8 199.5 -67t136.5 -175l322 226q-121 170 -328 170q-114 0 -200 -49t-130 -105zM264 1036q112 -8 204.5 -69.5t135.5 -182.5l322 230q-55 83 -140 129.5t-192 46.5q-114 0 -200 -49t-130 -105zM1165 -252h-145v232q0 125 -37 229l-627 -440l-75 116
l204 142q-64 174 -249 196q-32 4 -74 4l-86 121q62 99 164 174l249 178q-63 191 -258 213q-16 5 -69 7l-86 120q33 54 79.5 102t109.5 91t147 68.5t176 25.5q90 0 167.5 -24t131.5 -65t91 -84t62 -91l9 2q-9 28 -20 143t-11 224v86h147v-203h246v-131h-246v-1436zM1040 373
h9q-7 23 -18 121t-11 194q-3 110 -33 201l-172 -121q-96 -66 -211 -137q87 -2 161.5 -26t127 -63.5t88 -80.5t59.5 -88z" />
    <glyph glyph-name="bnM_PHA" horiz-adv-x="1984" 
d="M782 858q79 0 115.5 47.5t36.5 112.5q0 71 -40 118.5t-124 47.5h-442q32 -62 43 -127q56 -5 104 -28t82 -51t67 -55.5t73 -46t85 -18.5zM2025 1184h-993q49 -79 49 -183q0 -126 -75 -204l92 -103v-129l-293 -225l434 -209h8q-18 221 -18 404v446q111 51 239 51
q179 0 298.5 -98.5t119.5 -269.5q0 -133 -69 -226t-172 -139l-91 117q86 33 135.5 97t49.5 151q0 114 -72 170.5t-180 56.5q-48 0 -111 -17v-808l86 -41l-106 -111l-707 342v150l303 233l-75 86q-54 -8 -84 -8q-67 0 -123.5 21t-94.5 51t-72.5 60.5t-75 51.5t-85.5 21
q-54 0 -87.5 -32.5t-33.5 -86.5q0 -71 51 -129l-125 -56q-71 78 -71 189q0 84 39 145.5t110 87.5q-19 87 -67 144h-199v131h2066v-131z" />
    <glyph glyph-name="bnS_PHA" horiz-adv-x="2088" 
d="M670 1184q3 -134 62 -224t167 -90q85 0 124.5 55t39.5 146q0 61 -12 113h-381zM1208 1065q0 -175 -104 -260l98 -111v-129l-293 -225l434 -209h9q-19 233 -19 404v446q111 51 240 51q179 0 298.5 -98.5t119.5 -269.5q0 -133 -69.5 -226t-172.5 -139l-92 117
q87 33 136.5 97t49.5 151q0 114 -72 170.5t-180 56.5q-47 0 -110 -17v-808l84 -41l-105 -111l-706 342v150l303 233l-92 102q-36 -4 -62 -4q-117 0 -197 60.5t-116 156.5q-32 -101 -97.5 -158t-164.5 -57q-84 0 -156.5 44t-120.5 116l96 92q88 -119 181 -119q47 0 82 29
t55 78.5t31 98.5t16 106h-553v131h2171v-131h-934q12 -58 12 -119z" />
    <glyph glyph-name="bnL_PHA" horiz-adv-x="2275" 
d="M2316 1184h-1081v-316l149 -178v-123l-297 -213l441 -221h8q-18 265 -18 406v442q111 51 243 51q115 0 208.5 -42t150.5 -127t57 -199q0 -133 -69 -226t-173 -139l-90 117q86 33 136.5 97t50.5 151q0 114 -72.5 170.5t-181.5 56.5q-45 0 -111 -17v-813l84 -41l-104 -108
l-711 358v148l301 219l-152 176q-30 37 -48 56t-53.5 38t-74.5 19q-67 0 -108 -53.5t-41 -145.5v-78h-142v76q0 95 -49.5 144t-130.5 49q-76 0 -129 -59.5t-53 -162.5q0 -126 67.5 -196t178.5 -70q79 0 139 35l29 -131q-79 -39 -168 -39q-172 0 -284 112t-112 289
q0 162 95.5 261.5t230.5 99.5q108 0 169 -47.5t83 -108.5h10q16 67 68 114.5t143 47.5q112 0 172 -76h8v197h-1126v131h2357v-131z" />
    <glyph glyph-name="bnSS_PHA" horiz-adv-x="1892" 
d="M483 1186q-85 0 -149 -45l383 -322q22 52 22 109q0 112 -73.5 185t-182.5 73zM483 672q95 0 160 53l-387 326q-29 -60 -29 -123q0 -110 73 -183t183 -73zM1362 -53l-107 -109l-700 338v148l287 211l-101 86q-108 -84 -258 -84q-173 0 -287 109.5t-114 281.5q0 149 92 256
h-215v131h1974v-131h-1140q92 -107 92 -256q0 -114 -51 -199l157 -135v-129l-278 -205l426 -207h8q-19 233 -19 439v462q116 50 242 50q178 0 297 -98.5t119 -270.5q0 -132 -69 -224.5t-173 -138.5l-90 115q86 35 135 99t49 151q0 113 -72 170t-180 57q-51 0 -110 -16v-860z
" />
    <glyph glyph-name="bnD_BHA" horiz-adv-x="1318" 
d="M1360 1184h-817v-432q90 87 227.5 179t263.5 146l133 -78q-63 -195 -63 -458v-27q63 -63 105 -161t42 -216q0 -205 -134 -336t-365 -131q-118 0 -221 40.5t-180 110t-139 167t-102.5 207t-66.5 235.5l129 53q22 -109 55 -205.5t84 -183.5t113.5 -149t146.5 -98.5
t181 -36.5q167 0 262.5 92t95.5 237q0 114 -53 211h-8q-115 -252 -314 -252q-119 0 -190.5 70t-71.5 174q0 82 41 143l145 -26q-43 -43 -43 -113q0 -54 31 -85.5t90 -31.5q63 0 114 52t107 180v80q0 212 48 370q-232 -129 -461 -356l-150 63v566h-436v131h1401v-131z" />
    <glyph glyph-name="bnM_BHA" horiz-adv-x="1310" 
d="M856 858q78 0 114 47.5t36 112.5q0 71 -40 118.5t-124 47.5h-447q32 -62 43 -127q56 -5 105 -28t84 -51t68.5 -55.5t74 -46t86.5 -18.5zM1352 1184h-256q57 -69 57 -183q0 -73 -29 -137t-88 -102q71 -73 116.5 -176.5t45.5 -225.5q0 -204 -135 -335t-367 -131
q-124 0 -230 43.5t-186 122t-139 179t-100 224.5l123 74q35 -110 83.5 -198.5t113 -158.5t150.5 -108.5t187 -38.5q167 0 263 92.5t96 236.5q0 115 -56 211h-8q-112 -251 -311 -251q-119 0 -191.5 69.5t-72.5 173.5q0 80 43 144l143 -25q-41 -44 -41 -115q0 -54 31 -84
t90 -30q69 0 122 59.5t112 206.5q-32 -4 -54 -4q-57 0 -107 15t-83 38t-67 49.5t-61 49.5t-62.5 38t-73.5 15q-56 0 -89.5 -32.5t-33.5 -86.5q0 -67 51 -129l-123 -56q-72 75 -72 189q0 85 38.5 146t111.5 89q-18 83 -68 142h-266v131h1393v-131z" />
    <glyph glyph-name="bnB_BHA" horiz-adv-x="1257" 
d="M903 516h8q-14 203 -14 414v67q-250 -97 -465 -266zM1298 1184h-256v-715q64 -66 107 -163.5t43 -213.5q0 -206 -132 -337.5t-362 -131.5q-118 0 -220 41.5t-176.5 109.5t-134 162t-97 192.5t-60.5 207.5l129 76q18 -96 47 -183.5t76.5 -174t107 -149.5t144.5 -102
t184 -39q168 0 260.5 91.5t92.5 236.5q0 119 -56 211h-8q-112 -252 -311 -252q-119 0 -189.5 70t-70.5 176q0 82 39 143l143 -26q-43 -46 -43 -113q0 -54 32 -85.5t91 -31.5q57 0 104 42.5t95 144.5l-580 266v170q243 210 600 338v39h-938v131h1339v-131z" />
    <glyph glyph-name="bnL_BHA" horiz-adv-x="1474" 
d="M1516 1184h-267v-711q64 -66 106 -163t42 -214q0 -205 -134.5 -337t-365.5 -132q-119 0 -224.5 41t-186.5 114.5t-142 168t-104 209.5l118 80q37 -101 87 -184t116 -148.5t152.5 -102t185.5 -36.5q167 0 261.5 91.5t94.5 235.5q0 116 -51 209h-8q-37 -126 -112.5 -188
t-172.5 -62q-117 0 -186.5 70.5t-69.5 175.5q0 90 47 154l144 -27q-20 -20 -33.5 -54.5t-13.5 -68.5q0 -54 29.5 -85.5t86.5 -31.5q70 0 114.5 62.5t76.5 181.5v373q-14 46 -61 84.5t-117 38.5q-75 0 -121.5 -53.5t-46.5 -147.5v-78h-139v78q0 94 -50 143.5t-131 49.5
q-77 0 -130.5 -59.5t-53.5 -162.5q0 -121 66.5 -187.5t171.5 -66.5q27 0 73 11l17 -136q-48 -10 -95 -10q-162 0 -271 107t-109 280q0 163 94.5 262t230.5 99q107 0 167.5 -42.5t84.5 -105.5h10q19 68 72.5 112t144.5 44q65 0 112.5 -23.5t72.5 -52.5h8v195h-1147v131h1557
v-131z" />
    <glyph glyph-name="bnK_MA" horiz-adv-x="1851" 
d="M1892 1184h-315v-1346h-139q-64 103 -179.5 184.5t-233.5 125.5t-232 59q-19 -83 -65 -123.5t-105 -40.5q-55 0 -90 31.5t-35 85.5q0 63 42.5 111t116.5 63v35l-555 286v154q106 105 252.5 186t304.5 107v82h-700v131h1933v-131zM664 522h8q-13 188 -13 402v39
q-214 -48 -415 -218zM1440 59q-10 245 -10 347v778h-627v-70q109 -1 195.5 -32.5t138.5 -82.5t79 -112.5t27 -128.5q0 -102 -50 -184t-140 -132l-92 109q139 81 139 207q0 101 -78 160t-219 59v-641q172 -15 342.5 -89t294.5 -188z" />
    <glyph glyph-name="bnG_MA" horiz-adv-x="1751" 
d="M1409 94q-10 245 -10 346v744h-387v-846q126 -20 232 -90.5t165 -153.5zM1544 -158h-139q-54 138 -164 237t-242 128q-21 -82 -67 -122t-103 -40q-56 0 -89 32t-33 87q0 62 42.5 110.5t114.5 63.5v432q0 109 -39 200.5t-121 150.5t-194 59q-107 0 -188.5 -50.5
t-120.5 -121.5q72 32 168 32q130 0 213.5 -74.5t83.5 -201.5q0 -228 -240 -391l-111 100q205 135 205 293q0 71 -51 110t-133 39q-102 0 -195 -41l-108 109q49 147 176 240.5t297 93.5q262 0 381 -207h8q-4 12 -10.5 52.5t-13.5 116.5t-7 151v88h148v-203h778v-131h-246
v-1342z" />
    <glyph glyph-name="bnNG_MA" horiz-adv-x="1806" 
d="M743 948q79 0 119.5 36.5t40.5 96.5q0 55 -42.5 93t-112.5 38q-148 0 -148 -184v-53q73 -27 143 -27zM1602 -416h-140q-52 86 -123.5 154.5t-149.5 111.5t-155.5 69t-154.5 36q-19 -83 -65 -123.5t-105 -40.5q-55 0 -90 31.5t-35 85.5q0 62 42 110.5t115 63.5v70h-24
q-148 0 -270.5 55t-201.5 148.5t-124.5 212.5t-50.5 251l137 35q12 -263 154.5 -414t357.5 -151q165 0 263.5 75t98.5 193q0 73 -30 121q-162 -131 -328 -131q-126 0 -196 67.5t-70 178.5v112q-84 51 -149.5 125t-102.5 154h-246v131h344q41 -148 160 -256q4 132 78 205
t200 73q67 0 125 -22h983v-131h-247v-1600zM1466 -184q-12 196 -12 368v1000h-440q24 -50 24 -107q0 -108 -78 -180t-215 -72q-74 0 -145 19v-41q0 -119 125 -119q78 0 162.5 45.5t195.5 138.5q59 -49 100.5 -127t41.5 -180q0 -146 -89 -249.5t-247 -141.5v-86
q159 -16 312 -84.5t265 -183.5z" />
    <glyph glyph-name="bnTT_MA" horiz-adv-x="1548" 
d="M1208 61q-10 250 -10 349v774h-866v-553q0 -78 47.5 -119t132.5 -41q132 0 214.5 80.5t82.5 202.5q0 76 -35.5 122t-107.5 46q-78 0 -129 -68l-82 119q79 90 211 90t211 -82t79 -227q0 -98 -38 -181t-107 -139v-127q128 -20 234 -91t163 -155zM950 1407q0 -26 -8 -92h645
v-131h-244v-1374h-137q-54 138 -165 237.5t-242 128.5q-19 -82 -64.5 -122t-103.5 -40q-55 0 -90 32t-35 85q0 63 43 112t115 64v47q-74 -22 -152 -22q-146 0 -237 77t-91 216v559h-225v131h834q10 48 10 82q0 87 -55.5 125.5t-176.5 38.5h-254q-93 0 -160 22t-103 60.5
t-52 83.5t-16 98q0 39 4 59l143 31q-6 -35 -6 -68q0 -68 43 -110.5t158 -42.5h268q157 0 255.5 -74.5t98.5 -212.5z" />
    <glyph glyph-name="bnDD_MA" horiz-adv-x="1832" 
d="M1493 -53q-10 245 -10 348v889h-821v-236q0 -55 23.5 -83.5t78.5 -28.5t140.5 45.5t182.5 132.5q62 -40 110 -124.5t48 -199.5q0 -209 -151 -338v-151q125 -20 232 -94t167 -160zM1874 1184h-244v-1487h-139q-55 139 -167 240t-243 133q-19 -81 -63.5 -120.5
t-102.5 -39.5q-55 0 -89.5 32t-34.5 85q0 64 42.5 112.5t116.5 63.5v65q-98 -37 -223 -37q-119 0 -222.5 39t-179.5 108t-132 162t-86 202t-35 227l147 32q10 -290 148.5 -458t361.5 -168q163 0 266 88.5t103 224.5q0 81 -35 133q-161 -127 -307 -127q-118 0 -181 68.5
t-63 177.5v244h-553v131h1915v-131z" />
    <glyph glyph-name="bnNN_MA" horiz-adv-x="1687" 
d="M1391 156q-13 217 -13 348v680h-385v-783q127 -20 233 -90.5t165 -154.5zM645 588q-73 -45 -186 -45q-167 0 -278 102t-111 268q0 182 109.5 301t303.5 119q252 0 375 -221h8q-20 128 -20 311v95h147v-203h385v2h148v-2h200v-131h-200v-1280h-140q-54 138 -164 237.5
t-241 128.5q-19 -81 -65 -121t-103 -40q-55 0 -91 31.5t-36 84.5q0 63 43.5 112t116.5 64v277q0 236 -89 376t-265 140q-132 0 -201.5 -79t-69.5 -204q0 -112 69.5 -172.5t176.5 -60.5q73 0 141 33z" />
    <glyph glyph-name="bnT_MA" horiz-adv-x="1769" 
d="M1812 1184h-247v-1528h-140q-90 151 -250 249t-331 122q-19 -85 -64.5 -125.5t-105.5 -40.5q-55 0 -90 32t-35 87q0 61 42 109t114 65v96h-3q-111 0 -206.5 40t-166 107.5t-126.5 163.5t-93 201.5t-61 228.5l131 60q22 -110 51.5 -204t74.5 -183t100 -150.5t130.5 -99
t163.5 -37.5q149 0 235.5 92t86.5 246q0 118 -47.5 184t-140.5 66q-65 0 -105.5 -38t-40.5 -104q0 -100 80 -147l-102 -84q-56 36 -88.5 98.5t-32.5 136.5q0 117 78.5 194t207.5 77q162 0 247 -108.5t85 -276.5q0 -173 -83 -288.5t-226 -154.5v-116q156 -19 317.5 -95.5
t258.5 -183.5q-13 217 -13 346v963h-1458v131h1853v-131z" />
    </font>
</defs>
</svg>
